<svg version="1" xmlns="http://www.w3.org/2000/svg" width="1206pt" height="600pt" viewBox="0 0 1206.000000 600.000000"><path d="M0 300v300h1206v-600h-1206v300zm1203-257v40l-300.7.2-300.8.3-.3 44.2-.3 44.3h602.1v83l-300.7.2-300.8.3v89l300.5.2 300.5.3.3 41.5.2 41.5h-602v89h602v80h-1200v-594h1200v40zM169.3 169.7l-2.3.4v59.7c0 76.5 1.2 89.2 11 118.6 9.4 28.1 24.8 53.1 46.5 75.5 11.6 12 21.2 19.9 34.5 28.7 10.3 6.7 28.3 16.1 36.7 19 6.1 2.2 7 1.9 22.8-5.5 26.1-12.4 51-31.7 69-53.5 23.1-28.2 36.6-57.1 43.6-93.6 2.1-11 2.2-14.3 2.7-80.8l.4-69.2-131.4.1c-72.2.1-132.3.4-133.5.6zm113.7 20.6c0 .2-.7 2.5-1.6 5.1-1.9 5.4-1.3 10.2 1.6 13.9l1.9 2.4-2.7 2.7c-3.8 3.6-5 3.3-7.2-1.7-2.2-4.7-2.6-12.7-.9-16 1.9-3.6 5.1-6.7 7.1-6.7 1 0 1.8.1 1.8.3zm39.8 1.9c4.6 5 5.6 14.2 2.2 21.7-2.2 4.7-2.1 4.7-7.7-.2l-2.2-2 2.4-2.9c1.4-1.6 2.5-3.7 2.6-4.6.3-4.1-.4-7.7-1.8-9.8-2.8-4.3.8-6 4.5-2.2zm-12.1 19.6c4.2 2.2 12.3 10.3 12.3 12.4 0 .7-1.6 2.6-3.6 4.2-1.9 1.5-4.4 4.2-5.5 6-2.6 4.2-2.6 12.9.1 18 1 2.2 1.7 4.3 1.4 4.8-1.5 2.4-8.7 4.8-14.4 4.8-6.5 0-16-3.2-16-5.4 0-.7.9-2.9 2-5.1 4-7.8 2-15.7-5.9-23.2l-4.4-4.2 4.7-5.5c7.9-9.3 19.2-11.9 29.3-6.8zm-102.3 17.4c4-.2 5.8 1.5 5.1 4.7-.5 2.2.5 3.7 7 10.1l7.5 7.4 6.5-6.4c5.1-5.1 6.5-7 6.3-9.1-.3-3.7 2-6.2 4.9-5.4 1.2.3 3.1 0 4.2-.7 1.5-.9 2.5-.9 4.6 0 2.3 1.1 2.6 1.7 2 4-.4 1.5-.7 4.1-.8 5.8-.3 4.1-2.4 6.5-5.1 5.8-1.6-.4-3.7 1-9 6l-6.9 6.4 29.5 29.4 29.5 29.3-.1 5.5c-.1 3.6-.5 5.5-1.3 5.5-.7 0-15.5-14.2-32.9-31.5l-31.6-31.5-6.4 7c-4.5 4.9-6.4 7.7-6.4 9.6 0 3.6-1.5 4.5-8.1 5.3-6.6.8-8.6-.6-7.4-5.1.5-1.6.7-4 .6-5.4-.3-3.2 2.1-5.3 5.3-4.7 2 .4 3.7-.8 9.1-6.2l6.7-6.8-7.8-7.5c-6.1-5.8-8.3-7.3-9.5-6.6-2.8 1.5-4.6-1.2-5.3-7.8-.6-5.3-.4-6.3 1.1-7.2 1-.6 2.7-.7 3.8-.4 1.1.4 3.3.6 4.9.5zm180.9 1.8c-.3 1-1.1 2.5-1.9 3.1-2.1 1.7-1.7 2.9 1.1 2.9 1.6 0 4.2-1.6 7-4.1 2.5-2.3 4.9-3.9 5.3-3.5.4.4.7 3.8.6 7.5 0 4.9-.6 8-2.2 11-2.7 5-2.7 5.9-.4 5.7 2-.1 1.9 1-1 8.2-1.6 4.2-2.9 5.7-5.9 7.2-2.1 1.1-4.4 2-5.2 2-2 0-27.7-26.4-27.7-28.5 0-2.9 3.8-8.2 6.8-9.3 1.5-.6 5.9-1.3 9.9-1.6 3.9-.2 8.4-1.1 10-1.9 3.3-1.8 4.3-1.4 3.6 1.3zm-17.5 29.1c12.7 13 23.2 24.2 23.2 24.9 0 1-1.3 1.1-5.2.7-5.1-.6-5.3-.8-23.7-18.9-21.1-20.8-21.1-20.7-22.2-25.6-1-4.7.5-7.8 2.9-6 .9.7 12.2 11.9 25 24.9zm-18.4-2.5c23.1 23.3 25.8 26.7 18.9 23.1-3.2-1.8-23.3-21.9-23.3-23.5 0-.6-.3-1.9-.7-2.9-.6-1.6-.5-1.7 1.2-.3 1 .8 2.8 2.4 3.9 3.6zm-49 7.5c.2.2.6 29 .8 63.9l.3 63.5-3.9.3c-2.1.2-4.2 0-4.7-.5s-.9-29.2-.9-63.8c-.1-49.7.2-63 1.2-63.6 1.2-.8 6.5-.6 7.2.2zm54.6 6.4c4.1 4.1 7.2 7.6 6.9 7.9-.2.3-3.8 2.7-7.9 5.4-9.9 6.5-19.8 14.8-35.4 29.8-7 6.8-13.5 12.4-14.3 12.4-1.3 0-1.4-1-.8-5.7.6-5 1.3-6.4 6.2-11.9 3-3.5 5.8-6.4 6.3-6.6 2.8-1 27.8-32.4 29.6-37.2.3-.9.9-1.6 1.3-1.6.3 0 4 3.4 8.1 7.5zm-65 65.8v5.2l-19.3 19.3-19.3 19.3-3.4-3.1-3.3-3.1 12.5-12.7c27.4-27.8 31-31.2 31.9-30.7.5.4.9 3 .9 5.8zm36 15.2l20.4 20.4-2.9 3.1c-1.6 1.6-3.2 3-3.7 3-1.7 0-35.8-35.2-36.4-37.6-.7-2.7.3-9.4 1.4-9.4.4 0 9.9 9.2 21.2 20.5zm26.4 21.2c.7.7-9.2 11.3-10.6 11.3-2.3 0-.3-4.2 3.7-7.9 4.5-4.1 5.6-4.7 6.9-3.4zm-105.7 5.8c3.7 3.6 4.4 4.8 3.4 5.8-1 .9-2.1.2-5.7-3.5-7.3-7.7-5.4-9.7 2.3-2.3zm113.3-3c1 1.2 0 2.8-6 9.5-4 4.4-7.4 8-7.7 8-1.3 0-4.3-2.2-4.3-3.3 0-1.5 14.1-15.7 15.6-15.7.6 0 1.7.7 2.4 1.5zm-117.2 6.8c7.3 7.4 8.2 9.7 4.4 11.2-1.1.4-3.8-1.7-8.9-6.7-7.5-7.5-8.1-8.6-6.1-10.6s3.1-1.4 10.6 6.1zm118.6 3c-1.7 3-7.5 8.7-8.8 8.7-3 0-2.4-1.7 2.6-6.7 3.1-3.1 5.6-4.9 6.1-4.4s.5 1.6.1 2.4zm-123.4 4.4l2.1 2.7-5.3 3.3c-5.5 3.5-7.7 4.1-7.9 2-.3-2.5.3-4.3 2.7-8.5 2.1-3.6 2.8-4.1 4.4-3.2 1 .5 2.8 2.2 4 3.7zm127.2 0c2.2 2 2.3 4.2.2 7.1-1.9 2.7-4.4 2.8-7.5.3l-2.4-2 3.4-3.5c4-4.2 3.9-4.1 6.3-1.9zm-60.2 6.2c2.6 5 .2 6.7-8.8 6.3l-7.2-.4v-3.2c0-1.8.3-3.6.7-3.9.3-.4 3.7-.7 7.4-.7 5.7 0 7 .3 7.9 1.9zm-3.2 19.3l-.3 10.3-4.7.3-4.8.3v-6.8c0-3.7.3-8.5.6-10.6.6-3.6.8-3.7 5.1-3.7h4.4l-.3 10.2zm4 16c.4 3.3-1.7 4.1-10.2 3.6-6.2-.3-8.5-2-7.3-5.2.6-1.4 2-1.6 8.9-1.4 8.2.3 8.3.3 8.6 3zm-3 8.5c.4 2.9-3.8 5.8-7.3 4.9-1.4-.4-3.1-1.8-3.7-3.2-1.6-3.4.2-4.5 6.2-4.2 3.8.3 4.6.7 4.8 2.5z"/></svg>