<svg xmlns="http://www.w3.org/2000/svg" width="400" height="199.005" viewBox="0, 0, 400,199.00497512437812"><g fill-rule="evenodd"><path d="M202.041 28.62c-1.036.045-1.543.147-1.542.308 0 .133-.022 6.513-.05 14.178l-.051 13.937h199.602v-28.318l-.924-.127c-.926-.127-194.138-.106-197.035.022m-141.314 27.93c-.603.086-1.828.164-2.725.175-1.897.023-1.731-.2-2.067 2.775-.176 1.563-.177 3.936-.004 9.856.125 4.288.218 12.68.208 18.648-.017 8.927.036 11.24.295 13.041.174 1.205.367 2.586.43 3.07.069.531.175.782.268.632.176-.285.452 1.02.486 2.302.013.455.103.778.201.717.099-.061.122.114.052.394-.272 1.081 1.893 8.126 4.146 13.493 1.449 3.452 1.626 3.822 2.538 5.297.413.669.751 1.273.751 1.341 0 .26 3.509 5.103 5.351 7.385 2.118 2.625 6.865 7.535 9.185 9.499 4.203 3.561 12.064 8.363 16.425 10.035.657.252 1.631.653 2.164.892 1.363.609 1.356.611 7.791-2.266 5.065-2.266 12.527-7.432 15.231-10.547.666-.766 3.785-3.889 4.509-4.513 1.291-1.114 5.989-7.039 7.383-9.311.194-.317.667-.952 1.05-1.412 1.308-1.57 4.129-7.098 4.799-9.403.141-.484.362-1.059.491-1.278.129-.219.523-1.339.875-2.489s.683-2.225.735-2.389l.107-.398c.007-.055.137-.519.289-1.03.792-2.665 1.472-7.012 1.724-11.016.443-7.022.145-43.06-.359-43.435-.35-.261-3.155-.281-23.096-.167-24.611.142-26.191.143-45.296.026-7.063-.043-13.335-.009-13.937.076m45.851 5.991c3.067 1.539 3.773 5.178 1.829 9.428-.269.587-.6 1.105-.735 1.15-.181.06-.151.229.114.633.522.797.296 1.338-1.052 2.525-2.104 1.852-2.944 5.577-1.652 7.327.953 1.291.857 1.631-.83 2.934-.831.642-1.513 1.313-1.513 1.491-.001.179-.136.646-.3 1.039-.369.884-.433 5.506-.076 5.506.122 0 .177.173.122.384-.075.286-.018.357.225.282.288-.089.291-.069.028.164-.328.291-.318.218-.579 4.345-.179 2.846-.161 3.188.175 3.188.661 0 10.757-11.487 10.757-12.24 0-.194 1.427-2.178 2.016-2.802.698-.739.71-1.098.079-2.38-.269-.547-.492-1.244-.496-1.547-.003-.304-.227-.886-.496-1.294-1.302-1.973-1.357-5.147-.102-5.923.313-.193 1.85.889 2.907 2.046l1.021 1.119.347-.685c.884-1.743 2.734-2.763 5.448-3.005 1.056-.094 2.546-.359 3.312-.588.986-.296 1.741-.392 2.588-.331.848.062 1.508-.022 2.269-.289 1.233-.433 1.227-.437 1.788 1.094.773 2.108.732 3.705-.154 5.982-.299.768-.28.87.192.993.514.135.385 1.153-.321 2.528-.252.493-.632 1.303-.843 1.802-.443 1.046-1.544 2.379-1.965 2.379-.429 0-1.513.6-1.915 1.061-.351.402-.358.4-1.195-.378l-.841-.782.885.943c.517.551.94.856 1.016.733.083-.135.405-.025.885.3.414.282.817.512.894.512.421 0 .87 1.392.686 2.128-.176.701-.242.757-.857.727-.962-.045-3.551-.642-4.654-1.071-.52-.202-.946-.288-.946-.189 0 .098-.425.049-.946-.109-1.468-.445-1.717-.379-3.888 1.029-4.209 2.731-6.554 4.703-12.095 10.173-2.138 2.11-4.087 3.977-4.33 4.147-.449.315-.616 1.085-.236 1.085.114 0 2.6 2.367 5.525 5.261 6.935 6.863 9.052 8.477 11.116 8.477.488 0 1.852.826 1.948 1.18.047.172.146.758.22 1.301.181 1.323.613 2.353 1.204 2.867.881.766.711 2.47-.343 3.443-1.064.982-1.164.974-3.823-.329-1.23-.603-2.46-1.095-2.734-1.095-.829 0-2.17-1.122-2.17-1.816 0-1.271-.788-3.024-1.869-4.158-2.166-2.27-3.127-3.448-3.027-3.708.056-.148.039-.248-.039-.221-.079.026-.143-.011-.143-.082 0-.181-.718-.954-.869-.935-.399.05-.63-.102-1.106-.725-.418-.548-.454-.667-.172-.57.3.103.293.075-.04-.185-.218-.169-.479-.257-.579-.195-.1.062-.127.024-.06-.084.067-.109-.291-.593-.794-1.076-.771-.741-.842-.777-.452-.233.255.356.537.648.626.648.088 0 .161.096.161.213 0 .118-.207.05-.46-.149-.924-.729-2.402-1.967-2.845-2.383-.722-.679-.721-.694-.296 9.884.098 2.463.135 4.55.081 4.638-.054.087.134.462.417.833.477.626.717 1.448.358 1.226-.086-.054-.175.125-.198.397-.022.272.042.443.143.381.399-.247.393.298-.01.981-.395.669-.423.97-.389 4.129.037 3.557.139 4.049.989 4.819.536.485.532.522-.179 1.643-.329.518-.597 1.205-.597 1.527 0 1.21-1.475 2.722-2.655 2.722-1.307 0-3.119-1.709-3.119-2.94 0-.265-.18-.71-.399-.988-.547-.696-.501-1.694.141-3.022.819-1.695.836-6.507.028-7.7-1.038-1.531-.909-2.61.402-3.385.486-.287.556-.426.438-.86-.078-.285-.089-3.519-.023-7.188.068-3.824.043-6.776-.06-6.919-.116-.162-.089-.249.079-.249.141 0 .205-.051.142-.114-.492-.492-12.495 11.411-12.495 12.392 0 .16-.244.8-.542 1.423-.298.623-.516 1.252-.485 1.397.16.757-1.011 1.182-2.054.746-.576-.241-.713-.242-.907-.009-.561.676-4.244 2.521-4.691 2.349-1.395-.535-1.452-1.999-.165-4.276.374-.662.68-1.284.68-1.383 0-.28.537-.212.858.109.159.159.344.234.411.167.068-.067-.049-.242-.258-.388-1.703-1.193-.84-3.652 1.28-3.652 1.349 0 2.612-1.025 9.257-7.509 2.355-2.297 5.02-4.83 5.924-5.629.903-.799 1.642-1.552 1.642-1.673-.001-.122-2.617-2.775-5.815-5.896-3.198-3.121-7.756-7.632-10.129-10.024-2.724-2.748-4.431-4.325-4.632-4.281-.491.107-2.462 2.527-3.055 3.753-.292.602-.827 1.508-1.189 2.013l-.658.918-1.845.108c-2.261.134-2.893-.098-3.388-1.242-1.217-2.808-.181-5.312 2.355-5.693.749-.112 1.135-.373 2.616-1.77l1.737-1.639-1.369-1.275c-.753-.702-1.584-1.512-1.848-1.799-.337-.37-.761-.561-1.438-.651-2.29-.304-4.251-3.864-3.099-5.624 1.671-2.549 7.467-1.31 7.467 1.596 0 .457 2.57 3.536 3.311 3.968.508.296 2.751-1.971 2.966-2.997l.187-.906c.135-.66 1.118-1.878 1.699-2.105 3.663-1.43 7.433.215 5.974 2.608-.239.392-.399 1.009-.402 1.548-.002.493-.069.986-.15 1.096-.389.533-1.632 1.257-2.373 1.382-.638.108-1.194.461-2.429 1.544-1.819 1.595-1.823 1.627-.33 2.851.489.4.945.906 1.014 1.124.069.217.165.356.213.308.049-.048.968.818 2.045 1.926 1.076 1.108 3.38 3.402 5.119 5.1 1.739 1.697 4.197 4.1 5.462 5.339 2.598 2.543 2.804 2.705 3.024 2.366.421-.649-.093-15.669-.536-15.669-.43 0-3.081-1.86-3.208-2.251-.068-.209.19-1.001.616-1.892 1.266-2.648.739-4.919-1.612-6.948-1.232-1.064-1.691-2.074-1.286-2.831.206-.384.144-.577-.472-1.473-.463-.675-.862-1.629-1.153-2.758l-.446-1.727.446-1.384c1.01-3.135 3.118-4.628 4.72-3.342l.597.48-.348.989c-1.128 3.203.445 6.44 2.495 5.136 1.249-.794 3.003-.794 5.463 0 1.09.352 1.232.282 2.108-1.048.814-1.236.933-2.083.4-2.844-.529-.755-.466-2.254.121-2.879.578-.616.442-.608 1.466-.094m-.815 4.005c-.139.748-.158 1.309-.048 1.419.11.11.06.388-.127.703l-.309.521.421-.498c.293-.346.422-.771.422-1.394v-1.378c-.001-.853-.123-.639-.359.627m25.646 9.247c0 .111-.238.309-.528.441-.565.258-.401.735.176.513.306-.117.625-.881.443-1.062-.05-.051-.091-.002-.091.108m-.498 1.581l-.797.712.847-.632c.728-.545.991-.808.796-.796-.027.002-.408.324-.846.716m2.454 1.77c-.074.547-.187 1.219-.251 1.493-.081.347-.022.295.194-.173.172-.37.284-1.04.251-1.493l-.06-.823-.134.996m-13.206 4.081c.871.877 1.629 1.593 1.683 1.593.055 0-.613-.716-1.484-1.593-.871-.876-1.628-1.592-1.683-1.592-.054 0 .613.716 1.484 1.592m12.166-.513c-.181.383-.417.75-.523.815-.376.232-.192.537.255.425.505-.126.83.026.998.468.093.244.117.237.13-.038.009-.185-.074-.392-.184-.46-.109-.067-.199-.302-.199-.521 0-.219-.089-.343-.199-.275-.279.173-.249-.368.037-.654.129-.129.186-.285.125-.345-.06-.061-.258.203-.44.585m264.489 2.145c-1.259.078-45.968.124-99.353.101l-97.063-.04.064 14.236c.039 8.958.135 14.31.258 14.435.13.132 33.693.212 99.738.239l99.542.04v-29.003l-.448-.075c-.246-.041-1.478-.011-2.738.067m-298.058 2.381c.778.32 1.363.336 1.476.041.08-.207-.139-.268-.935-.258-.907.011-.976.039-.541.217m-.751 2.16c0 .383.041.54.091.348.051-.191.051-.505 0-.697-.05-.191-.091-.035-.091.349m29.568.397c.505.537.696.632.886.442.19-.19.161-.242-.134-.242-.206 0-.605-.199-.886-.442-.286-.248-.228-.142.134.242m-29.572 2.225c-.023 1.058-.1 2.089-.171 2.289-.096.274-.07.311.107.149.161-.148.215-.872.171-2.29l-.065-2.073-.042 1.925m.008 4.048c.003.438.043.593.091.346.048-.248.046-.606-.004-.797-.05-.19-.089.013-.087.451m.02 3.683c0 .931.034 1.312.076.846.042-.465.042-1.227 0-1.692-.042-.465-.076-.085-.076.846m22.78 32.993c.247.048.606.046.796-.004.19-.05-.012-.089-.45-.087-.438.003-.594.043-.346.091m-19.212 8.023c0 .492.039.694.087.448.047-.247.047-.65 0-.896-.048-.247-.087-.045-.087.448m-3.689.181c-.083.373-.105.724-.05.78.208.207.326-.148.264-.793l-.064-.666-.15.679m1.495 1.35c.191.05.505.05.697 0 .191-.051.034-.092-.349-.092s-.54.041-.348.092m101.175.429c-.106.076-.139 6.002-.08 14.366l.099 14.236 99.254.1c54.589.054 99.455.07 99.701.035l.448-.063v-28.592l-1.152-.13c-1.503-.17-198.035-.122-198.27.048" fill="#b60453"/><path d="M0 99.552v99.552h400v-13.852c0-13.833-.001-13.851-.406-13.788-.404.064-.407.144-.448 13.404l-.042 13.34-199.054.05-199.054.05-.003-7.616c-.001-4.189-.001-48.606.001-98.706l.002-91.09h398.108l.051 13.228c.041 10.45-.001 13.261-.199 13.386-.138.088-44.976.161-99.641.162-62.765.002-99.434.073-99.508.193-.389.628-.199 29.178.193 29.178.394 0 .399-.149.448-14.037.028-7.72.08-14.126.116-14.235.044-.133 33.471-.2 99.751-.2h99.685v-28.570999999999998h-400v99.552m58.065-43.215l-2.363.109-.066 1.417c-.101 2.177.207 2.984.387 1.015.201-2.196.152-2.133 1.689-2.135 2.028-.002 4.077-.232 3.774-.424-.144-.091-.441-.149-.66-.129-.219.021-1.461.087-2.761.147m30.337-.002c-1.596.094-1.767.134-1.095.258.93.172 8.369.157 11.548-.023l2.19-.124-3.068-.149c-3.246-.158-6.457-.146-9.575.038m54.274.094l.615.27.131 2.263c.072 1.244.132 10.102.134 19.684.003 11.322.072 17.317.197 17.123.121-.188.194-7.599.196-19.928l.003-19.629-.946-.026-.945-.027.615.27m-40.185.058c.248.048.606.046.797-.004.19-.05-.013-.089-.451-.086-.438.002-.594.043-.346.09m296.665 14.494c.052 13.656.058 13.837.448 13.837.391 0 .396-.164.396-13.837v-13.838h-.896l.052 13.838m-294.044-8.346c-.587.625-.65 2.124-.121 2.879.533.761.414 1.608-.4 2.844-.876 1.33-1.018 1.4-2.108 1.048-2.46-.794-4.214-.794-5.463 0-2.05 1.304-3.623-1.933-2.495-5.136l.348-.989-.597-.48c-1.602-1.286-3.71.207-4.72 3.342l-.446 1.384.446 1.727c.291 1.129.69 2.083 1.153 2.758.616.896.678 1.089.472 1.473-.405.757.054 1.767 1.286 2.831 2.351 2.029 2.878 4.3 1.612 6.948-.426.891-.684 1.683-.616 1.892.127.391 2.778 2.251 3.208 2.251.443 0 .957 15.02.536 15.669-.242.373-4.881-3.973-12.56-11.764-1.822-1.849-3.846-3.89-4.496-4.535-1.357-1.345-1.454-.994.841-3.015.925-.814 1.47-1.138 2.088-1.242.748-.127 1.991-.849 2.382-1.384.081-.11.148-.603.15-1.096.003-.539.163-1.156.402-1.548 1.459-2.393-2.311-4.038-5.974-2.608-.581.227-1.564 1.445-1.699 2.105l-.187.906c-.215 1.026-2.458 3.293-2.966 2.997-.741-.432-3.311-3.511-3.311-3.968 0-2.249-3.712-3.81-6.137-2.581-2.835 1.437-1.569 6.166 1.769 6.609.677.09 1.101.281 1.438.651.264.287 1.095 1.097 1.848 1.799l1.369 1.275-1.737 1.639c-1.481 1.397-1.867 1.658-2.616 1.77-2.536.381-3.572 2.885-2.355 5.693.495 1.144 1.127 1.376 3.388 1.242l1.845-.108.658-.918c.362-.505.897-1.411 1.189-2.013.593-1.226 2.564-3.646 3.055-3.753.201-.044 1.908 1.533 4.632 4.281 2.373 2.392 6.931 6.903 10.129 10.024 3.198 3.121 5.814 5.774 5.815 5.896 0 .121-.739.874-1.642 1.673-.904.799-3.569 3.332-5.924 5.629-6.695 6.532-7.903 7.508-9.3 7.509-2.151.001-2.962 3.019-1.011 3.761.635.241 2.548 2.067 2.538 2.421-.008.275-2.048 1.661-3.236 2.199-1.477.669-1.576-1.315-.162-3.238.695-.945.762-1.262.304-1.438-.445-.171-.681-.15-.681.059 0 .099-.306.721-.68 1.383-1.287 2.277-1.23 3.741.165 4.276.447.172 4.13-1.673 4.691-2.349.194-.233.331-.232.907.009.889.372 1.142.358 1.656-.088.616-.534.551-.912-.084-.496-.759.497-1.206.239-3.487-2.019-2.587-2.56-2.846-3.11-1.742-3.701.712-.381 1.221-.046 3.619 2.382l2.351 2.38.384-.895c.211-.493.384-1.014.384-1.158 0-.958 12.014-12.844 12.495-12.363.063.063-.001.114-.142.114-.168 0-.195.087-.079.249.103.143.128 3.095.06 6.919-.066 3.669-.055 6.903.023 7.188.118.434.048.573-.438.86-1.311.775-1.44 1.854-.402 3.385.808 1.193.791 6.005-.028 7.7-.642 1.328-.688 2.326-.141 3.022.219.278.399.723.399.988 0 1.231 1.812 2.94 3.119 2.94 1.18 0 2.655-1.512 2.655-2.722 0-.322.268-1.009.597-1.527.711-1.121.715-1.158.179-1.643-.85-.77-.952-1.262-.989-4.819-.034-3.159-.006-3.46.389-4.129.569-.963.323-1.288-.388-.51-.596.653-1.025.733-3.526.657-1.759-.053-2.466-.98-1.804-2.364l.27-.564 2.287-.057 2.287-.057.542.655c.732.881.767.209.039-.745-.283-.371-.471-.746-.417-.833.054-.088.017-2.175-.081-4.638-.425-10.578-.426-10.563.296-9.884.443.416 1.921 1.654 2.845 2.383.542.427.609.29.112-.229-.192-.201-.564-.626-.827-.946-.263-.32-.957-1.09-1.543-1.712l-1.065-1.13.003-1.558c.004-1.663.157-2.136.656-2.025.293.065 13.677 13.2 13.677 13.422 0 .271-1.886 2.078-2.169 2.078-.177 0-1.907-1.568-3.845-3.485-1.937-1.916-3.586-3.484-3.663-3.484-.197 0 .451.749 1.463 1.692.469.439 1.014 1.041 1.21 1.34.196.299 1.175 1.428 2.175 2.51 1.878 2.031 2.639 3.467 2.639 4.987 0 .694 1.341 1.816 2.17 1.816.274 0 1.504.492 2.734 1.095 2.659 1.303 2.759 1.311 3.823.329 1.054-.973 1.224-2.677.343-3.443-.591-.514-1.023-1.544-1.204-2.867-.074-.543-.173-1.129-.22-1.301-.096-.354-1.46-1.18-1.948-1.18-2.064 0-4.181-1.614-11.116-8.477-2.925-2.894-5.411-5.261-5.525-5.261-.38 0-.213-.77.236-1.085.243-.17 2.192-2.037 4.33-4.147 5.541-5.47 7.886-7.442 12.095-10.173 2.171-1.408 2.42-1.474 3.888-1.029.521.158.946.209.946.113 0-.095-.27-.233-.599-.305-1.971-.433-10.006-9.457-8.42-9.457.423 0 8.995 8.707 9.143 9.287.106.421 1.626 1.18 2.067 1.033.11-.037-2.492-2.755-5.781-6.04-6.967-6.956-7.527-7.737-7.063-9.851.274-1.246.684-.921 7.59 6.016 3.627 3.643 6.718 6.74 6.869 6.882.878.827 2.115 2.164 2.415 2.61l.347.516.001-.567c.002-.754-.552-1.655-1.181-1.923-.983-.418-1.476-.953-1.165-1.264.37-.37 1.461-.925 1.819-.925.421 0 1.522-1.333 1.965-2.379.211-.499.591-1.309.843-1.802.706-1.375.835-2.393.321-2.528-.472-.123-.491-.225-.192-.993.886-2.277.927-3.874.154-5.982-.561-1.531-.555-1.527-1.788-1.094-.761.267-1.421.351-2.269.289-.847-.061-1.602.035-2.588.331-.766.229-2.256.494-3.312.588-2.714.242-4.564 1.262-5.448 3.005l-.347.685-1.021-1.119c-1.057-1.157-2.594-2.239-2.907-2.046-1.255.776-1.2 3.95.102 5.923.269.408.493.99.496 1.294.004.303.227 1 .496 1.547.631 1.282.619 1.641-.079 2.38-.589.624-2.016 2.608-2.016 2.802 0 .753-10.096 12.24-10.757 12.24-.385 0-.382-.226.089-7.317.039-.575-.009-1.046-.106-1.046-.314 0-.21-4.712.122-5.506.164-.393.299-.86.3-1.039 0-.178.682-.849 1.513-1.491 1.687-1.303 1.783-1.643.83-2.934-1.292-1.75-.452-5.475 1.652-7.327 1.348-1.187 1.574-1.728 1.052-2.525-.265-.404-.295-.573-.114-.633.135-.045.466-.563.735-1.15 1.944-4.25 1.238-7.889-1.829-9.428-1.024-.514-.888-.522-1.466.094m-11.334.788c0 .145-.1.517-.223.825-.425 1.072-.558 1.932-.339 2.196.152.183.148.256-.011.256-.548 0 .147 2.207.971 3.086.365.388-1.153 2.489-1.798 2.489-1.405 0-2.437-5.122-1.427-7.083.842-1.635 2.827-2.877 2.827-1.769m13.346.472c1.717 1.805 1.853 5.728.281 8.127l-.305.466-.589-.419c-1.476-1.051-2.06-1.765-1.746-2.135.602-.711 1.119-1.8.939-1.98-.109-.109-.088-.646.053-1.345.216-1.078.2-1.227-.225-2.027-.823-1.551.306-2.039 1.592-.687m-51.359 7.583c-.155 15.699-.092 27.652.157 29.567 1.451 11.162 4.484 20.073 9.506 27.923.371.58.675 1.084.675 1.121 0 .081 1.447 2.254 2.393 3.595.381.539 1.051 1.395 1.489 1.901.438.506 1.11 1.319 1.493 1.807 2.851 3.629 8.953 9.051 14.037 12.474 4.452 2.997 12.668 7.097 14.213 7.093 1.212-.004 7.888-3.082 11.219-5.174.408-.256.786-.466.839-.466.248 0 4.044-2.653 6.283-4.391 6.776-5.262 11.935-11.068 16.309-18.357.547-.911.291-.984-.332-.094-8.906 12.733-17.88 20.911-27.824 25.359-6.435 2.877-6.428 2.875-7.791 2.266-.533-.239-1.507-.64-2.164-.892-4.361-1.672-12.222-6.474-16.425-10.035-2.32-1.964-7.067-6.874-9.185-9.499-1.842-2.282-5.351-7.125-5.351-7.385 0-.068-.338-.672-.751-1.341-.912-1.475-1.089-1.845-2.538-5.297-2.281-5.434-3.685-10.032-4.741-15.531-1.129-5.882-1.168-6.523-1.165-19.313.001-6.515-.064-13.817-.146-16.227l-.148-4.38-.052 5.276m45.022-1.968c2.171.457 4.268 1.857 5.936 3.964.637.803.675 1.787.07 1.787-.448 0-2.059 1.598-2.645 2.625-.838 1.466-.749 4.8.167 6.241l.629.99-.456.378c-.673.559-2.929 1.546-3.613 1.582-.783.041-.855.354-.172.743l.552.313.043 10.239c.024 5.632.089 15.023.145 20.87.074 7.731.041 10.704-.122 10.901-.3.36-2.941.379-3.056.021-.044-.137-.133-8.178-.199-17.869-.065-9.692-.126-17.755-.135-17.92-.079-1.498.095-6.124.241-6.396.102-.191.432-.375.733-.41.421-.049.158-.194-1.145-.632-3.381-1.135-3.62-1.407-2.74-3.114.683-1.325 1.03-3.584.549-3.584-.19 0-.193-.065-.014-.281.501-.603-1.103-3.323-2.59-4.391-1.352-.971-1.236-1.379 1.096-3.857 1.662-1.766 4.451-2.678 6.726-2.2m30.694 6.692c-.129.493-.647.754-.932.469-.129-.129-.015-.279.332-.437.29-.132.528-.33.528-.441 0-.11.041-.159.091-.108.051.05.042.283-.019.517m1.6.136c.709 1.698.427 5.123-.509 6.181-.235.265-.21.756.031.607.11-.068.199.018.199.19 0 .172.098.47.218.662.174.278.028.782-.713 2.476-1.051 2.398-.916 2.242-2.782 3.223l-1.387.729-2.695-2.755c-7.369-7.533-7.075-7.074-5.734-8.942.995-1.386 1.999-1.764 5.148-1.939 1.295-.073 2.194-.235 2.788-.505.955-.433 1.773-.526 1.773-.201 0 .372-.536 1.496-.873 1.834-.309.308-.304.345.068.544.512.275 1.699-.443 2.988-1.805 1.087-1.15 1.121-1.157 1.48-.299m-63.781-.276c1.234-.027 1.686.456 1.502 1.603l-.131.821 2.336 2.37c1.285 1.303 2.435 2.369 2.556 2.369.665 0 4.489-4.334 4.262-4.832-.505-1.11.673-2.264 1.921-1.881.556.171.745.148 1.045-.123 1.303-1.179 3.03.642 2.138 2.254-.194.349-.216.603-.076.864.501.937-.628 2.175-1.753 1.921-.688-.155-.741-.119-2.876 1.947-1.196 1.158-2.175 2.163-2.175 2.234 0 .124 1.929 2.055 13.664 13.674l5.6 5.545.122 1.704c.125 1.739-.003 2.179-.635 2.179-.244 0-11.276-10.794-18.72-18.318l-2.463-2.489-2.119 2.218c-2.078 2.174-2.119 2.235-2.119 3.153 0 1.226-.605 1.789-1.755 1.635-.446-.06-1.05.016-1.447.182-1.412.59-2.537-.41-2.066-1.836.13-.394.188-1.008.13-1.366-.192-1.187.444-1.895 1.704-1.895h1.052l2.037-2.054c1.121-1.129 2.037-2.139 2.037-2.243 0-.104-1.068-1.254-2.373-2.556l-2.373-2.367-.626.259c-.983.407-1.686-.21-1.726-1.514-.016-.535-.128-1.226-.248-1.534-.572-1.462.041-2.202 1.672-2.018.547.062 1.404.104 1.903.094m130.37 8.895c-.037.088-.068 6.701-.068 14.695v14.534l99.64.05c79.409.04 99.672.101 99.798.299.284.447.201 27.18-.085 27.365-.137.088-45.03.206-99.763.26l-99.514.1-.046 14.584-.045 14.585h1.01l-.1-14.286c-.06-8.588-.027-14.338.083-14.418.101-.072 45.011-.117 99.801-.099l99.619.032v-28.77l-.448-.005c-.246-.003-45.04-.026-99.542-.05-65.74-.03-99.16-.112-99.29-.244-.124-.126-.219-5.445-.259-14.433-.058-13.061-.09-14.238-.393-14.296-.181-.035-.36.008-.398.097m-80.779 4.789c3.026 2.96 2.997 2.909 1.919 3.456-.986.502-3.942 2.548-5.529 3.827-3.166 2.554-4.439 3.693-8.341 7.465-5.07 4.899-5.004 4.866-4.985 2.488.018-2.277-.159-1.97 3.173-5.504 2.542-2.698 3.78-4.085 6.579-7.369 1.916-2.248 3.556-4.622 4.184-6.055.39-.89.321-.928 3 1.692m24.528 11.399c0 .712.036 1.003.08.647.044-.356.044-.938 0-1.294-.044-.356-.08-.065-.08.647m-45.979 9.075c.067.174.121 1.038.121 1.921v1.606l-6.342 6.342c-3.488 3.488-6.404 6.342-6.48 6.342-.275 0-2.111-1.855-2.111-2.133 0-.344 14.104-14.393 14.45-14.393.133 0 .296.142.362.315m20.828 14.019c0 .58-3.024 3.646-3.505 3.554-.783-.149-.572-.954.551-2.107 1.676-1.722 2.954-2.348 2.954-1.447m-36.473.48c1.408.729 3.042 3.023 2.425 3.405-.414.256-3.544-3.065-3.285-3.484.16-.259.215-.254.86.079m38.912-.002c.714.542.423 1.032-2.235 3.755-2.213 2.268-2.643 2.489-3.39 1.742-.635-.635-.524-.826 1.941-3.361 2.425-2.492 2.873-2.752 3.684-2.136m.746 2.878c0 .534-1.308 2.301-2.405 3.249-.46.397-1.477.21-1.477-.272 0-.171.69-1.038 1.534-1.927 1.665-1.755 2.348-2.06 2.348-1.05m1.046 1.919c.649.571.738 1.61.214 2.497-.591 1.001-1.967 1.091-2.735.179-.67-.796-.685-.738.53-2.042 1.187-1.275 1.243-1.293 1.991-.634m-21.205 5.329c.356.45.461 6.672.114 6.806-.967.371-3.695.114-3.559-.335.151-.5.479-4.312.497-5.774l.011-.946h1.37c.857 0 1.443.093 1.567.249m1.387 7.84c.956 1.307-.065 2.067-2.771 2.063-2.545-.004-3.479-.592-2.875-1.81.399-.804 5.09-1.014 5.646-.253m-4.523 2.613c0 .082.773.149 1.719.149 1.905 0 2.234.194 1.989 1.17-.421 1.678-3.768 1.585-3.932-.109-.093-.949-.073-1.359.066-1.359.087 0 .158.067.158.149" fill="#2d1d20"/><path d="M1.244 99.599l.05 98.405 1.394-.003c.766-.002 90.207-.023 198.757-.047l197.363-.045-.051-12.991-.051-12.992-99.652-.1c-54.808-.055-99.674-.123-99.701-.149-.027-.027-.05-6.724-.05-14.883 0-8.158.023-14.855.05-14.882.027-.027 44.891-.094 99.698-.149l99.648-.1.103-.697c.057-.384.077-6.454.045-13.49l-.058-12.792h-99.428c-54.685 0-99.57-.054-99.743-.121-.497-.191-.48-29.838.018-30.029.183-.07 45.03-.113 99.66-.096 54.631.017 99.368-.009 99.416-.057.163-.163.193-3.382.143-15.142l-.05-11.698-99.701-.05-99.701-.049-.051-14.982-.051-14.982 99.642-.051c66.126-.033 99.698-.117 99.807-.249.09-.11.132-6.001.093-13.091l-.07-12.892h-397.57899999999995l.05 98.404m142.852-43.402c.538.694.001 46.521-.557 47.564-.101.189-.184.63-.184.978 0 .696-.563 3.836-.802 4.47-.082.219-.311 1.115-.508 1.991-.197.876-.431 1.678-.52 1.782-.088.104-.161.347-.161.54 0 .342-.447 1.853-.786 2.655-.092.219-.323.846-.513 1.394-.191.547-.424 1.081-.519 1.185-.095.104-.173.319-.173.478 0 .158-.216.745-.481 1.304-.264.558-.856 1.821-1.315 2.807-.459.986-.892 1.837-.963 1.891-.07.055-.326.503-.567.996-.543 1.106-1.311 2.455-1.476 2.588-.067.055-.185.301-.262.548-.077.246-.223.448-.325.448-.103 0-.186.093-.186.207 0 .114-.092.316-.204.448-.113.133-.49.689-.839 1.236-.349.548-.683 1.041-.742 1.095-.058.055-.196.244-.306.419-1.834 2.944-8.343 10.057-10.722 11.717-.235.165-.607.485-.826.713-.219.228-.756.679-1.194 1.001-.925.68-1.217.905-1.55 1.193-.686.592-2.54 1.881-2.706 1.881-.105 0-.221.078-.257.173-.062.162-2.089 1.435-4.845 3.042-1.784 1.041-7.028 3.553-7.423 3.556-.079.001-.412.148-.74.327-.713.389-2.435.463-3.105.133-.443-.217-1.142-.52-2.67-1.155-1.634-.68-1.891-.808-1.891-.948 0-.082-.143-.15-.318-.15-.283 0-1.416-.539-1.673-.797-.055-.054-.503-.297-.996-.538-1.301-.638-2.478-1.331-2.555-1.502-.036-.083-.171-.152-.298-.154-.128-.002-.738-.338-1.357-.746-2.279-1.506-3.866-2.611-4.332-3.015-.263-.229-.532-.416-.597-.417-.065-.001-.527-.381-1.026-.846-.499-.465-1.306-1.156-1.792-1.535-3.076-2.4-7.33-6.957-10.426-11.169-.598-.815-1.163-1.571-1.254-1.68-1.511-1.812-5.576-9.31-7.016-12.942l-.405-.996c-1.15-2.78-2.674-8.149-3.306-11.647-.297-1.646-.42-2.543-.861-6.272-.234-1.978-.312-44.137-.082-44.367.269-.269 88.403-.154 88.612.116" fill="#fbfbfb"/><path d="M92.982 63.07c-1.767.56-2.97 3.793-2.292 6.158.868 3.023 1.368 3.355 2.895 1.927l.984-.92-.48-.57c-1.205-1.433-1.437-2.743-.81-4.589.655-1.93.601-2.291-.297-2.006m12.384.285c-.335.335-.309.456.3 1.408.896 1.4.797 2.941-.281 4.37-.951 1.261-.957 1.238.668 2.502 1.094.85 1.342.707 1.95-1.12.898-2.695.58-5.087-.879-6.62-.754-.793-1.329-.969-1.758-.54m-7.452 6.243c-2.212.536-3.514 1.472-5.311 3.819-.784 1.024-.704 1.459.394 2.153 2.693 1.7 3.572 5.47 1.957 8.394-.737 1.334-.667 1.464 1.243 2.325 3.975 1.791 9.652.142 8.017-2.329-1.545-2.333-.867-5.634 1.651-8.04l1.498-1.433-.433-.701c-1.159-1.876-3.943-3.813-6.143-4.276-1.275-.268-1.425-.263-2.873.088m-31.838 6.588c-.541.616-.636 1.236-.274 1.789.238.362.294.718.201 1.269-.229 1.356.517 2.127 1.712 1.769l.677-.202 2.34 2.319c1.286 1.276 2.339 2.425 2.339 2.555 0 .129-.92 1.152-2.044 2.273l-2.044 2.037h-1.019c-1.282 0-1.781.575-1.581 1.822.084.528.023.97-.194 1.389-.638 1.234.096 2.106 1.578 1.875.453-.07 1.238-.121 1.743-.114 1.317.02 1.791-.422 1.85-1.726.045-1.013.067-1.044 2.163-3.179l2.117-2.155 8.275 8.261c10.239 10.223 12.632 12.543 12.932 12.543.582 0 .71-.475.588-2.179l-.122-1.704-5.6-5.545c-11.735-11.619-13.664-13.55-13.664-13.674 0-.643 4.407-4.327 5.012-4.191 1.19.268 2.109-.682 1.725-1.782-.146-.42-.116-.709.118-1.163.822-1.589-.831-3.244-2.097-2.098-.262.236-.52.278-1.012.162-1.481-.35-2.436.658-1.863 1.966.16.365-3.872 4.722-4.369 4.722-.121 0-1.268-1.063-2.55-2.364l-2.33-2.364.123-.9c.149-1.085-.365-1.565-1.642-1.533-.425.011-1.22-.04-1.768-.113-.826-.111-1.05-.071-1.32.235m61.693.088c-.555.292-1.395.443-3.186.572-3.364.241-4.388.751-5.222 2.601-.538 1.192-.389 1.408 4.228 6.118 4.759 4.855 4.535 4.719 6.259 3.799 1.868-.995 3.778-5.306 2.307-5.205-.301.021-.547-.036-.547-.125 0-.298.588-1.576.78-1.695.364-.225.858-3.081.778-4.498-.099-1.754-.505-2.307-1.064-1.447-.834 1.282-2.801 2.54-3.631 2.323-.475-.125-.578-.365-.245-.57.275-.17.993-1.603.993-1.982 0-.413-.539-.372-1.45.109m-13.778 2.156c-.145.66.032 1.806.425 2.747.559 1.34 12.712 13.137 13.769 13.367 3.961.862 3.876.629-1.84-5.047-2.315-2.299-5.811-5.861-7.768-7.914-3.779-3.966-4.325-4.341-4.586-3.153m1.595 6.239c.428 2.025 9.063 10.279 9.051 8.652-.001-.258-8.789-9.299-9.039-9.299-.082 0-.088.291-.012.647m-16.731 3.069c-.219.058-.473.176-.564.262-.129.122-.152 19.882-.045 39.904.013 2.451.025 2.468 1.668 2.495 1.71.028 1.595.676 1.508-8.493-.042-4.465-.094-13.878-.116-20.918-.031-10.052-.093-12.845-.291-13.01-.298-.246-1.592-.39-2.16-.24m16.44 1.557c-1.22 1.989-2.749 4.014-4.572 6.055-.723.81-1.723 1.975-2.222 2.589-.499.613-2.132 2.359-3.63 3.88-2.988 3.034-2.995 3.047-2.891 5.399.086 1.968.107 1.957 4.955-2.72 2.346-2.263 4.892-4.633 5.658-5.267.767-.634 1.887-1.568 2.489-2.077.602-.508 2.126-1.611 3.385-2.45 1.259-.84 2.469-1.654 2.688-1.809.379-.27.281-.401-2.088-2.786-2.951-2.972-2.508-2.876-3.772-.814m-25.527 27.683c-8.074 8.111-7.37 7.206-6.422 8.255 1.393 1.542.805 1.92 7.631-4.91 6.881-6.887 6.584-6.508 6.584-8.397 0-2.898.343-3.12-7.793 5.052m12.298-6.37c-.069.179-.125 1.002-.125 1.829v1.503l5.924 5.944c3.257 3.269 6.021 5.945 6.142 5.946.281.005 2.071-1.805 2.071-2.093 0-.342-13.104-13.327-13.517-13.394-.204-.033-.426.086-.495.265m14.698 13.794c-.979.713-2.479 2.333-2.475 2.672.013 1.138.718.8 2.751-1.319 1.632-1.702 1.448-2.609-.276-1.353m-35.841.257c-.274.445 2.669 3.496 3.183 3.299.584-.224.319-.76-1.003-2.025-1.299-1.243-1.96-1.629-2.18-1.274m36.299 2.082c-2.48 2.438-2.872 3.174-1.954 3.665.775.415 1.134.181 3.349-2.184 2.317-2.473 2.558-2.939 1.797-3.472-.676-.473-.695-.462-3.192 1.991m-38.974-1.505c-.668.668-.484.992 1.95 3.426 2.488 2.487 2.886 2.698 3.617 1.913.663-.712.514-.973-1.952-3.408-2.476-2.446-2.883-2.663-3.615-1.931m40.769 3.634c-1.587 1.655-1.738 2.14-.664 2.14.73 0 3.205-2.879 2.98-3.467-.228-.594-.776-.28-2.316 1.327m-41.476.477c-2.131 3.332-1.335 4.235 1.938 2.199 1.618-1.007 1.63-1.092.331-2.339-1.29-1.236-1.393-1.229-2.269.14m43.087.777c-1.305 1.353-1.285 1.296-.682 1.947 1.309 1.412 3.767-.2 2.889-1.895-.729-1.408-.895-1.412-2.207-.052m-23.292 1.216c-.315.381-.334 1.979-.026 2.287.304.304 4.784.297 5.088-.007.327-.327.304-1.874-.033-2.28-.403-.486-4.626-.486-5.029 0m1.378 3.503c-.261.205-.329.816-.387 3.435l-.069 3.185 1.274.141c2.045.226 2.011.283 2.011-3.393 0-2.176-.073-3.212-.239-3.378-.315-.314-2.186-.307-2.59.01m.65 7.465c-2.105.075-2.4.216-2.4 1.146 0 1.038.329 1.163 2.929 1.115 2.613-.048 3.044-.187 3.044-.984 0-1.2-.523-1.387-3.573-1.277m-1.144 3.334c-.855.602.301 2.292 1.568 2.292 1.283 0 2.534-1.341 2.017-2.164-.293-.465-2.972-.561-3.585-.128" fill="#f2e10a"/><path d="M249.942 57.292c27.358.028 72.067.028 99.353 0 27.285-.028 4.901-.05-49.743-.05-54.644 0-76.969.022-49.61.05m-.315 27.477c27.185.027 71.67.027 98.855 0 27.185-.028 4.943-.051-49.428-.051-54.37 0-76.612.023-49.427.051m-129.766 3.496c0 .035.291.326.647.647l.647.585-.585-.647c-.545-.603-.709-.738-.709-.585m23.957 9.794c.001.766.037 1.055.08.642.044-.413.043-1.04-.001-1.393-.044-.354-.079-.016-.079.751" fill="#d380a4"/><path d="M101.51.946c54.571.027 143.809.027 198.307 0 54.499-.028 9.85-.05-99.22-.05-109.069 0-153.658.022-99.087.05m297.541.846c0 .383.041.54.091.348.05-.191.05-.505 0-.696-.05-.192-.091-.035-.091.348m.043 7.765c0 3.887.027 5.478.06 3.534.032-1.944.032-5.124 0-7.068-.033-1.944-.06-.354-.06 3.534m-.09 15.272c-.055 1.446-.029 2.558.057 2.472.085-.086.13-1.269.098-2.628l-.057-2.473-.098 2.629m-199.462 2.886c-.181.182-.239 3.743-.239 14.812 0 15.527-.039 14.851.863 14.802.128-.007.03-.094-.217-.193l-.449-.18.051-14.591.051-14.59 99.253-.1 99.254-.1-99.164-.049c-76.917-.039-99.218.004-99.403.189m-144.099 28.681c-.052.137-.072 9.522-.043 20.856l.052 20.608.049-20.749.049-20.748 1.543-.068 1.543-.068-1.549-.04c-1.087-.028-1.578.035-1.644.209m88.595 4.729c0 2.683.028 3.78.063 2.439.034-1.342.034-3.537 0-4.878-.035-1.342-.063-.244-.063 2.439m254.966 4.042l.1 7.805.052-7.654c.029-4.209-.016-7.721-.099-7.805-.084-.083-.107 3.361-.053 7.654m-254.958 13.877c0 7.064.025 9.953.055 6.421.031-3.531.031-9.31 0-12.842-.03-3.531-.055-.642-.055 6.421m255.037 2.688c0 1.533.032 2.134.069 1.335.038-.798.038-2.053 0-2.787s-.069-.081-.069 1.452m-199.647 3.02c-.166.166-.178 28.986-.012 29.418.066.173.268.312.448.309.29-.006.288-.029-.021-.209-.327-.191-.349-1.109-.349-14.813 0-13.746.021-14.615.349-14.701.279-.072.285-.095.033-.114-.174-.012-.375.037-.448.11m-143.637 16.492c.003.438.043.594.091.347.048-.248.046-.607-.004-.797-.05-.19-.089.012-.087.45m.199 1.792c.003.438.043.594.091.346.048-.247.046-.606-.004-.796-.05-.19-.089.012-.087.45m.786 4.779c0 .219.072.622.16.896.126.394.159.415.159.099 0-.219-.072-.622-.159-.896-.126-.394-.16-.414-.16-.099m.592 2.588c-.003.219.071.578.165.797.218.507.218-.016 0-.697-.128-.4-.16-.42-.165-.1m.392 1.493c0 .165.077.478.171.697.108.251.171.288.171.1 0-.164-.077-.478-.171-.697-.108-.251-.171-.288-.171-.1m182.451 2.538c94.163.136 158.738.136 158.655.001-.051-.082-43.653-.127-96.895-.1-53.241.027-81.033.072-61.76.099m-181.369 1.046c.073.274.216.632.317.797.129.207.144.147.052-.199-.073-.274-.216-.633-.318-.797-.128-.207-.144-.147-.051.199m340.246 8.761c0 5.092.026 7.175.058 4.629.031-2.546.031-6.712 0-9.258-.032-2.546-.058-.463-.058 4.629m-266.248 6.883c-.246.376-.408.683-.36.683.139 0 .964-1.209.881-1.292-.04-.04-.275.234-.521.609m-2.641 3.679c-.351.443-.605.836-.565.874.041.037.368-.325.728-.806.821-1.098.694-1.151-.163-.068m268.797 4.411c-.055 1.501-.029 2.658.056 2.572.086-.086.13-1.313.099-2.728l-.057-2.572-.098 2.728m-274.568 2.299l-1.887 1.941 1.941-1.887c1.803-1.753 2.032-1.995 1.887-1.995-.029 0-.903.873-1.941 1.941m75 .581c-.184.184-.168 29.289.016 29.403.083.051.15-6.574.15-14.722 0-8.147-.008-14.814-.017-14.814l-.149.133m-77.737 1.864c-.357.325-.576.592-.485.592.091 0 .422-.269.737-.598.732-.764.591-.76-.252.006m-3.929 3.297l-.597.513.647-.428c.356-.236.647-.467.647-.514 0-.149-.084-.097-.697.429m-34.362 1.349c.265.326 1.012.82 1.012.669 0-.038-.291-.282-.647-.543-.4-.293-.539-.341-.365-.126m31.724.545c-.465.329-.846.643-.846.697 0 .054.403-.179.896-.518.492-.339.896-.657.896-.706 0-.137-.038-.116-.946.527m-4.878 3.08c-.744.404-.699.572.05.185.328-.17.597-.351.597-.403 0-.128-.021-.121-.647.218m-19.861.772c0 .055.269.239.598.409.328.17.597.264.597.209 0-.055-.269-.239-.597-.408-.329-.17-.598-.265-.598-.21m3.783 2.001c.274.157.588.285.697.285.11 0-.025-.128-.299-.285-.273-.156-.587-.284-.696-.284-.11 0 .024.128.298.284m10.155.299c-.384.21-.608.382-.498.382.109 0 .512-.172.896-.382.383-.21.607-.381.497-.381-.109 0-.512.171-.895.381m294.728 17.72c0 .493.039.695.086.448.047-.246.047-.649 0-.896-.047-.246-.086-.044-.086.448m.035 9.657c0 3.614.026 5.12.059 3.348.033-1.773.033-4.73.001-6.571-.033-1.841-.06-.391-.06 3.223m-.015 13.141c0 1.204.033 1.672.073 1.038.039-.634.039-1.619-.001-2.19s-.072-.053-.072 1.152m-397.914 2.339c.082.083 89.607.127 198.945.1l198.795-.05-198.945-.099c-109.419-.055-198.877-.033-198.795.049" fill="#a1a8b0"/><path d="M.873 1.083c-.061.158-.075.449-.032.648.048.224.117.117.181-.287.109-.679.038-.849-.149-.361m398.211 18.33c0 1.642.031 2.288.069 1.434.037-.854.037-2.198-.001-2.987-.038-.788-.068-.09-.068 1.553m-199.494 14.634c0 3.23.028 4.552.061 2.937.034-1.616.034-4.259 0-5.874-.033-1.615-.061-.294-.061 2.937m-.022 12.444c0 .766.036 1.056.08.642.043-.413.042-1.04-.002-1.393-.044-.354-.079-.016-.078.751m.001 5.276c0 .821.035 1.157.078.747.043-.411.043-1.083 0-1.494-.043-.41-.078-.074-.078.747m-140.582 4.523c.303.046.751.045.996-.003.245-.047-.003-.084-.55-.083-.548.002-.748.04-.446.086m9.569.007c4.033.03 10.573.03 14.535 0 3.961-.031.662-.055-7.332-.055s-11.235.024-7.203.055m39.722 0c6.278.029 16.492.029 22.698 0 6.206-.03 1.07-.053-11.414-.053s-17.562.023-11.284.053m-52.682 1.244c0 .383.041.54.091.348.05-.191.05-.505 0-.696-.05-.192-.091-.035-.091.348m243.936-.448c78.9.04 99.199.101 99.452.299.283.22.288.209.046-.1-.26-.331-5.199-.346-99.453-.299l-99.179.05 99.134.05m-243.891 11.1c.001 4.818.026 6.761.058 4.317s.032-6.386 0-8.76c-.032-2.375-.058-.375-.058 4.443m50.437-1.642c-.049.136-.022.472.058.746.127.433.148.401.166-.249.02-.758-.066-.948-.224-.497m293.007 9.407c0 1.752.031 2.442.068 1.534.037-.909.037-2.342-.001-3.186-.037-.843-.067-.1-.067 1.652m-265.849 2.489c-.023.602-.087 1.319-.143 1.593l-.103.498.214-.489c.117-.269.181-.986.143-1.593l-.071-1.104-.04 1.095m-5.212-.019c0 .165.817.463.938.342.032-.033-.165-.161-.44-.286-.274-.125-.498-.15-.498-.056m-72.389 5.295c.001 2.519.029 3.522.064 2.229.035-1.293.034-3.354 0-4.579-.035-1.226-.064-.168-.064 2.35m65.122-.896c.871.876 1.628 1.593 1.683 1.593.054 0-.613-.717-1.484-1.593s-1.629-1.593-1.683-1.593c-.055 0 .613.717 1.484 1.593m11.503-.348c-.225.292-.476.946-.362.946.043 0 .213-.269.377-.598.313-.628.308-.765-.015-.348m.211 1.568c.269.157.333.351.243.741-.092.395-.072.453.079.229.3-.442.251-.936-.106-1.073-.495-.19-.618-.131-.216.103m265.936.572l-.697.147.636.026c.349.015.69-.063.758-.173.068-.109.095-.187.062-.173-.034.015-.376.093-.759.173m-197.362.343c.356.045.939.045 1.294 0 .356-.044.065-.08-.647-.08-.711 0-1.003.036-.647.08m4.878-.006c.192.05.506.05.697 0 .192-.051.035-.091-.348-.091s-.54.04-.349.091m11.759.011c1.513.034 3.932.034 5.376 0 1.445-.034.207-.062-2.749-.062-2.957.001-4.139.028-2.627.062m14.025-.002c.575.04 1.516.04 2.091 0 .575-.04.104-.073-1.045-.073-1.15 0-1.621.033-1.046.073m6.083.002c.963.036 2.486.036 3.385-.001.898-.037.109-.066-1.752-.066-1.862 0-2.597.03-1.633.067m10.045 0c1.998.033 5.269.033 7.267 0 1.999-.032.363-.059-3.634-.059s-5.632.027-3.633.059m19.625.001c2.609.031 6.82.031 9.358-.001 2.539-.031.404-.057-4.742-.057-5.147 0-7.224.026-4.616.058m19.698-.001c1.834.033 4.836.033 6.67 0 1.834-.033.333-.059-3.335-.059-3.669 0-5.169.026-3.335.059m17.521 0c1.287.035 3.392.035 4.679 0 1.287-.035.234-.063-2.34-.063-2.573 0-3.626.028-2.339.063m11.648 0c1.779.033 4.691.033 6.47 0 1.78-.033.324-.06-3.235-.06-3.559 0-5.015.027-3.235.06m20.593 0c2.921.031 7.76.032 10.751.001 2.992-.031.602-.057-5.312-.057-5.913 0-8.361.025-5.439.056m24.603.001c3.313.03 8.733.03 12.046 0 3.313-.031.602-.056-6.023-.056s-9.335.025-6.023.056m22.399-.001c2.163.033 5.702.033 7.865 0 2.163-.032.393-.058-3.932-.058-4.326 0-6.095.026-3.933.058m-265.862 1.295c.825.879 1.004 1.037 1.004.887 0-.031-.425-.457-.946-.945l-.945-.888.887.946m81.496.149c0 .493.039.695.087.448.047-.246.047-.649 0-.896-.048-.246-.087-.045-.087.448m-67.81.899c-.182.382-.29.694-.24.694.137 0 .741-1.219.65-1.31-.043-.043-.228.234-.41.616m-6.125.542c.376.409.727.7.78.647.053-.053.059-.119.012-.147-.046-.027-.397-.318-.779-.646l-.696-.597.683.743m.711 1.745c.76.766 1.427 1.394 1.482 1.394.055 0-.523-.628-1.283-1.394-.761-.767-1.428-1.394-1.483-1.394-.055 0 .523.627 1.284 1.394m-5.328-.299c.449.548 1.291 1.444 1.873 1.991.741.698.615.52-.42-.597-2.066-2.229-2.394-2.543-1.453-1.394m78.581 2.987c0 1.971.03 2.75.066 1.732.036-1.019.036-2.631-.001-3.584-.036-.953-.066-.119-.065 1.852m-79.625-1.294c.761.766 1.428 1.393 1.483 1.393.055 0-.523-.627-1.284-1.393-.76-.767-1.428-1.394-1.482-1.394-.055 0 .523.627 1.283 1.394m3.982.199c.54.547 1.026.995 1.08.995.055 0-.341-.448-.881-.995-.539-.548-1.025-.996-1.08-.996-.054 0 .342.448.881.996m5.326 3.721c.192.05.506.05.697 0 .192-.05.035-.091-.348-.091-.384 0-.54.041-.349.091m14.413 1.577c-.07.511-.113 1.746-.096 2.743.029 1.689.041 1.629.176-.874.153-2.842.13-3.396-.08-1.869m-88.066.774c.001.767.037 1.056.08.643.043-.413.043-1.04-.001-1.394-.044-.353-.08-.015-.079.751m143.953 4.978c0 .766.036 1.056.08.643.043-.414.042-1.041-.002-1.394-.044-.354-.079-.016-.078.751m-56.285.54c-.067.25-.113.679-.103.953.012.294.091.135.193-.385.183-.933.118-1.344-.09-.568m-86.024 2.892c.056.683.23 1.579.386 1.991l.285.749-.105-.796c-.094-.713-.278-1.614-.569-2.788-.054-.219-.053.161.003.844m85.419.869c-.073.456-.094.868-.046.916.047.047.149-.284.225-.737.077-.453.097-.865.046-.916-.051-.051-.152.28-.225.737m-.39 1.813c-.067.251-.115.636-.105.855.01.219.099.048.2-.379.194-.827.111-1.244-.095-.476m-.611 2.661c-.073.292-.095.569-.048.616.047.047.145-.154.218-.446.074-.291.095-.569.048-.615-.047-.047-.145.153-.218.445m57.871 2.076c0 .383.041.54.091.349.051-.192.051-.506 0-.697-.05-.192-.091-.035-.091.348m-58.881 1.394c-.075.235-.091.473-.036.528.054.054.16-.094.235-.329.075-.236.091-.473.036-.528-.054-.055-.16.093-.235.329m61.274-.052c.63.039 1.66.039 2.29 0 .63-.04.114-.072-1.145-.072-1.259 0-1.774.032-1.145.072m-100.532 6.523c.001.766.037 1.055.08.642.043-.413.043-1.04-.001-1.393-.044-.354-.08-.016-.079.751m36.759.226c-.11.289-.163.563-.118.608.045.045.177-.191.294-.525.259-.743.103-.816-.176-.083m-22.389 5.786c-.548.505-.816.823-.597.705.379-.203 1.868-1.649 1.681-1.632-.049.004-.536.421-1.084.927m-17.566 1.255c0 .493.038.694.086.448.047-.246.047-.65 0-.896-.048-.246-.086-.045-.086.448m20.254.1c-.484.492-.835.896-.78.896.055 0 .495-.404.979-.896.484-.493.835-.896.78-.896-.055 0-.495.403-.979.896m280.607 6.67c0 .93.034 1.311.076.846.042-.466.042-1.227 0-1.693-.042-.465-.076-.084-.076.847m-300.269-1.05c.411.043 1.083.043 1.494 0 .41-.043.074-.078-.747-.078s-1.157.035-.747.078m-.583 4.434c0 .712.036 1.003.08.647.044-.356.044-.938 0-1.294-.044-.356-.08-.064-.08.647m25.599 2.335c-.883.846-1.697 1.72-1.809 1.941-.113.222.657-.446 1.709-1.484 1.053-1.038 1.914-1.912 1.914-1.942 0-.197-.398.128-1.814 1.485m-48.56.951c.372.383.721.696.775.696.055 0-.204-.313-.576-.696-.371-.384-.72-.697-.775-.697-.054 0 .205.313.576.697m22.897-.06c0 .087.471.149 1.046.136 1.086-.024.981-.102-.299-.224-.411-.039-.747 0-.747.088m101.475.508c-.084.134 65.691.134 161.741-.001 19.656-.028-8.673-.073-62.955-.1-54.282-.027-98.736.018-98.786.101m-99.737 2.582c.353.044.981.045 1.394.002.413-.043.124-.079-.643-.08-.766-.001-1.104.034-.751.078m99.689 4.535c0 2.081.03 2.905.066 1.832.036-1.074.036-2.776-.001-3.783-.036-1.007-.065-.129-.065 1.951m.004 9.956c0 2.956.028 4.194.062 2.749.034-1.444.034-3.863 0-5.376-.034-1.512-.062-.33-.062 2.627m49.954 12.394c27.468.028 72.356.028 99.752 0 27.395-.028 4.921-.051-49.942-.051s-77.277.023-49.81.051m149.525 3.434c0 .712.036 1.003.081.648.044-.356.044-.939 0-1.295-.045-.356-.081-.064-.081.647m-398.206 6.87c.001.766.037 1.055.08.642.043-.413.042-1.04-.002-1.394-.044-.353-.079-.015-.078.752m398.218 9.557c.001 1.314.033 1.825.072 1.137.039-.689.039-1.764-.001-2.39-.039-.625-.071-.062-.071 1.253" fill="#b43d84"/><path d="M200.446 1.145l198.355.05.055 8.711.055 8.71-.003-8.76-.003-8.761h-396.814l198.355.05m198.426 21.951c0 .821.035 1.157.078.747.043-.411.043-1.083 0-1.494-.043-.41-.078-.074-.078.747m-342.376 32.993c.246.047.649.047.896 0 .246-.048.045-.087-.448-.087s-.695.039-.448.087m339.97 1.398c.411.043 1.083.043 1.493 0 .411-.043.075-.078-.746-.078-.822 0-1.158.035-.747.078m2.43 8.217c0 4.545.027 6.404.058 4.132.032-2.273.032-5.991 0-8.263-.031-2.272-.058-.413-.058 4.131m-254.671-4.977c0 1.15.033 1.62.073 1.045.04-.575.04-1.516 0-2.091-.04-.574-.073-.104-.073 1.046m.01 20.109c0 2.245.029 3.164.065 2.041.035-1.122.035-2.959 0-4.082-.036-1.122-.065-.204-.065 2.041m254.632-1.095c.001.657.038.902.083.544.044-.358.043-.895-.002-1.194-.046-.3-.082-.007-.081.65m-.03 3.825l-.032.838-1.642.067-1.643.067 1.649.041c1.823.044 1.924-.023 1.782-1.185-.075-.607-.085-.591-.114.172m-195.402 1.002c.684.038 1.804.038 2.488 0 .685-.039.125-.071-1.244-.071s-1.929.032-1.244.071m47.47.001c23.836.028 62.9.028 86.809 0 23.909-.027 4.406-.05-43.339-.05s-67.307.023-43.47.05m48.297 30.065l99.6.05.054 9.706.055 9.707-.003-9.757-.003-9.756h-199.303l99.6.05m99.674 22.847c-.001.986.033 1.414.075.952.042-.462.042-1.268.001-1.792-.041-.523-.075-.145-.076.84m-.086 3.534c-.06.428-.029.672.071.572.096-.096.143-.432.103-.746-.065-.527-.079-.513-.174.174m-149.578.896c27.067.028 71.417.028 98.557 0 27.139-.027 4.994-.05-49.213-.05-54.206 0-76.411.023-49.344.05m-48.664 29.859c.301.046.793.046 1.095 0 .301-.045.054-.083-.548-.083-.602 0-.849.038-.547.083m15.032.002c.356.044.938.044 1.294 0 .356-.044.065-.081-.647-.081s-1.003.037-.647.081m6.073.005c2.162.032 5.701.032 7.864 0 2.163-.032.393-.059-3.932-.059-4.326 0-6.095.027-3.932.059m12.646-.005c.358.044.896.043 1.195-.002.299-.045.006-.082-.651-.081-.657.001-.902.039-.544.083m2.585 0c.356.044.938.044 1.294 0 .356-.044.065-.081-.647-.081s-1.003.037-.647.081m2.588 0c.356.044.939.044 1.295 0 .355-.044.064-.081-.648-.081-.711 0-1.003.037-.647.081m4.668.004c1.389.035 3.719.035 5.176.001 1.458-.034.321-.062-2.527-.063-2.847 0-4.039.028-2.649.062m9.967 0c1.067.036 2.814.036 3.882 0s.194-.065-1.941-.065c-2.136 0-3.009.029-1.941.065m13.937.001c4.353.03 11.476.03 15.829 0 4.352-.03.791-.054-7.915-.054s-12.267.024-7.914.054m29.766-.005c.356.044.938.044 1.294 0 .356-.044.065-.081-.647-.081s-1.003.037-.647.081m2.787 0c.356.044.939.044 1.294 0 .356-.044.065-.081-.647-.081-.711 0-1.003.037-.647.081m9.856.005c4.353.03 11.476.03 15.829 0s.791-.054-7.915-.054c-8.705 0-12.267.024-7.914.054m25.294-.001c.744.038 1.909.038 2.589-.001.68-.039.071-.07-1.352-.07-1.424 0-1.98.032-1.237.071m5.376 0c.744.038 1.909.038 2.589-.001.679-.039.071-.07-1.353-.07-1.423 0-1.979.032-1.236.071m5.177 0c.744.038 1.908.038 2.588-.001.68-.039.072-.07-1.352-.07-1.424 0-1.98.032-1.236.071m5.168-.001c.74.039 1.949.039 2.688 0 .739-.038.135-.069-1.344-.069-1.478 0-2.083.031-1.344.069m4.882-.003c.358.044.895.043 1.195-.002.299-.045.006-.082-.651-.081-.657.001-.902.039-.544.083m2.585 0c.356.044.938.044 1.294 0 .356-.044.065-.081-.647-.081s-1.003.037-.647.081m4.579.004c1.451.035 3.825.035 5.276 0 1.451-.034.264-.061-2.638-.061s-4.089.027-2.638.061m9.466 0c.744.038 1.908.038 2.588-.001.68-.039.072-.07-1.352-.07-1.424 0-1.98.032-1.236.071m9.644-.005c.353.044.98.045 1.393.002.414-.043.124-.079-.642-.08-.767-.001-1.105.034-.751.078m5.583.001c.358.044.895.043 1.194-.002.299-.045.007-.082-.65-.081-.657.001-.902.039-.544.083m6.119.049l4.38.105.102 9.458.103 9.457.047-9.368c.035-7.073-.012-9.426-.192-9.606-.174-.174-1.407-.227-4.53-.195l-4.291.043 4.381.106m4.523 23.351l-.044 2.737-197.361.05-197.362.05 197.368.05c162.018.041 197.386.003 197.467-.21.055-.143.072-1.419.037-2.837l-.062-2.578-.043 2.738" fill="#bfd1e2"/><path d="M1.094 99.652c0 54.096.023 76.256.051 49.244.028-27.012.028-71.272 0-98.357-.028-27.085-.051-4.984-.051 49.113m397.781-79.542c0 .93.034 1.311.076.846.042-.466.042-1.227 0-1.693-.042-.465-.076-.084-.076.847m-325.107 35.986c41.41.136 70.336.137 70.253.002-.051-.083-19.373-.128-42.938-.101-23.565.026-35.857.071-27.315.099m70.445 1.545c.001.657.038.901.083.544.044-.358.043-.896-.002-1.195-.046-.299-.082-.006-.081.651m105.812-.15c26.747.028 70.515.028 97.262 0s4.863-.05-48.631-.05-75.378.022-48.631.05m148.857 18.766c0 1.369.032 1.929.071 1.244.039-.684.039-1.804 0-2.489-.039-.684-.071-.124-.071 1.245m-254.855 17.621c0 1.204.033 1.671.073 1.038.039-.634.039-1.62-.001-2.191-.04-.57-.073-.052-.072 1.153m-88.63 4.479c0 .384.041.54.091.349.05-.192.05-.505 0-.697-.05-.192-.091-.035-.091.348m88.406 1.892c.003.438.043.594.091.346s.046-.606-.004-.796c-.05-.191-.089.012-.087.45m255.059 34.644c.002.548.04.748.086.445.046-.302.045-.75-.002-.995-.048-.245-.085.002-.084.55m-322.605 7.964c.371.383.72.697.775.697.055 0-.205-.314-.576-.697-.372-.383-.72-.697-.775-.697-.055 0 .204.314.576.697m129.082 28.92c1.841.033 4.798.033 6.57 0 1.773-.033.266-.06-3.348-.06-3.613 0-5.064.027-3.222.06m87.692-.001c.794.037 2.093.037 2.887 0 .794-.038.145-.069-1.443-.069s-2.238.031-1.444.069m84.91-.001c.734.038 1.988.039 2.787.001.799-.038.198-.069-1.335-.07-1.533 0-2.187.031-1.452.069m7.48-.001c.468.042 1.185.041 1.593-.002.407-.042.024-.077-.852-.076-.876.001-1.209.036-.741.078m13.441 19.864c.002.547.04.748.086.445.046-.303.045-.751-.002-.996-.048-.245-.085.003-.084.551" fill="#c4c1c4"/></g></svg>