<svg version="1" xmlns="http://www.w3.org/2000/svg" width="1206pt" height="600pt" viewBox="0 0 1206.000000 600.000000"><path d="M0 300v300h1206v-600h-1206v300zm1203-256.9v39.9l-300.7.2-300.8.3v88.5h601.5v83l-300.7.2-300.8.3v89l299.5.2c164.7.2 300.1.3 300.8.3.9 0 1.2 9 1.2 41.5v41.5h-602l.2 44.2.3 44.3 300.8.3 300.7.2v80h-1200v-594l598.8-.2c329.3-.2 599.3-.1 600 .1.9.2 1.2 9.1 1.2 40.2zM169.8 169.7l-2.8.4v57.8c0 60.1.7 76.3 4 94.2 9.8 52.3 42.4 100.6 88 130.5 9.2 6 24 13.9 34.8 18.4 6.8 2.9 9.5 2.4 22.9-4 23.1-11 41-23.6 58.4-40.9 32.7-32.7 52.6-73.9 57.9-119.6.6-5.3 1-35.7 1-73.3v-64.2l-130.7.1c-72 .1-132 .4-133.5.6zm84.6 7.5c.3 1.3.6 8 .6 15v12.8h4.8c5.2 0 8.8 1.5 6.2 2.4-.8.3-14.5.7-30.5.8l-29 .3-.3 14.2-.3 14.3h19c10.4 0 19.6.3 20.5.6 5.1 1.9-1.9 2.4-36.9 2.4-33.6 0-38.5-.2-38.5-1.5s2.4-1.5 16-1.5h16.1l-.3-14.3-.3-14.2-15.7-.3c-13.1-.2-15.8-.5-15.8-1.7 0-1.3 5.5-1.5 40.5-1.5h40.5v-14.3c0-7.9.3-14.7.7-15 1.2-1.2 2.1-.7 2.7 1.5zm98.4 13.6l.3 14.2h13.2c7.2.1 17.5.3 22.7.5 5.2.2 17 .6 26.2.7 9.3.2 16.8.6 16.8 1s-.8.7-1.7.6c-1-.1-7.8 0-15 0l-13.3.2v14.4c0 9.8.4 14.7 1.1 15.2.7.4 7.4.7 15 .8 7.7 0 13.9.4 13.9.8 0 .5-16.9.8-37.5.8-22 0-37.5-.4-37.5-.9 0-1.4 13.1-2.3 27.5-1.7 7.1.2 13.4.1 14-.4.6-.5.8-6 .5-14.7l-.5-13.8-30.8-.3c-24-.2-30.8-.5-30.4-1.5.2-.7 2.6-1.3 6-1.5l5.7-.3v-12.9c0-13.3.5-16.3 2.4-15.7.7.2 1.2 5.1 1.4 14.5zm-47.8 7.9c0 1.8.5 3.3 1.1 3.3.5 0 .7.4.4 1-.8 1.3.5 8 1.6 8 .5 0 .9-2 .9-4.4 0-3.3.7-5.2 2.6-7.5 1.4-1.7 3-3.1 3.5-3.1.6 0 2.1-1.2 3.4-2.7l2.3-2.8 1.3 2.8c1.2 2.6 1 3.4-1.3 7.5-2.1 3.8-2.5 5.6-2.1 9.4l.5 4.7 3.9-2.6c4.1-2.7 4.4-4.3.7-3.6-2.8.4-5.3-1.1-4.4-2.6 1.1-1.7 9.5-1.4 10.2.4.7 1.6 3.4 2.1 3.4.6 0-.5.6-1.1 1.4-1.4 2.4-.9.6 3.3-4.2 10.2-2.5 3.5-5.3 6.6-6.3 6.8-1.8.5-1.7 2.3.1 2.3.5 0 3-1.8 5.5-4s5-4 5.4-4c2.5 0 12.8 2.3 13.5 3.1 1.7 1.6-2.4 4.9-6.2 4.9-2.7 0-4.2.8-6.8 3.7-4 4.3-4.2 5.1-1.1 5.7 8.5 1.8 12.4 2.8 13.7 3.6 1.3.9 1.3 1.1 0 2-.8.5-3.7 1.4-6.5 1.9-2.7.5-7.2 1.4-10 1.9l-5 1 4.4.1c6 .1 12.1 3.3 14.9 7.8 3.7 5.7.4 9.5-4.6 5.4-4.1-3.2-6.3-3.9-11.1-3.2l-4.4.6 5.7 7.5c3.1 4.1 5.6 7.8 5.6 8.2 0 1.3-2.8.9-4.4-.7-.8-.8-2.1-1.5-2.8-1.5-1.9 0-6.9-3.2-10.5-6.9-1.8-1.8-3.4-2.7-3.8-2.1-.3.5-.3 1 .2 1 .4 0 2.4 1.9 4.2 4.2 3.7 4.4 4.9 9.6 3.2 14-.5 1.3-.5 3.3 0 4.5.7 1.9.5 2.3-1.1 2.3-2.3 0-6-4.5-6-7.5 0-1.3-.9-3.3-2-4.6-1.2-1.5-1.9-1.8-1.8-.9.2 1.1-.6 1.5-2.9 1.4-3-.2-3.1-.1-4 5.5-.7 4.6-1.2 5.7-2.9 5.9-2 .3-2.3-.3-2.9-6-.4-3.5-1.2-6.8-1.7-7.5-.5-.7-.7-1.7-.3-2.2.3-.6.2-1.9-.4-2.8-.8-1.6-1-1.5-1.4.7-.3 1.4-.5 3.8-.5 5.5 0 2.3-1.2 4.1-5.8 8.2-4.4 3.8-6.2 4.9-7.1 4.1-1.8-1.4-1.6-5.4.3-8.3l1.6-2.5h-6.6c-6.2 0-6.7-.2-7.6-2.5-1.3-3.5.1-6.5 8.1-16.6l3.3-4.2-2.9 1.9c-1.7 1-4 2.9-5.2 4.1-1.9 1.9-3.2 2.3-8.7 2.3-5.3 0-6.7-.3-7.5-1.8-1.6-2.9 1.3-6.2 5.3-6.2 3.5 0 5.4-1.2 8-5 2.2-3.4 2-4-1.2-4-3.8 0-13.2-2.8-13.2-4 0-.5.8-1.3 1.8-1.9 2.4-1.3 17-3.4 18.2-2.6.5.3 1 .2 1-.4 0-.5-2.1-1.3-4.7-1.6-8.4-1.1-9.1-1.4-13.2-6.6-4.5-5.7-4.8-6.7-2.6-7.5 2.3-.9 6.3.4 8.6 2.7 1.8 1.8 2.8 2 7 1.4 2.7-.4 4.9-1 4.9-1.4 0-.4-1.4-2.6-3.1-4.9-1.6-2.3-3.1-5.2-3.2-6.4 0-1.3-.6-2.7-1.2-3.1-.5-.5.2-.7 1.8-.4 1.5.2 3 0 3.3-.4.9-1.5 4.4-1 4.4.6 0 .9-.9 1.5-2.2 1.5-1.7 0-1.4.5 1.8 2.8 2.1 1.6 5.3 3.7 6.9 4.8 2.8 1.8 2.7 1.5-1.3-3.5-3.8-4.9-4.2-5.9-3.7-9.1.3-2.1.7-5.1.7-6.8.1-3.1 2-4.8 4-3.6 1.4.9 3.8 6.9 3.8 9.6.1 2.5 4.9 6.9 5.1 4.6 0-.7.5-.2 1.1 1.2l1.1 2.5.8-3.5c3.5-15.6 4.4-17.6 6.5-13.8.8 1.3 1.3 3.8 1.4 5.5zm-50 56.3c0 8.2-.4 15-.9 15-2.2 0-2.9-3.3-3-13.9 0-12.8.5-16.1 2.5-16.1 1.1 0 1.4 2.9 1.4 15zm97.7.8c.1 12-.1 15.2-1.1 15.2-2.4 0-3.6-11.6-1.4-13.8.9-.9.9-2.1 0-5-1.3-4.3-1.6-10.5-.5-11.6 2.2-2.1 2.8 1 3 15.2zm-106 11.1c3.5 3.1 6.3 6 6.3 6.4 0 1-2.6 4-16.4 19.3-8.3 9.1-11.9 12.2-22.5 19.1-6.9 4.6-13 8.3-13.6 8.3-1.2 0-7.5-6.1-7.5-7.3 0-.6 3-6.9 6.7-14.1 6.7-13.3 6.9-13.6 30.7-40.3l2.9-3.3 3.6 3.2c2 1.7 6.4 5.7 9.8 8.7zm134-2.2c4.3 4.8 9.2 10.1 10.8 11.9 6.3 6.8 9.2 11.1 14.2 21.7 2.8 6 5.6 11.4 6.2 12 1.7 1.7 1.3 3-2.4 6.5l-3.4 3.4-6.1-3.9c-17.9-11.2-21.4-13.8-26.7-20-3.2-3.7-7.9-8.7-10.5-11.1-2.6-2.4-5.9-6.1-7.3-8.2l-2.6-3.8 5.1-4.8c2.8-2.6 6.5-5.8 8.3-7.1 1.7-1.3 3.5-3 4-3.8.4-.8 1.2-1.5 1.7-1.5s4.4 3.9 8.7 8.7zm-161.7 1.5c0 1.9-10 12.9-11.1 12.2-1.8-1.1-.8-3.7 3.2-8.5 3.8-4.6 7.9-6.5 7.9-3.7zm174.2 2.1c5.3 5.4 7.5 10.8 3.7 9.2-1.5-.7-9.1-9.6-9.7-11.4-.8-2.3 2.9-1 6 2.2zm-61 4.1c2.4 1.7 1.3 2.6-3.4 2.6-4 0-4.9-1.2-2-2.9 2.3-1.4 3.3-1.3 5.4.3zm-126.9 4.9c.5 3.4.4 5.3-.4 6.3-1.7 2-2.4.9-2.4-3.9v-4.2l-16.2-.3c-13.7-.2-16.3-.5-16.3-1.7 0-1.3 2.5-1.5 17.2-1.3l17.3.3.8 4.8zm59.1-4.7c3.2 1.2 1.5 2.5-3.1 2.2-5.6-.4-7.3-2.8-2-2.8 2 0 4.2.3 5.1.6zm85.1.9c0 1.2-9.1 2.4-10.6 1.4-.7-.4-.8-1.2-.4-1.8.8-1.5 11-1.1 11 .4zm65.2-.4c-.7.4-3.2.8-5.7.9-6.1.2-7 .1-7-.8 0-.5 3.1-.8 7-.8 3.8 0 6.4.4 5.7.7zm-154.4 27.6c8.4 7.6 20.9 18.7 27.9 24.7l12.8 11-2.3 2.4c-1.2 1.3-4.4 4.2-7 6.4l-4.8 4.1-4.7-4.5c-2.6-2.5-12.6-11.4-22.2-19.8s-19.7-17.3-22.3-19.6l-4.9-4.3 5.8-7.1c3.2-3.8 5.9-7 6.1-7 .2 0 7.2 6.2 15.6 13.7zm106.9-6.7c2.9 3.3 5.3 6.4 5.3 6.9 0 .6-11.9 11.5-24.5 22.4-1.9 1.7-5.8 5.1-8.5 7.6-6.9 6.2-19.1 17-24 21.2-2.2 1.8-8 7-13 11.4-4.9 4.5-12.6 11.2-17.1 15.1-4.4 3.8-14.4 12.6-22.3 19.6-9.5 8.5-15 12.8-16.6 12.8-2.6 0-10.5-8-10.5-10.8 0-1.7 7.2-9.3 15.5-16.2 2.2-1.8 7.2-6.3 11.2-10 4-3.7 12.7-11.4 19.4-17.1 6.7-5.7 15.2-13.1 18.8-16.4 17.8-16.2 59.4-52.4 60.3-52.5.4 0 3.1 2.7 6 6zm-63.2 5.9l.5 6.1 14.5.5c8 .2 14.7.4 14.9.5.2 0-.2.7-.9 1.5-1.8 2.2-59.1 2.3-60.9.1-2-2.3.1-2.7 13.9-2.5 7.2.1 13.3-.1 13.7-.5.4-.4.8-2.1.8-3.9.3-7.8.5-8.9 1.8-8.5.7.3 1.4 3 1.7 6.7zm-112.5 8.1c0 1.2-1.9 1.6-10.2 1.8-9.8.3-10.3.2-10.3-1.8s.5-2.1 10.3-1.8c8.3.2 10.2.6 10.2 1.8zm45.5-.5c1.9 2.3.9 2.6-7.1 2.3-6.9-.3-7.2-.4-5.5-2.1 2.3-2.2 10.8-2.4 12.6-.2zm144.8 1.2c.3 1-1.4 1.3-6.2 1.3-6.1 0-7.7-.6-5.9-2.4 1.2-1.2 11.6-.2 12.1 1.1zm38.2-.9c-2.3.4-2.4.5-.5 1.2 1.6.7 1.3.8-1.2.7-5.1-.3-5.1-2.7 0-2.6 2.9.1 3.4.3 1.7.7zm10.5.1c-1.5 1.3-6.3 2.2-6.9 1.2-.9-1.4.5-2.1 4.3-2.1 2 0 3.1.4 2.6.9zm-257.8 10.3c-.3.8-.6.5-.6-.6-.1-1.1.2-1.7.5-1.3.3.3.4 1.2.1 1.9zm82.1 13.6l.3 9.1 10.7.3c9.2.3 10.7.5 11 2 .3 1.7-1.9 1.8-35.2 1.8h-35.6v15.2c0 8.4.4 16 .9 16.8.8 1.1 4.8 1.4 22.8 1.5 18.7 0 21.8.2 21.8 1.5 0 2.3-57 2.8-57.9.5-.4-1.2.3-1.5 3.4-1.5 2.9 0 4.2-.5 5-2 .6-1.1 1-8.2.9-16.9v-15l-12.2-.3c-10.7-.3-12.2-.5-12.5-2.1-.3-1.6 1.9-1.7 36.2-1.7h36.6v-7.9c0-8.6.6-11.4 2.4-10.8.7.2 1.2 3.8 1.4 9.5zm98.2 0v8.9l26.3.7c14.4.4 28 1 30.2 1.4l4 .7-5.5.5-5.5.5v34l2.8.3c3.7.4 3.4 2-.5 2.6-6 1-49.8.2-49.8-.9 0-.6 8.2-1.1 22-1.3l21.9-.2.7-3.4c.4-2.4 0-29-.6-31.3 0 0-15.3.1-34.1.4-18.7.2-34.8.2-35.6-.2-1.4-.5-1.4-.7.3-2 1.3-1 4.7-1.4 11.2-1.5h9.3l-.2-7.8c-.2-4.3 0-8.3.5-9 1.8-2.9 2.6-.6 2.6 7.6zm70.3 10.9c-.7.2-1.9.2-2.5 0-.7-.3-.2-.5 1.2-.5s1.9.2 1.3.5zm-98.9 14.5c2.8 2.3 7.1 6.1 9.6 8.4 14.8 13.7 18.4 17 20.9 18.8 5.8 4.3 14.2 12 15.2 13.8 1.2 2.3-.9 6.6-5.1 10.2-3.7 3-5.9 3.3-8.6.8-1-.9-3.2-2.7-4.8-4-3.8-2.9-12.6-10.5-25-21.7-5.6-5-12.5-11-15.4-13.4-2.8-2.4-5.2-4.9-5.2-5.4 0-1.2 11.1-11.6 12.4-11.7.6 0 3.3 1.9 6 4.2zm-19.6 16.2l-.3 5.1 6.1.1c3.4.1 6.7.4 7.3.8 3.2 2-.1 2.6-14.9 2.6-13.1 0-16-.3-16-1.4 0-2 1.7-2.4 7.6-1.8 5.8.5 6.5-.2 6.2-6.9-.2-4.7.9-6.4 2.8-4.8 1.1.9 1.4 2.8 1.2 6.3zm11.1 23.4c14.7 9 17.3 29 5.3 41-5.1 5-10.5 7.2-18.5 7.2-7.9 0-12.8-1.8-17.5-6.3-7.1-6.9-9.8-14.6-8.2-24 1.5-9.5 7.7-16.6 17.7-20.3 5.8-2.2 15.6-1.1 21.2 2.4zm38.1 17.4v2.8h13.7c13.1 0 13.6.1 12 1.7-1.6 1.6-4.2 1.8-25 1.8-21.3 0-23.2-.1-23.5-1.8-.3-1.5.6-1.7 9.2-1.7h9.6v-3.8c0-2.1.3-4.2.7-4.6 1.2-1.1 3.3 2.5 3.3 5.6zm-99-.7v3.5h8.9c8.8 0 12.1 1.1 9 3.1-.8.5-12 .9-25 .9-22.2 0-23.7-.1-25.4-2-1.7-1.9-1.6-1.9 13.6-2.2 14.6-.3 15.4-.4 15.5-2.3.2-4 .4-4.5 1.9-4.5 1 0 1.5 1.1 1.5 3.5zm50 37.5l.6 2.5h15.2c8.4 0 15.2.3 15.2.7 0 2.3-5.8 2.8-35.2 2.8-25.2-.1-31.8-.3-33.8-1.5-3.2-1.8-3.5-1.8 16.5-1.9l17-.1.3-2.8c.4-3.5 3.3-3.3 4.2.3zM288.4 209.7c2.1 2.3 3.5 4.6 3.2 5.2-.5.7-.1.8.9.5 2.1-.8 1.8-1.3-3.5-5.9l-4.5-3.9 3.9 4.1zM301 211.9c-.6 1.2-.7 2.1-.1 2.1 1 0 2.4-3 1.7-3.7-.2-.3-.9.5-1.6 1.6zM313.1 212.7c-.1 1.2-.7 2.4-1.3 2.6-1 .4-1 .6 0 .6 1.5.1 2.6-2.3 1.9-4.1-.3-.7-.6-.3-.6.9zM306.4 213.5c-1 .8-1.4 1.4-.9 1.5 1.5 0 4-1.8 3.4-2.4-.3-.3-1.4.1-2.5.9zM280 217.5c1.3 1.4 2.6 2.5 2.8 2.5.3 0-.5-1.1-1.8-2.5s-2.6-2.5-2.8-2.5c-.3 0 .5 1.1 1.8 2.5zM321 219.5c-1.9 2.2-.8 2.5 1.3.3.9-1 1.3-1.8.8-1.8s-1.4.7-2.1 1.5zM287.3 227c-3.2 1.3-2.9 2.2.4.9 2-.7 3-.6 4.1.4 1.2 1.3.8 1.7-3.2 3.2-4.5 1.7-5.3 3.5-1.5 3.5 1 0 1.9.4 1.9 1 0 1.3 3.6 1.3 6.1-.1 2-1 2-1.1.3-3-1.5-1.6-1.6-2.4-.7-3.9 1-1.5.9-1.9-.3-2.4-2.1-.8-4.4-.7-7.1.4zM309.4 227.7c-1.6 1.7-1.6 1.8-.1 2.1 2.3.5 2.1 1.8-.5 3.6-2.4 1.7-2.5 1.7 1.7 3.5 2.4 1 3.1 1 4-.2.5-.7 2.4-1.7 4-2.2l3-.8-3.5-.9c-5.9-1.6-7.8-4.8-2.8-4.8 2.7 0 2.1-.5-1.4-1.4-1.8-.4-3.2-.1-4.4 1.1zM297 227.7c0 .5.5 1.5 1 2.3.9 1.3 1.1 1.3 2 0 1.5-2.2 1.2-3-1-3-1.1 0-2 .3-2 .7zM303 228.4c0 2.2 1.9 3 3.5 1.6 2.2-1.8 1.8-3-1-3-1.5 0-2.5.6-2.5 1.4zM325 229.2c0 1.4 1.5 1.6 2.7.3 1-1.1.9-1.3-.7-1.2-1.1.1-2 .5-2 .9zM327.1 238.2c-.1 2.1.3 2.6 1.5 2.1.9-.3 1.1-.9.6-1.2-.5-.3-1.2-1.3-1.5-2.1-.3-.9-.6-.4-.6 1.2zM270 238.4c0 .2 1.4.6 3 .8 1.7.3 3 .1 3-.4 0-.4-1.3-.8-3-.8-1.6 0-3 .2-3 .4zM296.2 242.1c-1.7 2.7-1.2 3.1 5.1 4 4 .5 5.5.3 6.7-.9 1.3-1.3 1.3-1.4-.4-.8-1.6.6-1.7.4-.6-.9 1-1.2 1-1.9.1-2.8-.9-.9-1.3-.7-1.7 1-1.1 4-6.4 4.2-6.4.2 0-2.5-1.2-2.4-2.8.2zM275.9 248.6c-2.3 2.5-2.3 2.6-.2 1.5 2.3-1.2 3.8-2.9 3.1-3.7-.3-.2-1.5.8-2.9 2.2zM325.2 249.1c.2.8 2 1.5 3.9 1.7 3.5.4 3.8-.5.3-1.1-1-.1-2.5-.6-3.3-1.1-.9-.6-1.2-.5-.9.5zM294.3 249.7c-1.5.6-1.8 3.3-.3 3.3.5 0 2 1.1 3.3 2.4 2.9 2.9 7.9 2.7 11.4-.6 2.5-2.3 3.1-5.8 1.1-5.7-2.8.1-5.2 1.5-4 2.3.7.4 1.2 1.4 1.2 2.2 0 1.2-1.1 1.4-4.7 1.2-4-.3-4.8-.6-4.8-2.3 0-1.7.6-2 3.5-1.8 3.1.2 3.2.1 1-.6-2.9-1-5.9-1.2-7.7-.4zM281.9 258.7c-1.2 1.6-1.2 1.7.1.7.8-.6 2.2-1.4 3-1.7 1.3-.5 1.2-.6-.1-.6-.9-.1-2.3.7-3 1.6zM319 257.4c0 .2.7.7 1.6 1 .8.3 1.2.2.9-.4-.6-1-2.5-1.4-2.5-.6zM290.4 263.6c-.2 2.9.2 3 1.5.5.8-1.4.7-2-.2-2.4-.7-.3-1.3.5-1.3 1.9zM311 263.4c0 .8.6 1.6 1.4 1.9 1 .4 1.2 0 .9-1.4-.6-2.2-2.3-2.6-2.3-.5zM280 266c-1.9 1.7-5 3.3-7 3.7-3.3.6-3.4.7-1 1.4 1.4.4 4.6.7 7.2.8 2.7.1 4.8.6 5.1 1.3.2.7.8 1 1.2.6.8-.8-.4-10.8-1.3-10.8-.4.1-2.3 1.4-4.2 3zM302.1 269.6c0 1.1.3 1.4.6.6.3-.7.2-1.6-.1-1.9-.3-.4-.6.2-.5 1.3zM307 270c0 1.3.7 2 1.9 2 2.8 0 3.5-1.7 1.2-2.9-2.7-1.5-3.1-1.4-3.1.9zM316 268.7c0 .6.8 1.7 1.8 2.4 1.6 1.3 1.6 1.3.2-.6-.8-1.1-1.6-2.2-1.7-2.4-.2-.2-.3 0-.3.6zM284.7 404c-2.6 3.1-4.3 6.8-3.4 7.6.8.8 7.7-.7 7.7-1.7 0-1.2 6.7-1.2 7.4 0 1.1 1.7 6.9 2.1 9.9.6 3.8-1.9 5.5-1.9 10 0 2 .8 4.8 1.5 6.1 1.5 3 0 2.7-1.6-1.2-6.8-2.4-3.3-2.5-3.4-8.6-2.8-9.8 1-24.7.6-23.9-.7 1.3-2-1.9-.3-4 2.3zM288.1 418.6c-2.1.9-4.7 1.2-6.4.8-3-.6-3-.6-2.4 3.2.9 5.5 1.8 5.9 8.2 3.9 4.7-1.5 6.3-1.6 8.9-.7 4.1 1.5 7.1 1.5 11.2 0 2.7-1 4.3-.8 9.5.7 6 1.9 6.2 1.8 7.5 0 .8-1 1.4-3.4 1.4-5.2 0-3.1-.1-3.2-2.7-2.2-2 .7-3.8.6-7.5-.8-3.7-1.3-5.3-1.5-6.6-.6-3.4 2.1-7.7 2.4-11.5.8-4.4-1.8-5.3-1.8-9.6.1zM287.8 433.7c-3.8 1-.5 4.5 6.9 7.3 4.1 1.5 6.1 1.7 11.1 1 6.8-.9 8.7-1.8 11.9-5.2 2.2-2.3 2.2-2.4.3-2.6-3.7-.5-9.5-.4-14.6.3-3.4.5-5.4.4-5.8-.4-.7-1.1-6.4-1.3-9.8-.4z"/></svg>