<svg version="1" xmlns="http://www.w3.org/2000/svg" width="1206pt" height="600pt" viewBox="0 0 1206.000000 600.000000"><path d="M0 300v300h1206v-600h-1206v300zm1203-257v40l-300.7.2-300.8.3-.2 44.2-.2 44.3h601.9v83l-300.7.2-300.8.3v89l300.8.3 300.7.2v83h-602v89h602v80h-1200v-594h1200v40zM167.7 169.7c-1.1 1-.8 116.6.3 129.8 3.4 40 17.2 75.7 41.9 108 11.7 15.4 32.3 34.2 50.2 45.9 8.7 5.6 29.2 16.2 36 18.6 5.1 1.8 8.9.8 23.5-6.4 34.5-17.1 61.5-40.8 81.6-71.6 17.6-27 29.1-59.2 31.8-89.5.5-5.5.9-38.2 1-72.8v-62.7h-132.8c-73.1 0-133.2.3-133.5.7zm36.9 21.1c4.7 3.7 5.6 8.8 2.5 13.8-5.7 9.3-18.4 5.3-18.3-5.7.1-3.6.6-4.9 3.2-7.2 3.6-3.2 9.3-3.6 12.6-.9zm116.8 13.2c-.1 16.1-1.1 20-7.5 28-3 3.8-12.8 12-14.2 12-.4 0-3.8-2.7-7.6-6-5.3-4.6-7.7-7.6-10.3-12.7-3.2-6.6-3.3-7.1-3.6-21.5l-.4-14.8 21.9.2 21.8.3-.1 14.5zm89.6-12.5c-.5 1.3-1.9 4.3-3 6.6-2.1 4-2.2 4.1-4.3 2.3-2.8-2.4-4.7-4.6-4.7-5.5 0-1.3 8.4-5.9 10.7-5.9 2 0 2.1.3 1.3 2.5zm-11 9.1c2.2 2 4 4.5 4 5.5 0 1.1-.3 1.9-.6 1.9-1.2 0-10.4-8.6-10.4-9.8 0-2.2 2.9-1.2 7 2.4zm-18-1.1c0 1.3-17.4 8.8-20.8 9.1-2 .2-4.1.3-4.5.3-.5.1-.6.5-.3 1 1 1.6-3.1 11.5-10.3 24.6-4 7.1-7.7 14.9-8.3 17.2-1.5 5.5-3.1 4.4-2.3-1.5 1-6.9 2.3-10.7 7.1-20.6 2.4-4.9 5.4-12.9 6.6-17.8 1.7-7.2 2.4-8.8 3.7-8.3 5 2 6.3 1.8 22.1-3 5-1.5 7-1.8 7-1zm-142.4 4.2c11.8 5.8 19.9 19.3 21.5 35.9.5 6 .5 13-.1 18.3-.5 4.7-.7 12.4-.5 17.1.7 15.9 5.6 23.7 18.7 30 3.7 1.8 7.7 4.3 8.8 5.5l2.1 2.2-3.2 2.7c-3.5 3-4.2 3-13.5-.5-7.1-2.7-16.1-11-20.2-18.6-4.4-8.3-5.3-16.1-4.7-38.1.7-25.7-.6-30.7-10.1-39.9-3.3-3.1-5.6-4.4-9.6-5.2-6.1-1.3-6.4-1.5-10.1-5.9-4.4-5.4-3.8-5.9 8.1-6.1 6.1-.1 8.3.4 12.8 2.6zm147.9-.7c-1 1.1-2.3 2-2.8 2s-3.9 1.8-7.4 4c-8.3 5.3-11.2 6.4-12.9 4.9-1.8-1.5-1.8-2.9.1-2.9.9 0 5.2-1.9 9.8-4.1 11.6-5.9 16.2-7.3 13.2-3.9zm-161.5 16c21.3 23.4 19.8 20.9 20.2 32.1.2 6.3-.1 9.5-.7 9.3-.6-.3-7.4-7.3-15.2-15.7-7.7-8.3-17.5-18.8-21.6-23.2-7.5-7.9-7.6-8-5.4-9.5 1.2-.8 3.6-2.9 5.2-4.7 1.7-1.8 3.3-3.2 3.6-3 .4.1 6.6 6.7 13.9 14.7zm159.5-8.9c-2.2 2.3-6.2 5.9-9 8.1-2.7 2.2-6.1 5.7-7.4 7.7-5.4 8-23.4 30-24.1 29.6-1-.6 3.6-9 10.7-19.5 2.7-4.1 6.3-9.9 7.9-12.8 2-3.6 3.8-5.5 5.9-6.2 1.7-.6 6.4-3.3 10.5-6s7.9-4.9 8.5-5c.5 0-.9 1.9-3 4.1zm6.1 3c-2.6 2.9-6.1 7.2-7.8 9.6-3.5 4.8-4 5-6.3 2.7-1.5-1.6-1-2.3 7.5-10.6 6.4-6.3 9.5-8.7 10.2-8 .8.8-.3 2.7-3.6 6.3zm8.4 3.1c-.4 2.4-1.7 7-2.8 10.3-1.1 3.3-2.4 7.7-2.7 9.8-.7 3.7-.8 3.7-2.7 2.1-2.4-2.3-1.8-5.1 3.3-15.8 2.2-4.4 3.9-8.6 3.9-9.3 0-.7.4-1.3.8-1.3.5 0 .6 1.9.2 4.2zm-40 7.1c-1.8 3.4-5.9 10.1-9 14.8-3.2 4.8-7 11.4-8.5 14.8-1.6 3.3-3.2 6.1-3.6 6.1-1.4 0 2.2-9.5 6.5-16.9 5.3-9.3 11.6-21.7 11.6-23 0-.5.5-2.2 1-3.7l1.1-2.8 2.2 2.2 2.2 2.2-3.5 6.3zm32.2-1.1c-2.2 4-4.3 9-4.7 11-.4 2.1-1.1 3.8-1.5 3.8-.7 0-13.2 9.6-24.3 18.7-5.6 4.6-10.6 7.7-11.3 7-.2-.2 6.8-7.4 15.6-16 8.7-8.6 16.7-16.9 17.7-18.4 3.4-5.5 11.8-15.4 12.1-14.4.2.6-1.4 4.3-3.6 8.3zm-188-1.5l3.7 3.8-1.6 4.9c-1.4 4.3-1.5 5.4-.2 9 1.2 3.6 2.2 4.5 7.6 7.1 3.4 1.6 7.4 4.1 8.8 5.4 3.7 3.6 8.4 11.2 9.1 15.1l.7 3.3-6.1-.5c-11.4-1.1-21-8-26.8-19.4-3.6-7.2-3.9-8.3-3.9-16.3.1-8.3 2.1-16.1 4.2-16.1.5 0 2.5 1.7 4.5 3.7zm198.7 4.4c-1.3 5-1.7 20.4-.6 23.4.7 1.8-.1 2.3-6.7 4.4-4.2 1.3-11.8 5-17.3 8.3-11.4 7.1-18.5 10-22.7 9.5l-3.1-.3 3.8-1.7c2.1-1 10-6 17.5-11.1s15.8-10.1 18.4-11.2c4.8-1.9 4.8-1.9 4.8-6.6 0-4 3.3-15.3 5.6-18.9 1.3-2.2 1.5.1.3 4.2zm-26.4 2.9c1.9 2.1 1.7 2.3-13 17-8.3 8.3-15.3 15-15.7 15-1.4 0 .6-3.5 4.6-8.4 12.6-15 15.4-18.4 17.9-21.9 3.2-4.3 3.7-4.4 6.2-1.7zm13.8 12.4c.9.7 1.7 1.6 1.7 1.9 0 .3-3.5 2.5-7.7 5-4.3 2.5-10.7 6.6-14.2 9.2-10.3 7.6-21.1 13.4-21.1 11.5 0-.6 1-1.4 2.3-1.9 2.3-.9 11.3-7.5 27.2-20 5-3.9 9.2-7.1 9.5-7.1.3.1 1.3.7 2.3 1.4zm-54.2 22.4c4.6 3 10.9 10.1 10.9 12.1 0 1.1-1 2.7-2.2 3.5-1.9 1.4-2.4 1.3-5-.2-1.7-.9-5-3.8-7.4-6.4-4.5-4.8-4.9-6.9-1.6-9.6 2-1.5 2.2-1.5 5.3.6zm-61.7 11.2c2.8 3.1 9.5 10.6 14.9 16.8l9.8 11.2-3.8 4.1-3.9 4.1-8.9-9.4c-4.9-5.1-11.3-11.9-14.2-15l-5.3-5.8v-8.3c0-4.6.3-8.6.6-9 .3-.3 1.8.8 3.2 2.6 1.4 1.8 4.9 5.7 7.6 8.7zm60.3 3.4l2.2 1.9-4.9 5.7c-2.7 3.2-10.9 12.3-18.2 20.3-7.3 8-17.1 18.8-21.7 24.1-4.6 5.3-8.6 9.6-8.9 9.6-.4 0-2.3-1.6-4.3-3.6l-3.7-3.6 4.2-4.6c2.2-2.5 5.4-6 7-7.7 1.6-1.6 7.9-8.6 14-15.5s13.7-15.3 17-18.7c3.2-3.4 7-7.8 8.4-9.8 2.8-3.9 2.1-4 8.9 1.9zm-102.3 25.6c-.1 16.4-1.1 20-7.7 27.8-4.3 5.1-12.6 12.2-14.3 12.2-.7 0-3.9-2.2-7.2-5-6.3-5.2-11.2-12.1-13.1-18-1.2-4-2.2-28.1-1.3-29.8 1.1-1.6 5.3-1.9 25.2-1.8l18.5.1-.1 14.5zm178.6-.5c0 14.8-.8 17.9-6.6 27.2-3.3 5.1-12.4 13.3-14.9 13.3-2.2 0-11.3-7.8-15-12.8-5-6.7-6.5-12.7-7.1-28l-.5-13.2h44.1v13.5zm-87.1 10.8c7 2.5 12.4 7.5 15.8 14.5 2.7 5.5 2.8 6.2 3 24.2.3 20.5 1.2 24.6 6.4 29.6 1.6 1.6 4.9 3.8 7.1 4.9 5.5 2.6 6.4 5.1 1.7 4.1-6-1.1-13.7-5.7-16.5-9.7-4.5-6.5-5.6-11.4-6.1-25.9-.6-20.8-2.6-26.1-12.1-31.7-6.5-3.8-13.1-11.1-11.1-12.3 1.6-1 4.2-.5 11.8 2.3zm-6.1 10.6c13.6 14.8 13.2 14.2 14.1 22.1.5 5.4.4 7-.5 6.8-.7-.2-7.6-7.2-15.4-15.7l-14.1-15.4 3.2-3.3c1.8-1.9 3.6-3.4 3.9-3.4.4 0 4.3 4 8.8 8.9zm-40.2 13.8c6 5.1 6.8 8.3 2.8 11-2 1.3-2.6 1-7.4-3.1-2.9-2.4-5.9-5.4-6.7-6.6-1.3-1.9-1.3-2.3.3-4.1 2.6-2.9 5.1-2.3 11 2.8zm-7.6 8.8c3 3.1 3.2 3.6 1.9 5.2-.9 1-7 8-13.7 15.5-6.7 7.6-12.2 14.2-12.2 14.8 0 1.9-2.1 1-6.2-2.8l-4.1-3.9 5.9-5.9c6.5-6.5 17.9-19.4 20.9-23.6 2.6-3.6 3.4-3.5 7.5.7zm81.1 15.7c2.4 2.9 7.7 8.8 11.8 13.2l7.4 7.9-3.3 3-3.4 3-1.9-2.4c-1-1.3-4.9-5.6-8.7-9.5-4.3-4.6-6.9-8.3-7.4-10.4-.9-4.6-.8-10 .2-10 .5 0 2.9 2.3 5.3 5.2zm-113.2 18.8c7.5 6.2 7.8 6.8 5.3 9.2-2.5 2.5-3.8 1.8-11.1-5.6-4.6-4.7-5.2-5.7-4.1-7 2-2.5 3.5-2 9.9 3.4zm-5.1 8.6c2.7 3.1 2.8 5.4.1 8.8-1.6 2-2.9 2.6-5.9 2.6-3 0-4.3-.6-5.9-2.6-2.8-3.6-2.6-6.6.6-9.8 3.3-3.4 7.6-3 11.1 1zm143.2-2.6c1.9 0 5 4.5 5 7.1 0 2.6-4.7 7.9-7 7.9-4.8 0-8.8-5.8-7.1-10.2 1.2-3.1 5-6 6.9-5.3.8.3 1.8.5 2.2.5zm-54.2 16.7c-.3 14.8-.5 16.1-3 20.9-2.8 5.3-15.9 18.4-18.5 18.4-.7 0-4.9-3.5-9.2-7.8-10.7-10.6-12.1-14.4-12.1-33.2v-14h43.2l-.4 15.7zM211 256.3c0 1.7 2 3.7 3.7 3.7 2 0 1.5-2.8-.6-4-2.6-1.3-3.1-1.3-3.1.3z"/></svg>