<svg xmlns="http://www.w3.org/2000/svg" width="400" height="199.005" viewBox="0, 0, 400,199.00497512437812"><g fill-rule="evenodd"><path d="M200.34 28.536c-.106.136-.198 5.783-.22 13.475-.02 7.282-.089 13.666-.154 14.187l-.117.947 100.075-.003 100.076-.004v-28.610999999999997l-1.643-.132c-3.186-.255-197.816-.117-198.017.141m-144.237 28.02c-.854.504-.441 42.594.448 45.704.216.755.393 1.624.393 1.932 0 .308.081.51.18.449.099-.061.183.344.188.9.004.556.1 1.122.212 1.258.113.136.251.823.307 1.528.259 3.264 1.739 7.955 4.575 14.504 1.512 3.492 3.7 7.357 5.136 9.075.092.11 1.022 1.319 2.068 2.688 4.627 6.059 9.509 10.706 15.009 14.287 1.26.82 2.648 1.733 3.086 2.03 1.813 1.225 5.158 3.083 6.26 3.477l2.202.777c.822.289 1.848.706 2.282.928 1.222.624 2.096.452 5.583-1.099.328-.146 1.18-.505 1.891-.798 2.112-.87 3.331-1.538 6.791-3.72 4.553-2.872 5.047-3.265 8.755-6.95 1.802-1.792 4.017-3.962 4.922-4.824 2.809-2.675 9.008-11.395 10.305-14.494.29-.694.751-1.754 1.026-2.356.274-.603.76-1.767 1.08-2.589.321-.821.666-1.672.767-1.891.171-.368 1.559-4.861 2-6.471.737-2.697 1.093-4.947 1.884-11.912.142-1.25.131-42.281-.012-42.423-.219-.219-86.967-.229-87.338-.01m12.079 6.156c1.615 1.288 2.033 1.774 2.198 2.556.155.73.857 1.137 1.626.944 1.201-.301 5.432-.13 6.79.274 5.741 1.71 9.009 7.718 9.009 16.562 0 2.94.221 3.801 1.171 4.558.114.091 2.432 2.675 3.924 4.376.841.958 4.232 4.745 4.907 5.479.302.329.549.659.549.734.001.074.262.321.58.547.773.551 1.139.379 2.306-1.081.525-.658 1.949-2.225 3.166-3.485 3.001-3.106 3.906-4.284 3.846-5.001-.106-1.25 1.207-3.361 2.09-3.361.429 0 .425.077.074-1.271-.487-1.87-.028-3.755 1.923-7.888.595-1.259 1.27-2.917 1.501-3.683l.929-3.086c.279-.931.687-1.984.905-2.34l.396-.647h2.005c1.678 0 2.289-.094 3.737-.574 1.443-.479 2.182-.593 4.458-.688 2.2-.091 2.881-.192 3.526-.521.439-.224.939-.407 1.111-.407.172 0 .362-.127.421-.281.157-.41 2.413-1.909 2.872-1.909.216 0 .392-.08.392-.177 0-.154.826-.343 2.34-.536 1.056-.134-1.277 7.163-2.432 7.607-.212.081-.25.703-.182 3.025.093 3.173-.231 6.685-.656 7.11-.51.51-.192 2.256.509 2.8.404.313.127 1.216-.425 1.389-.246.077-.493.199-.547.272-.055.073-.548.297-1.095.498-1.218.448-5.973 2.804-6.701 3.321-.291.206-.595.375-.676.375-.082 0-.605.297-1.164.659-1.947 1.262-5.903 2.598-6.355 2.146-.373-.373-.649-.24-.99.475-.457.958-1.709 1.816-2.875 1.97-.993.132-3.019 2.014-4.734 4.396-1.186 1.649-2.595 3.26-2.937 3.358-.757.217-.263 1.332.591 1.332.573 0 2.048.449 2.048.624 0 .071.233.187.518.259.861.216 1.432.695 2.719 2.281 2.607 3.211 3.057 4.373 3.293 8.501.176 3.089.12 2.947 1.903 4.86.459.493 1.548 1.747 2.421 2.788.873 1.04 1.856 2.19 2.185 2.554 1.038 1.15 1.694 2.263 1.694 2.874 0 .585.005.588.502.262 1.243-.815 3.281.982 3.281 2.892 0 4.25-4.491 4.994-5.953.985-.472-1.294-.7-1.429-1.368-.807-.555.518-.597.512-1.976-.249-.644-.356-1.689-.916-2.321-1.244-2.448-1.273-4.708-5.16-4.708-8.099 0-.88-.32-1.831-.82-2.435-.099-.12-.456-.576-.793-1.014-.337-.438-1.255-1.475-2.039-2.303-2.082-2.201-4.628-5.005-5.257-5.791-1.782-2.225-1.79-2.222-5.349 2.053-.802.964-1.471 2.054-1.471 2.398 0 .316-.35 1.041-1.017 2.109-.177.284-.558.454-1.222.545-1.208.166-1.67.552-3.879 3.243-.961 1.169-2.581 3.022-3.6 4.117-2.43 2.612-3.028 3.512-2.891 4.355.108.666-.939 1.917-1.604 1.917-.519 0-1.869 1.175-2.468 2.148-1.609 2.616-3.399 2.583-5.431-.099-1.313-1.732-.799-3.814 1.191-4.829.82-.418 1.01-.719 1.01-1.599 0-.61.953-1.589 1.558-1.601.715-.013 4.376-3.122 5.633-4.781.6-.792 3.673-4.094 4.242-4.557 1.214-.989 1.328-1.219 1.194-2.409-.204-1.801.537-2.582 2.451-2.582 1.02 0 1.048-.019 2.148-1.492.327-.437.797-1.003 1.046-1.257.489-.501.433-.834-.141-.834-.199 0-.466-.126-.594-.28-.127-.153-.446-.333-.708-.398-6.21-1.559-9.214-6.195-10.267-15.848-.273-2.5-.334-2.625-2.248-4.605-.906-.936-2.446-2.591-3.422-3.676s-1.867-2.072-1.98-2.192c-.114-.121-.916-.995-1.784-1.942-1.676-1.829-2.097-2.024-2.627-1.216-.701 1.07-.071 4.273.841 4.273.142 0 .778.313 1.413.696.635.383 1.265.697 1.4.697.547.001 3.144 2.93 3.88 4.376.648 1.273.858 2.336.311 1.569-.138-.193-.152-.156-.049.128.665 1.842.393 2.324-1.257 2.221-1.942-.121-4.928-1.088-5.321-1.723-.067-.109-.256-.199-.418-.199-1.012 0-3.444-2.533-4.658-4.852-1.286-2.457-1.888-8.283-1.014-9.811 1.012-1.765 1.064-2.888.149-3.178-2.207-.697-3.556-4.106-2.475-6.251.398-.787.657-.998 2.145-1.739 2.009-1.002 2.212-.985 3.871.34m37.204-.217c1.467.02 1.726.071 1.59.312-.089.159-.122.719-.073 1.245.08.874.099.905.227.358.178-.758.23 6.595.059 8.233-.384 3.68-6.82 10.319-8.469 8.737-.145-.139-.459-.34-.699-.448-.24-.107-1.099-.778-1.91-1.489-1.342-1.179-1.754-1.658-2.474-2.878-.133-.224-.402-.621-.598-.882-1.189-1.581-2.085-11.656-1.168-13.14.08-.129 6.01-.15 13.515-.048m194.171 22.323l-99.546.1.055 14.429c.03 7.936.088 14.463.13 14.504.364.364 184.085.518 194.677.163l5.127-.171v-29.224l-.448.05c-.246.027-45.244.094-99.995.149m-221.808 12.613c-.087 1.331-.149 3.495-.136 4.809.038 3.818-.438 5.396-2.365 7.838-1.362 1.726-5.052 4.805-5.759 4.805-.403 0-5.178-4.661-5.178-5.054 0-.15-.141-.39-.314-.533-.473-.393-1.102-1.735-1.439-3.073-.352-1.395-.566-9.891-.269-10.671l.183-.48 7.718-.03 7.718-.03-.159 2.419m53.114-1.766c2.82.045 5.217.137 5.326.204.305.189.239 8.753-.077 9.855-.326 1.138-1.232 3.109-1.508 3.279-.116.072-.155.349-.088.616s.037.486-.066.486c-.102 0-.308.226-.455.502-.148.276-.365.468-.482.427-.258-.091-1.829 1.279-1.749 1.526.106.326-.393.719-1.074.847-.374.07-.729.207-.789.304-.17.275-1.138.196-1.567-.128-.212-.161-.499-.293-.637-.293s-.578-.336-.977-.746c-.399-.411-.831-.749-.958-.751-.407-.006-1.72-1.126-1.72-1.466 0-.18-.192-.685-.426-1.121-1.24-2.313-1.946-5.197-1.998-8.161-.033-1.906-.04-1.936-.165-.697l-.13 1.295-.033-1.792c-.018-.986.024-2.398.094-3.139l.128-1.347 2.111.109c1.161.06 4.419.146 7.24.191m3.15 14.21c-.325.608-.258.777.104.261.175-.251.272-.502.215-.559-.057-.057-.2.077-.319.298m-26.753 18.915c.536.642.585 1.054.107.904-.332-.105-.332-.096 0 .177.393.324.511 2.609.146 2.834-.111.069-.158.197-.103.285.162.263.165 4.826.003 5.686-.289 1.535-1.844 4.132-3.524 5.884-3.4 3.546-4.947 3.556-8.377.051-2.713-2.772-3.526-5.627-3.526-12.382v-4.114l7.417.074 7.416.073.441.528m92.932 13.827c-.048.132-.111 6.669-.14 14.526l-.052 14.286 1.593.006c.876.003 45.876.025 100 .049l98.407.044v-28.915l-1.114-.131c-2.213-.26-198.599-.127-198.694.135" fill="#072ce3"/><path d="M1.195 99.53v98.336l.647.071c.356.04 89.818.049 198.805.021l198.158-.05v-13.041c0-12.286-.02-13.04-.348-13.041-.192 0-43.31.023-95.819.05-89.729.047-99.434.035-101.443-.131-.438-.036-1.043-.077-1.344-.092l-.548-.025v-29.615000000000002l.747-.123c.41-.068 45.298-.125 99.751-.126l99.004-.002v-27.078h-99.436c-54.69 0-99.578-.054-99.751-.121-.482-.185-.482-29.837 0-30.022.173-.067 45.062-.121 99.753-.121h99.437l-.051-13.443-.051-13.443-99.652-.046-99.651-.046-.051-14.983-.051-14.982 99.702-.05 99.703-.05.051-13.091.051-13.091h-397.613v98.335m142.982-22.45c-.084 24.008-.235 27.057-1.608 32.427-.599 2.342-.869 3.331-1.006 3.684-.085.219-.315.98-.511 1.692-.195.712-.417 1.384-.492 1.493-.075.11-.2.462-.277.783-.077.321-.313.943-.525 1.382-.212.438-.385.889-.385 1 0 .221-3.58 7.523-3.768 7.686-.063.055-.286.436-.494.847-.209.41-.456.746-.548.746-.092 0-.168.116-.168.258 0 .518-3.851 5.963-5.8 8.2-1.988 2.281-4.247 4.719-5.076 5.48-1.991 1.823-3.409 3.024-5.152 4.361-.438.336-.886.684-.995.772-.914.737-2.509 1.835-2.663 1.835-.105 0-.221.077-.257.17-.037.093-1.008.745-2.157 1.447-2.81 1.717-3.055 1.856-4.779 2.716-.821.409-1.523.812-1.559.894-.037.082-.221.149-.409.149-.188 0-.427.08-.531.177-.104.098-.861.461-1.682.808l-1.891.802c-1.354.581-2.599.559-3.216-.058-.075-.075-.249-.136-.388-.136-.482 0-6.483-2.87-8.144-3.895-.438-.27-.953-.546-1.144-.611-.192-.066-.349-.199-.349-.296 0-.097-.112-.178-.249-.18-.137-.002-.754-.338-1.373-.746-2.279-1.506-3.866-2.611-4.332-3.015-.263-.229-.532-.416-.597-.417-.065-.001-.544-.404-1.064-.896s-1.002-.895-1.072-.895c-.39 0-5.527-4.95-7.241-6.977l-1.494-1.768c-.328-.39-.752-.881-.941-1.092-.189-.211-.591-.749-.893-1.196-.587-.87-1.679-2.342-1.858-2.506-.177-.161-2.692-4.184-3.361-5.376-.985-1.754-2.574-5.06-3.589-7.466l-.487-1.125c-.175-.4-.319-.827-.319-.949s-.086-.377-.192-.567c-.37-.665-1.729-5.331-2.206-7.577-.101-.472-.225-.927-.276-1.01-.052-.083-.188-.816-.303-1.629-.115-.813-.354-2.285-.531-3.271-.318-1.765-.687-46.246-.391-47.017.087-.227 7.251-.263 44.46-.22l44.357.05-.074 21.032m-51.684-9.733c.1 3.983.284 5.627.699 6.222.077.109.206.417.288.684.569 1.851 4.885 6.384 6.078 6.384.35 0 1.937-1.318 3.536-2.936 2.68-2.713 3.228-4.534 3.228-10.739v-4.045h-13.939l.11 4.43m-29.74 31.655c-.078 6.384.702 9.032 3.43 11.648 3.222 3.089 3.47 3.203 4.814 2.214 1.247-.917 3.866-3.546 3.866-3.88 0-.15.075-.273.167-.273.979 0 1.824-4.066 1.824-8.773v-3.97h-14.064l-.037 3.034m62.536-2.891c.303.046.751.045.995-.003.245-.047-.002-.084-.55-.083-.547.002-.748.04-.445.086m-32.692 36.679c.053 5.283.47 7.042 2.263 9.563.431.606.968 1.267 1.195 1.47 3.553 3.18 3.36 3.102 4.905 1.985 4.193-3.032 5.282-5.366 5.467-11.711.058-1.972.142-3.875.186-4.231l.082-.647h-14.134l.036 3.571" fill="#fbfbfb"/><path d="M64.594 63c-2.035.886-2.587 3.92-1.026 5.635 2.353 2.584 6.946-.755 5.341-3.884-.907-1.77-2.649-2.476-4.315-1.751m69.261.911c.088.336.03.379-.369.279-.939-.236-1.169.382-.446 1.199.348.392.74.714.873.714.132 0 .292.134.355.298.162.422.389.369.649-.151.122-.245.377-.741.566-1.101.193-.369.283-.803.205-.995-.118-.292-.165-.271-.325.146l-.188.487-.387-.636c-.437-.719-1.103-.89-.933-.24m.345 1.3c.139.167.197.359.129.427-.145.145-.73-.301-.73-.555 0-.275.324-.205.601.128m-3.654.427c-.269.269-.118.398.464.398.645 0 .792-.214.283-.41-.405-.155-.583-.152-.747.012m.664 1.066c.273.215.677.567.896.783.276.272.488.337.691.212.25-.155.243-.2-.05-.313-.189-.072-.343-.224-.343-.337 0-.331-.656-.735-1.194-.734h-.498l.498.389m-7.427.073c-.416.129-.692.299-.614.378.079.078-.04.142-.263.142s-.966.179-1.652.398c-1.484.475-2.737.508-3.714.1-.995-.416-1.003-.411-1.154.647-.074.52-.216 1.215-.314 1.543-.099.329-.37 1.269-.603 2.091-.233.821-.998 2.676-1.699 4.121-.702 1.445-1.276 2.682-1.276 2.748 0 .067-.182.52-.404 1.008-.359.788-.768 2.985-.785 4.218-.01.763.328.494.6-.477.142-.509.602-1.625 1.021-2.481.419-.855.762-1.602.762-1.659 0-.057.314-.594.697-1.193.384-.599.697-1.138.697-1.197 0-.058.493-.989 1.095-2.067.602-1.078 1.095-2.14 1.095-2.358 0-.219.06-.457.132-.53.254-.254.841-2.15.744-2.403-.16-.419.46-.778 1.117-.647.329.066.799.041 1.045-.055.245-.096.842-.281 1.326-.411.607-.164.796-.288.61-.403-.182-.112-.049-.187.415-.231.446-.042.684-.169.684-.364 0-.198.212-.305.631-.318.347-.011.929-.211 1.294-.445l.663-.425-.697.018c-.383.01-1.037.123-1.453.252m-51.259.166c-1.067.267-1.062.326.179 1.885 1.12 1.408 1.333 1.534 2.957 1.753 1.514.205 2.42.716 3.813 2.153 2.949 3.04 3.177 4.063 3.112 13.962-.054 8.393.026 9.038 1.441 11.597 2.833 5.125 9.417 8.578 11.4 5.979l.518-.68-.734-.698c-.746-.709-1.764-1.303-3.025-1.767-2.277-.838-4.457-3.064-5.148-5.258-1.033-3.281-1.071-3.514-.943-5.874.068-1.259.219-2.693.336-3.186.325-1.365.258-7.571-.102-9.457-1.378-7.226-7.644-11.951-13.804-10.409m51.922 1.659c-1.585.816-3.131 1.483-3.435 1.483-.614 0-.645.054-.347.61.41.767 1.957.238 4.949-1.693.724-.467 1.565-1.001 1.87-1.186.531-.323.578-.73.081-.707-.13.006-1.534.678-3.118 1.493m-54.941-.037c-.329.479-1.053 1.162-1.61 1.519-1.269.815-1.86-.047 4.894 7.146.886.943 2.767 2.968 4.182 4.5 3.008 3.258 4.214 4.482 4.416 4.481.08 0 .175-1.214.209-2.697.069-2.912-.08-3.439-1.377-4.868l-1.343-1.493c-1.244-1.391-2.4-2.656-4.735-5.184-2.415-2.614-3.459-3.85-3.459-4.093 0-.468-.638-.094-1.177.689m63.815-.703c-.069.112-.029.264.09.338.119.073.168.258.109.411-.059.154-.017.279.092.279.11 0 .254-.141.32-.314.142-.371-.418-1.026-.611-.714m-5.577 1.234c-.429.213-.929.523-1.111.688-.183.166-.398.301-.479.301-.081 0-.432.215-.781.478-.94.709-2.452 1.512-2.862 1.519-.584.01-.932.401-1.851 2.084-.479.876-1.693 2.847-2.697 4.381-1.621 2.475-3.477 5.567-3.477 5.791 0 .257.615.022.788-.301.113-.21.319-.501.459-.647.75-.778 5.937-7.402 6.666-8.512.469-.714 1.053-1.405 1.298-1.536.83-.444 5.32-4.725 4.869-4.643-.024.004-.394.183-.822.397m2.404.176c-.507.185-2.521 2.227-2.521 2.557 0 .149-.068.229-.15.178-.082-.051-.727.423-1.432 1.054l-1.282 1.147.527.527c.647.646 1.014.667 1.286.07.114-.251.823-1.214 1.575-2.141 2.323-2.864 2.807-3.687 1.997-3.392m-11.272 2.281c-.099.26-.276.83-.394 1.266-.265.985-1.651 3.826-2.874 5.893-.508.858-.923 1.604-.923 1.658 0 .054-.367.716-.816 1.472-.74 1.245-.976 1.852-1.313 3.375-.06.273.38-.443.979-1.593s1.573-2.808 2.165-3.684c3.494-5.171 4.848-7.743 4.42-8.396-.394-.602-1.014-.597-1.244.009m10.813 1.179c-.857.87-2.859 3.721-2.859 4.073 0 .11-.336.455-.746.765-1.297.98-9.667 9.246-9.516 9.397.173.172 4.11-2.634 5.312-3.786.149-.143.675-.571 1.167-.952.493-.381 1.075-.857 1.294-1.059.697-.641 2.771-2.168 3.236-2.382.312-.143.542-.543.761-1.319.172-.612.799-2.074 1.393-3.249 1.401-2.768 1.396-2.948-.042-1.488m-63.727-.407c-2.563 3.356-.823 11.143 3.201 14.324 2.637 2.084 7.692 3.47 7.692 2.108 0-2.301-2.974-5.943-5.825-7.133-2.985-1.246-3.862-3.584-2.407-6.418.333-.648.301-.715-.998-2.085-1.021-1.076-1.334-1.226-1.663-.796m65.448 2.526c0 .335.034.609.076.609.169 0 .256-1.012.096-1.111-.095-.059-.172.167-.172.502m-8.251 1.104c-.287.491-1.426 1.947-2.529 3.235-1.104 1.289-2.42 2.881-2.925 3.538-.505.657-1.123 1.417-1.372 1.69-.494.54-.592.998-.214.998.283 0 9.118-8.816 9.118-9.099 0-.234-1.116-1.255-1.373-1.255-.1 0-.417.402-.705.893m7.565.084c-.061.1-.027.391.075.647.175.437.188.425.2-.18.013-.655-.071-.796-.275-.467m-.867 1.651c-.319.319-.303.854.033 1.133.391.325.715-.134.583-.824-.116-.601-.254-.671-.616-.309m-1.142 2.467c.373.57.247.941-.145.425-.223-.294-.327-.269-1.097.262-.468.322-.916.576-.996.564-.397-.06-.637.051-.592.274.027.137-.063.227-.2.2-.136-.028-.248.039-.248.149 0 .109-.068.177-.15.15-.143-.046-2.912 2.005-3.733 2.766-.701.649-3.463 2.658-3.98 2.893-.275.126-.5.296-.5.379 0 .083-.269.211-.597.283-.329.072-.597.213-.597.314 0 .261.019.255 1.672-.498 1.288-.587 2.572-1.433 6.264-4.128.878-.641 3.266-2.079 4.935-2.973 1.295-.693 1.387-.925.525-1.327-.797-.371-.936-.305-.561.267m2.794 1.265c-1.884.59-4.792 2.244-8.132 4.625-1.55 1.105-3.525 2.353-4.389 2.774-2.032.989-2.059 1.037-.52.935 1.587-.105 3.304-.869 6.68-2.973 2.737-1.706 4.986-2.834 6.321-3.17.512-.129.882-.314.822-.411-.059-.096.116-.176.389-.176.988 0 .808-.569-.476-1.511-.163-.12-.476-.161-.695-.093m-60.415 3.535c.638.377.827.71.656 1.155-.263.688-1.863-.082-1.863-.897 0-.674.369-.753 1.207-.258m38.875 2.055c-1.079.43-1.13 1.675-.112 2.721 2.318 2.383 3.502 3.13 4.265 2.691 1.415-.814 1.219-1.643-.85-3.583-2.033-1.908-2.482-2.156-3.303-1.829m-22.512.544c-.221.558-.17 5.091.061 5.481.116.194 2.212 2.464 4.66 5.044l4.45 4.691 1.199-1.2c1.432-1.431 1.449-1.34-.663-3.569-1.658-1.75-3.343-3.67-4.389-5.002-.379-.481-1.391-1.618-2.25-2.524-.859-.907-1.83-2.013-2.158-2.459-.676-.919-.721-.942-.91-.462m21.283 3.088c-.125.125-.227.309-.227.41 0 .226-.649.973-3.49 4.018-1.226 1.314-2.657 2.882-3.181 3.484-.523.603-1.509 1.723-2.191 2.489-.681.767-1.494 1.708-1.804 2.091-.311.383-1.253 1.414-2.094 2.29-.841.876-1.957 2.085-2.48 2.687-.524.603-1.172 1.303-1.442 1.557l-.49.461 1.002.966c1.591 1.533 1.666 1.546 2.553.447.418-.518 1.307-1.524 1.974-2.236.668-.712 1.518-1.697 1.889-2.19.903-1.201 1.609-1.99 6.059-6.77 2.089-2.244 4.291-4.663 4.892-5.373.601-.711 1.3-1.505 1.554-1.765.526-.539.636-.371-1.287-1.959-.756-.625-1.067-.777-1.237-.607m-5.056 12.508c-.789.459 1.366 2.997 3.452 4.064 1.395.713 3.368 2.634 3.368 3.278 0 .196.146.749.325 1.228.245.655.362 1.985.473 5.351.237 7.147 1.299 9.784 4.584 11.381 3.711 1.803 5.409 1.483 1.816-.343-3.577-1.817-4.128-3.212-4.049-10.249.109-9.681-1.291-12.254-7.812-14.354-.976-.314-1.783-.568-1.792-.565l-.365.209m-2.389 2.463c-.52.573-.946 1.11-.946 1.194 0 .141 2.395 2.789 5.592 6.183.722.766 1.842 1.99 2.49 2.718 1.661 1.87 1.824 1.82 1.638-.499-.223-2.763-.305-2.91-3.647-6.482-.985-1.054-2.237-2.43-2.781-3.058-1.184-1.368-1.156-1.367-2.346-.056m-12.775 5.5c-.729.867-.718.891 1.325 2.829 2.016 1.912 2.482 2.149 3.247 1.647 1.372-.898 1.129-1.663-1.133-3.565-2.091-1.757-2.61-1.895-3.439-.911m-1.809 4.259c-2.184 2.705-4.548 5.361-6.509 7.31l-1.938 1.927 1.363 1.209c1.569 1.391 1.607 1.403 2.064.629.454-.768 1.472-1.981 3.201-3.813 1.152-1.221 3.969-4.418 5.473-6.212.268-.32.216-.418-.58-1.095-.481-.41-1.034-.901-1.228-1.093-.509-.503-.535-.487-1.846 1.138m27.938 4.238c-.094 2.49.347 3.621 1.857 4.766.551.417 1.129 1.002 1.284 1.299.155.297.598.79.985 1.095.386.305.931.944 1.211 1.419l.51.863.429-.391.977-.886c.731-.661.773-.565-1.1-2.516-1.595-1.661-3.106-3.375-4.896-5.55-1.058-1.285-1.212-1.297-1.257-.099m-38.8 5.736l-.479.509 2.006 1.979c2.205 2.176 2.639 2.359 3.476 1.463l.483-.517-1.493-1.396c-2.817-2.633-3.235-2.846-3.993-2.038m-1.78 3.206c-1.669 1.2-1.8 2.676-.354 4.007 1.415 1.304 4.134.153 4.134-1.75 0-1.71-2.481-3.192-3.78-2.257m48.876.09c-.583.284-1.291 1.408-1.291 2.05 0 2.412 2.914 3.262 4.178 1.217 1.182-1.912-.878-4.244-2.887-3.267" fill="#e9d712"/><path d="M100 .946c52.646.027 138.793.027 191.439 0 52.645-.028 9.571-.05-95.72-.05s-148.365.022-95.719.05m290.306-.001c1.622.034 4.22.034 5.774 0 1.554-.033.227-.061-2.949-.061-3.176 0-4.447.028-2.825.061m8.769 24.64c0 .985.033 1.414.075.952.042-.462.042-1.269.001-1.792-.041-.524-.075-.146-.076.84m-197.532 2.034c.301.046.794.046 1.095 0 .301-.046.055-.083-.547-.083-.603 0-.849.037-.548.083m-2.145 14.79c0 8.049.024 11.342.054 7.317.031-4.024.031-10.61 0-14.634-.03-4.024-.054-.732-.054 7.317m50.743 14.883c26.811.028 70.623.028 97.362 0 26.738-.028 4.802-.05-48.747-.05s-75.426.022-48.615.05m-106.117 2.24c0 1.04.034 1.466.075.946.041-.52.041-1.371 0-1.892-.041-.52-.075-.094-.075.946m255.037.498c.002.547.041.748.086.445.046-.303.045-.751-.002-.995-.048-.245-.085.002-.084.55m-292.541 5.634l.099 2.927.056-2.771c.031-1.525-.013-2.842-.099-2.928-.085-.085-.11 1.162-.056 2.772m-14.255 1.832c0 1.698.031 2.392.068 1.543.037-.848.037-2.237 0-3.086-.037-.848-.068-.154-.068 1.543m-36.868-1.593c0 .384.041.541.091.349.05-.192.05-.505 0-.697-.05-.192-.091-.035-.091.348m51.17 4.182c0 .383.041.54.091.348.05-.192.05-.505 0-.697-.05-.191-.091-.035-.091.349m-51.152 5.575c0 .711.036 1.003.08.647.044-.356.044-.939 0-1.295-.044-.355-.08-.064-.08.648m39.757 1.854c0 .034.291.325.647.647l.647.585-.585-.647c-.545-.604-.709-.739-.709-.585m303.883 4.218c.002.438.043.594.09.346.048-.247.046-.606-.004-.796-.05-.19-.089.012-.086.45m-99.702 2.887l-99.751.1 99.689.05c66.299.033 99.731-.017 99.813-.15l.062-.149c-.034.027-44.95.094-99.813.149m-99.955 14.933c0 8.049.024 11.341.054 7.317.031-4.024.031-10.61 0-14.634-.03-4.024-.054-.732-.054 7.317m-143.975-5.177c0 1.041.033 1.466.074.946.041-.52.041-1.371 0-1.891-.041-.521-.074-.095-.074.945m7.184 1.65c-.054.14-.071 1.865-.038 3.832l.059 3.578.045-3.72c.044-3.682.049-3.72.493-3.805l.448-.087-.454-.027c-.25-.015-.499.088-.553.229m14.446 3.188l.099 3.425.055-3.27c.031-1.799-.014-3.34-.099-3.425-.085-.085-.11 1.386-.055 3.27m52.139-3.296l7.043.056-.08 4.433-.079 4.432-1.03 2.086c-1.933 3.916-4.817 7.044-6.12 6.637-2.435-.76-6.174-5.662-6.586-8.633-.068-.493-.173-.941-.234-.996-.239-.218.188 2.093.583 3.153.876 2.347 5.166 6.799 6.555 6.802 1.085.002 4.667-3.54 5.811-5.747 1.282-2.473 1.345-2.853 1.285-7.805l-.053-4.466-7.068-.004-7.069-.004 7.042.056m-7.259 3.336c0 1.862.03 2.65.067 1.752.036-.898.037-2.421 0-3.384-.037-.964-.067-.229-.067 1.632m-59.181 5.774c-.004.219.071.578.165.797.218.507.218-.016 0-.697-.128-.4-.161-.42-.165-.1m2.554 5.177c.372.383.72.697.775.697.055 0-.204-.314-.576-.697-.371-.383-.72-.697-.775-.697-.055 0 .205.314.576.697m187.606 4.231c25.378.028 66.906.028 92.285 0 25.378-.028 4.614-.051-46.143-.051-50.756 0-71.52.023-46.142.051m146.168 5.326c.001 1.314.033 1.826.072 1.137.039-.689.039-1.764-.001-2.389-.039-.626-.071-.062-.071 1.252m-262.992 5.874c-.17.328-.264.597-.21.597.055 0 .239-.269.409-.597.17-.329.264-.598.209-.598-.055 0-.239.269-.408.598m-32.896 3.332c.523.041 1.33.041 1.792-.001.462-.042.033-.076-.952-.075-.986.001-1.364.035-.84.076m3.486 4.169c.031 2.363.1 4.254.152 4.202.169-.169.125-8.163-.045-8.334-.091-.09-.139 1.769-.107 4.132m-14.244-3.221c.003.438.043.594.091.346.048-.247.046-.606-.004-.796-.05-.19-.089.012-.087.45m107.002 12.179c-.184.184-.168 29.289.016 29.403.083.051.15-6.574.15-14.722 0-8.147-.008-14.814-.017-14.814l-.149.133m-76.303.713l-.584.647.647-.584c.356-.322.647-.613.647-.647 0-.154-.165-.019-.71.584m-26.368 2.041c.371.383.72.697.775.697.054 0-.205-.314-.576-.697-.372-.383-.721-.697-.775-.697-.055 0 .204.314.576.697m104.181 26.726c.41.043 1.082.043 1.493 0 .411-.043.075-.078-.747-.078-.821 0-1.157.035-.746.078m42.857.003c92.008.135 155.154.136 155.071.001-.051-.082-42.668-.127-94.705-.1-52.036.027-79.201.072-60.366.099m-240.379 26.68c1.171.035 3.142.035 4.38 0s.28-.063-2.13-.064c-2.409 0-3.422.029-2.25.064m389.752-.005c.354.044.981.045 1.394.002.413-.043.124-.079-.643-.08-.766-.001-1.104.034-.751.078" fill="#959ad6"/><path d="M0 99.552v99.552h400v-13.738c0-13.27-.013-13.738-.371-13.738-.359 0-.37.441-.335 13.155.036 13.037.033 13.157-.37 13.439-.556.39-397.499.435-397.889.046-.413-.414-.34-197.39.074-197.549.172-.066 89.771-.12 199.109-.121l198.796-.002.158.449c.087.246.152 6.317.145 13.49l-.014 13.041-99.751.1c-54.863.056-99.774.123-99.801.15-.027.027-.044 6.522-.037 14.434.007 8.281.086 14.204.184 13.959.095-.234.194-6.575.221-14.091.048-13.656.049-13.666.462-13.766.228-.055 45.191-.075 99.917-.045l99.502.055v-28.372h-400v99.552m143.734-43.056c-.066.501.03 3.312.115 3.398.057.056.103-.719.103-1.722 0-1.474-.122-2.414-.218-1.676m255.619 8.362c-.125 18.868-.109 19.761.362 19.761.245 0 .285-1.933.285-13.638 0-11.991-.036-13.639-.299-13.639-.259 0-.305.99-.348 7.516m-255.55-3.036c.003.438.043.594.091.346s.046-.606-.004-.797c-.05-.19-.089.013-.087.451m-79.37.498c-2.253 1.138-2.748 1.91-2.569 4.014.155 1.836 1.151 3.212 2.936 4.059.388.184.705.43.705.546 0 .38-.428 1.617-.828 2.391-1.948 3.778 1.102 13.262 4.626 14.38.211.067.383.205.383.307 0 .103.115.186.256.186.14 0 .835.307 1.543.682 1.342.711 4.842 1.355 5.658 1.042.37-.142.368-1.079-.004-2.005-.108-.268-.084-.339.08-.238.506.314.192-.586-.713-2.042-.994-1.598-2.889-3.611-3.399-3.611-.165 0-.746-.287-1.292-.637-.546-.351-1.264-.776-1.596-.946-.331-.17-.666-.443-.743-.607l-.413-.896c-.15-.329-.356-.658-.459-.732-.113-.081-.102-.237.029-.398.119-.145.33-.65.471-1.122.3-1.011.781-1.354 1.42-1.011.475.254 1.136.969 1.147 1.239.003.092.477.629 1.053 1.195.576.565 1.584 1.649 2.24 2.408.656.759 1.792 2.013 2.524 2.787 3.383 3.58 3.51 3.736 3.728 4.603.12.475.22 1.294.222 1.821.003.526.099 1.36.212 1.853.114.493.285 1.433.38 2.09.264 1.835.69 3.489 1.164 4.519.236.514.43.991.43 1.059 0 .821 3.415 4.317 4.849 4.965l1.992.895c.533.238 1.27.459 1.639.492.368.033.789.159.934.279.144.12.482.162.75.093.454-.116.435-.063-.263.755-.412.485-1.124 1.396-1.582 2.026-.811 1.116-.855 1.144-1.779 1.144-2.259 0-3.644 2.103-2.319 3.52l.702.761c.199.219.756.733 1.237 1.143.796.677.848.775.58 1.095-1.504 1.794-4.321 4.991-5.473 6.212-1.729 1.832-2.747 3.045-3.201 3.813-.458.775-.493.763-2.081-.645l-1.381-1.223 1.419-1.295c.78-.712 2.061-2.065 2.846-3.007.786-.942 2.064-2.403 2.84-3.248 1.582-1.72 2.591-3.09 2.411-3.271-.145-.144-4.078 3.764-5.326 5.292-2.286 2.799-5.422 5.388-6.525 5.388-.397 0-1.03 1.055-1.03 1.717 0 .556-.126.747-.755 1.144-1.062.67-2.028 1.833-2.055 2.472-.039.903.04 1.327.286 1.541.281.243.665.835.915 1.406.408.937 1.419 1.526 2.448 1.427 1.039-.1 1.359-.37 2.597-2.199.487-.719.955-1.107 1.902-1.576 1.535-.76 2.106-1.415 1.944-2.226-.14-.698.486-1.581 3.262-4.602 1.006-1.095 2.372-2.663 3.036-3.484 2.537-3.139 3.055-3.584 4.175-3.584.896 0 1.492-.684 2.102-2.414.6-1.701 4.331-6.347 5.098-6.347.265 0 1.359 1.088 1.944 1.932.167.242.97 1.146 1.784 2.009 1.169 1.238 3.857 4.135 5.468 5.892.867.946 1.489 2.31 1.489 3.266 0 4.271 3.876 9.078 7.484 9.281.558.031 1.122.123 1.253.204.132.082.381.031.553-.112.391-.324 1.158.528 1.459 1.62.399 1.45 1.715 2.46 2.593 1.99.238-.128.75-.261 1.139-.297.841-.078 1.598-.807 1.779-1.712.149-.743-.472-.56-1.04.307-1.444 2.203-4.819.33-3.907-2.168.203-.555.197-.575-.07-.222-.161.212-.293.278-.293.145 0-.154-.17-.198-.47-.123-.44.111-.827-.383-.747-.953.045-.317-.759-1.396-1.53-2.057-.447-.382-.867-.864-.932-1.07-.065-.205-.604-.748-1.197-1.205-1.592-1.229-2.024-2.31-1.929-4.83.046-1.216.213-1.191 1.344.199 1.357 1.668 3.281 3.836 3.968 4.473.779.721.728.667 1.932 2.022.571.642 1.069 1.079 1.105.97.083-.248-1.163-2.369-1.783-3.035-.255-.274-1.119-1.259-1.921-2.19-.801-.931-2.054-2.354-2.784-3.161-1.635-1.809-1.542-1.543-1.714-4.903-.144-2.826-.543-4.679-1.006-4.679-.138 0-.339-.345-.446-.768-.328-1.293-3.45-5.006-4.21-5.006-.204 0-.781-.181-1.281-.402-.5-.221-1.161-.384-1.469-.362-1.348.098-1.946-1.041-.827-1.575.614-.294 2.017-1.845 2.858-3.159.218-.342 1.056-1.327 1.862-2.191.806-.863 1.559-1.771 1.674-2.017.179-.383.365-.448 1.277-.448 1.235 0 2.711-1.1 2.953-2.202.173-.789.353-.858 1.513-.58.994.238 2.882-.105 3.452-.629.104-.095.31-.173.457-.173.148 0 .77-.321 1.383-.713.613-.392 1.303-.792 1.533-.889.231-.098.957-.495 1.614-.884.657-.389 1.419-.815 1.693-.948s.542-.293.597-.355c.055-.063.458-.273.896-.466 1.422-.628 1.788-.818 2.055-1.071.145-.137.437-.249.65-.249.213 0 .542-.075.732-.167l.943-.454c.347-.168.624-.473.661-.73.083-.573-.212-.568-.464.007-.108.246-.376.465-.595.485-.96.089-2.422.407-2.787.608-.219.119-.757.365-1.195.546-1.214.5-2.196 1.039-4.467 2.454-3.083 1.919-4.836 2.684-6.384 2.786-1.539.102-1.512.054.52-.935.864-.421 2.825-1.656 4.358-2.746 1.533-1.09 3.079-2.152 3.434-2.359.356-.208.648-.448.648-.533 0-.086.112-.158.248-.159.591-.005 2.04-.918 1.983-1.25-.067-.39.363-.454.711-.106.179.179.325.152.624-.119.215-.195.465-.307.557-.251.091.057.173-.718.18-1.722.009-1.137.13-2.126.321-2.622.169-.438.552-1.469.851-2.29.809-2.22 1.165-2.467 1.025-.715-.06.757-.207 1.436-.326 1.51-.135.083-.168.438-.088.938.089.557.037.95-.168 1.278-.34.541-.582 2.118-.349 2.262.086.053.222-.193.303-.547.144-.633.149-.636.29-.147.129.451.154.423.265-.298.068-.438.208-1.289.312-1.892.218-1.255.053-6.968-.2-6.968-.092 0-.168.182-.168.404 0 .223-.134.456-.299.519-.164.063-.298.24-.298.392 0 .153-.084.277-.185.277-.437 0-.811.672-.812 1.458-.001.458-.127 1.073-.28 1.366-.153.294-.344.83-.423 1.192-.08.362-.26.838-.401 1.059-.159.248-.234.874-.197 1.645.065 1.368.05 1.384-.865.928-.463-.232-.605-.414-.522-.674.062-.197.006-.591-.124-.877-.196-.432-.181-.582.094-.885.181-.201.33-.691.33-1.09 0-.507.076-.695.255-.626.289.11 1.417-2.011 1.23-2.313-.063-.103-.02-.187.096-.187s.211-.179.211-.398c0-.707-.689-.469-1.057.365-.185.42-.337.864-.337.986s-.113.293-.25.381c-.448.285-1.282 2.121-1.542 3.395-.152.749-.355 1.244-.509 1.244-.22 0-3.589 2.412-3.871 2.771-.055.069-.503.437-.996.816-.492.38-1.075.857-1.294 1.061-1.3 1.213-5.014 3.844-5.185 3.673-.151-.151 8.219-8.417 9.516-9.397.41-.31.746-.651.746-.758 0-.209 1.651-2.784 2.207-3.442.418-.496.722-1.405.403-1.208-.362.224-.25-.179.178-.638.4-.43.526-.85.249-.833-.202.013-2.714 3.143-3.243 4.041-.412.698-.436.708-.91.398-1.048-.687-.994-.795 1.682-3.391 1.456-1.412 2.381-2.445 2.191-2.447-.232-.003-.299-.123-.226-.402.058-.223.006-.398-.118-.398-.364 0-.252-.76.126-.858.257-.068.228-.098-.109-.115-.255-.012-.662.197-.917.473-.705.76-2 1.262-1.859.719.09-.343-.066-.289-1.018.357-2.645 1.795-4.394 2.387-4.801 1.627-.298-.556-.267-.61.347-.61.304 0 1.882-.678 3.507-1.506 2.823-1.439 3.916-1.749 3.283-.931-.214.277-.179.27.177-.033.525-.449.575-.86.114-.95-.182-.036.134-.207.703-.381.652-.2 1.004-.237.954-.1-.17.469.258.849.985.877l.74.027-.552-.576c-1.192-1.243.272-1.269 1.984-.035.975.704 1.494 1.941.954 2.275-.387.239-1.265-.123-1.376-.568-.064-.253-.242-.508-.396-.568-.337-.129-.351-.025-.066.507.17.318.143.454-.13.654-.399.291-.267.616.31.767.262.069.401.008.401-.175 0-.36.153-.354.526.019.343.342.669.391.669.099 0-.109-.112-.2-.249-.202-.137-.001-.025-.116.249-.254s.65-.563.837-.943c.329-.671.339-.676.348-.16.005.292-.068.56-.163.597-.095.036-.239.279-.32.539-.304.977.257.189 1.146-1.61 1.12-2.269 1.999-5.692 1.437-5.599l-1.095.155c-1.623.223-3.2 1.044-4.596 2.394-.173.168-.417.305-.542.305-.124 0-.54.176-.924.392-.546.307-1.232.418-3.142.508-2.449.116-4.733.458-4.733.71 0 .283-1.813.571-3.851.611-2.517.049-2.344-.105-3.305 2.956-.36 1.149-.923 2.852-1.25 3.782-.327.931-.641 1.85-.697 2.041-.056.192-.182.349-.278.349-.097 0-.176.161-.176.358 0 .197-.08.444-.178.548-.612.65-1.815 4.175-1.503 4.403.264.193.302.469.204 1.496-.065.692-.137 1.637-.158 2.099-.033.71-.12.869-.556 1.021-1.716.599-2.516 2.77-1.41 3.827.345.33.579.678.52.773-.059.095.274.472.74.836 1.666 1.303 1.635 1.253 1.11 1.791-.254.26-.953 1.054-1.554 1.765-.601.71-2.803 3.129-4.892 5.373-4.45 4.78-5.156 5.569-6.059 6.77-.371.493-1.221 1.478-1.889 2.19-.667.712-1.556 1.718-1.974 2.236-.887 1.099-.962 1.086-2.553-.447l-1.002-.966.49-.461c.27-.254.918-.954 1.442-1.557.523-.602 1.639-1.811 2.48-2.687.841-.876 1.783-1.907 2.094-2.29.31-.383 1.123-1.324 1.804-2.091.682-.766 1.668-1.886 2.191-2.489.524-.602 1.955-2.17 3.181-3.484 3.606-3.865 4.079-4.507 3.676-4.993-.352-.424-.54-.349-.908.364-.332.643-.8 1.168-3.659 4.106-.821.843-1.941 2.096-2.488 2.783-1.654 2.077-1.641 2.064-2.055 1.933-.328-.104-3.597-3.64-7.077-7.655-.533-.614-1.653-1.867-2.489-2.784-2.269-2.488-2.262-2.473-2.233-4.829.031-2.561-.499-7.686-.898-8.675-2.026-5.031-4.63-7.814-8.344-8.919-1.062-.316-5.836-.404-6.559-.121-.644.252-1.47-.306-1.696-1.145-.201-.747-.737-1.338-2.417-2.667-1.33-1.053-1.628-1.066-3.442-.15m27.553.199c0 .251.407.251.796 0 .233-.151.178-.194-.248-.196-.302-.002-.548.086-.548.196m44.507.547c-.075.301-.385 1.041-.69 1.643-.383.758-.505 1.218-.397 1.493.086.219.156.533.156.697 0 .198-.049.173-.147-.074-.138-.351-.166-.353-.485-.034-.441.441-.522.403-1.834-.874-.824-.801-1.041-1.12-.839-1.233.15-.084.621-.472 1.045-.861.425-.389.912-.71 1.082-.714.171-.004.534-.135.808-.292.882-.504 1.46-.394 1.301.249m-69.458-.136c.755.286 1.417.929 1.874 1.821 1.605 3.129-2.988 6.468-5.341 3.884-2.393-2.629.223-6.934 3.467-5.705m76.778 1.779c0 .602.037.848.083.547.045-.301.045-.794 0-1.095-.046-.301-.083-.054-.083.548m-18.875 2.427c-1.993 1.256-4.337 2.135-5.426 2.034-.982-.091-1.64.236-1.366.679.112.182-.495 2.113-.742 2.36-.072.073-.132.311-.132.53 0 .218-.493 1.28-1.095 2.358s-1.095 2.009-1.095 2.067c0 .059-.313.598-.697 1.197-.383.599-.697 1.134-.697 1.189 0 .055-.35.837-.778 1.738-.894 1.884-1.453 3.502-1.297 3.754.059.096-.03.175-.198.175-.223 0-.279-.147-.209-.548.052-.301.182-1.286.288-2.188.105-.903.374-2.04.596-2.528.222-.488.404-.941.404-1.008 0-.066.574-1.303 1.276-2.748.701-1.445 1.466-3.3 1.699-4.121.233-.822.504-1.762.603-2.091.098-.328.24-1.023.314-1.543.151-1.058.159-1.063 1.154-.647 1.211.506 3.115.304 4.809-.51.767-.368 2.197-.745 2.887-.761l.697-.016-.995.628m-45.794.348c3.259 1.38 6.384 5.672 7.184 9.868.36 1.886.427 8.092.102 9.457-.816 3.436-.233 8.066 1.343 10.652.936 1.537 2.772 3.063 4.412 3.666 1.261.464 2.279 1.058 3.025 1.767l.734.698-.518.68c-1.491 1.954-5.736.599-9.033-2.884-3.571-3.773-3.871-4.928-3.808-14.692.065-9.899-.163-10.922-3.112-13.962-1.393-1.437-2.299-1.948-3.813-2.153-1.624-.219-1.837-.345-2.957-1.753-1.241-1.559-1.246-1.618-.179-1.885 1.81-.453 4.861-.204 6.62.541m27.807 2.268c-.034 2.485-.423 3.943-1.526 5.708-.239.384-.471.803-.516.933-.146.426-3.128 3.369-4.003 3.951-.827.55-.84.574-.365.688.567.136 3.872-2.949 4.871-4.546 1.604-2.566 1.593-2.53 1.669-5.207.04-1.369.034-2.802-.013-3.185-.047-.384-.1.363-.117 1.658m-36.269-1.876c0 .243 1.044 1.479 3.459 4.093 2.335 2.528 3.491 3.793 4.735 5.184l1.343 1.493c1.297 1.429 1.446 1.956 1.377 4.868-.034 1.483-.129 2.697-.209 2.697-.202.001-1.408-1.223-4.416-4.481-1.415-1.532-3.296-3.557-4.182-4.5-6.754-7.193-6.163-6.331-4.894-7.146.557-.357 1.281-1.04 1.61-1.519.539-.783 1.177-1.157 1.177-.689m-1.593.516c0 .164-.089.299-.199.299-.11 0-.199-.135-.199-.299 0-.164.089-.298.199-.298.11 0 .199.134.199.298m59.406.548c-.161.353-4.263 4.115-4.799 4.402-.245.131-.829.822-1.298 1.536-.729 1.11-5.916 7.734-6.666 8.512-.14.146-.346.437-.459.647-.173.323-.788.558-.788.301 0-.224 1.856-3.316 3.477-5.791 1.004-1.534 2.218-3.505 2.697-4.381.919-1.683 1.267-2.074 1.851-2.084.41-.007 1.922-.81 2.862-1.519.349-.263.7-.478.781-.478.081 0 .296-.135.479-.301.257-.232 1.7-1.043 1.933-1.085.024-.005-.007.104-.07.241m-60.13.249c-.121.315-.471.414-.471.132 0-.21.218-.431.426-.431.087 0 .108.134.045.299m-.76.483c-.158.256-1.452.664-1.753.553-.136-.05-.001-.157.3-.237.301-.08.548-.226.548-.323 0-.098.229-.178.509-.178.281 0 .459.083.396.185m52.514 1.872c.428.653-.926 3.225-4.42 8.396-.592.876-1.566 2.534-2.165 3.684-.599 1.15-1.039 1.866-.979 1.593.337-1.523.573-2.13 1.313-3.375.449-.756.816-1.418.816-1.472 0-.054.415-.8.923-1.658 1.223-2.067 2.609-4.908 2.874-5.893.501-1.858 1.001-2.247 1.638-1.275m-52.495 1.577c1.299 1.37 1.331 1.437.998 2.085-1.455 2.834-.578 5.172 2.407 6.418 2.052.856 2.596 1.299 3.983 3.244 2.103 2.946 2.377 4.331.856 4.331-7.56 0-13.108-8.615-10.321-16.028.526-1.4.79-1.407 2.077-.05m13.009 2.203c.134.418.189.814.124.88-.066.065-.12-.023-.12-.196 0-.173-.075-.345-.167-.382-.093-.036-.229-.377-.303-.757-.17-.874.137-.573.466.455m44.008.269c.327.292.595.618.595.724 0 .283-8.835 9.099-9.118 9.099-.378 0-.28-.458.214-.998.249-.273.867-1.033 1.372-1.69.505-.657 1.821-2.249 2.925-3.538 1.103-1.288 2.242-2.744 2.529-3.235.612-1.044.695-1.064 1.483-.362m-30.35 1.908c1.094 1.303 2.405 2.406 2.668 2.243.147-.091.068-.266-.234-.515l-.752-.629c-.162-.139-.35-.253-.419-.253s-.37-.291-.67-.647c-.299-.356-.64-.647-.756-.647-.117 0-.043.202.163.448m35.624 2.539c.449.468.5.597.236.597-.413 0-3.032 1.392-4.516 2.401-.603.409-1.454.967-1.892 1.241-.438.273-.994.685-1.236.916-.242.231-.489.42-.551.42-.061 0-.729.449-1.484.999-1.098.798-4.095 2.386-4.505 2.386-.369 0 .033-.394.509-.498.328-.072.597-.2.597-.283 0-.083.225-.253.5-.379.517-.235 3.279-2.244 3.98-2.893.219-.203 1.083-.894 1.919-1.535.837-.642 1.643-1.283 1.792-1.426.149-.143.664-.566 1.144-.941 2.34-1.829 2.637-1.914 3.507-1.005m-32.632.083c.067.173.209.315.316.315.262 0 .098-.452-.2-.552-.145-.048-.19.043-.116.237m2.468 1.069c0 .301.636.482.87.248.141-.141.136-.206-.017-.206-.123 0-.365-.054-.538-.12-.173-.067-.315-.032-.315.078m-29.733 3.56c-.456.456.416 1.659 1.203 1.659.858 0 .777-.919-.128-1.454-.618-.365-.867-.412-1.075-.205m129.708 14.75l-.025 14.585.448-.003c.304-.003.367-.055.196-.164-.199-.126-.258-3.002-.277-13.685-.013-7.439-.09-13.928-.171-14.421-.08-.493-.157 5.667-.171 13.688m-87.145-12.816c-.072.287-.255.522-.407.522-.371 0-.355-.381.021-.526.164-.063.299-.254.299-.425 0-.171.049-.261.109-.201s.05.344-.022.63m-1.048.606c2.096 1.448 3.768 3.614 3.367 4.363-.843 1.575-2.113 1.091-5.044-1.922-1.604-1.647-.179-3.722 1.677-2.441m-23.167.726c.328.446 1.299 1.552 2.158 2.459.859.906 1.871 2.043 2.25 2.524 1.046 1.332 2.731 3.252 4.389 5.002 2.112 2.229 2.095 2.138.663 3.569l-1.199 1.2-4.45-4.691c-5.341-5.631-4.871-4.877-4.864-7.787.007-3.3.12-3.545 1.053-2.276m-10.959 7.104c-.037.082-.02 1.045.038 2.14.081 1.526.141 1.834.255 1.319.338-1.518.1-4.326-.293-3.459m-14.59.249c-.286.123-.072.175.759.185.723.009 1.11-.061 1.033-.185-.147-.239-1.236-.239-1.792 0m-7.022 3.385c0 .383.041.54.091.348.05-.192.05-.505 0-.697-.05-.191-.091-.035-.091.349m87.629 1.792c0 .93.035 1.311.077.846.042-.466.042-1.227 0-1.693-.042-.465-.077-.084-.077.847m-87.258 1.592c-.02.949.342 3.177.971 5.973.21.931.443 2.004.518 2.383.074.38.208.828.296.996.165.315.541 1.684.725 2.644.058.302.194.548.303.548.108 0 .155-.112.102-.249-.46-1.204-1.505-5.613-2.04-8.611-.767-4.303-.854-4.669-.875-3.684m49.674 1.368c6.521 2.1 7.921 4.673 7.812 14.354-.08 7.048.469 8.431 4.071 10.261.776.394 1.561.89 1.745 1.101.183.212.392.327.463.256.071-.071.129-.026.129.099 0 .267-.864.153-2.19-.291-4.993-1.669-6.3-4.1-6.569-12.215-.111-3.366-.228-4.696-.473-5.351-.179-.479-.325-1.032-.325-1.228 0-.644-1.973-2.565-3.368-3.278-1.246-.638-3.8-3.096-3.8-3.657 0-.153.406-.503.713-.616.009-.003.816.251 1.792.565m-28.437.026c-.08.274-.146.688-.148.92-.016 2.439-2.309 5.819-5.777 8.513-1.475 1.146-1.446 1.134-2.19.921-.765-.22-1.095-.092-.744.289.187.203.313.213.524.041.228-.187.252-.147.136.219-.299.942.576.499 2.971-1.505 3.346-2.8 4.78-4.839 5.284-7.513.255-1.351.212-2.802-.056-1.885m26.237 2.137c.544.628 1.796 2.004 2.781 3.058 3.342 3.572 3.424 3.719 3.647 6.482.186 2.319.023 2.369-1.638.499-.648-.728-1.768-1.952-2.49-2.718-3.197-3.394-5.592-6.042-5.592-6.183 0-.23 1.861-2.233 2.098-2.258.113-.012.651.492 1.194 1.12m-11.682 6.355c2.262 1.902 2.505 2.667 1.133 3.565-.765.502-1.231.265-3.247-1.647-2.043-1.938-2.054-1.962-1.325-2.829.829-.984 1.348-.846 3.439.911m-25.126.48c.522.564 1.262 1.102 1.262.919 0-.196-1.392-1.529-1.597-1.529-.126 0 .025.275.335.61m134.313 1.524c.301.046.794.046 1.095 0 .301-.046.055-.083-.548-.083-.602 0-.848.037-.547.083m195.701.006c1.472.049 1.985.14 2.19.387.333.402.445 27.069.115 27.488-.156.199-20.315.259-99.374.298-54.549.027-90.22.072-79.269.1 10.95.027 55.816.073 99.701.1l79.791.05v-28.570999999999998l-2.539.041c-2.39.039-2.426.046-.615.107m-337.699 1.039c-.012.259.328 1.342.783 2.496.6 1.521.984 2.354.989 2.147.004-.133-.121-.536-.277-.896-.33-.759-.421-1.002-1.03-2.744-.249-.712-.459-1.163-.465-1.003m1.982 5.311c-.002.125.173.618.39 1.095.216.478.396.766.398.641.002-.125-.173-.617-.389-1.095-.217-.477-.396-.766-.399-.641m16.442 5.028c.427.317 1.448 1.205 2.27 1.972l1.493 1.396-.483.517c-.837.896-1.271.713-3.476-1.463l-2.006-1.979.479-.509c.606-.645.773-.639 1.723.066m46.122 2.144c-.423.171-.274.519.173.402.479-.125 1.171.235 1.171.61 0 .137.235.25.522.25.425 0 .479.052.292.278-.188.227-.136.273.279.249.762-.043.546-.526-.57-1.273-.928-.622-1.329-.733-1.867-.516m-31.679 1.589c.026 1.064.039 1.097.15.37l.121-.796 2.489-.138c1.368-.075 4.661-.12 7.317-.099 2.655.021 4.828-.03 4.828-.112s-3.218-.149-7.152-.149c-3.933 0-7.293-.054-7.466-.121-.267-.102-.311.057-.287 1.045m-15.441-.433c1.709 1.12 1.594 3.315-.219 4.176-2.176 1.032-4.753-1.745-3.225-3.477 1.106-1.255 2.244-1.486 3.444-.699m46.224-.354c-.191.05-.348.174-.348.276 0 .267.266.227.709-.108.387-.293.29-.338-.361-.168m3.335 1.456c-.067.109-.034.199.075.199s.235.246.281.547c.066.441.088.402.112-.199.029-.709-.201-.978-.468-.547m6.005 1.756c-.181.201-.33.483-.33.626 0 .143.189.019.421-.275.482-.613.408-.901-.091-.351m-.799 1.146c-.073.227-.296.587-.495.801-.393.422-1.229 1.701-.899 1.374.7-.691 1.687-2.118 1.614-2.333-.054-.157-.138-.097-.22.158m-62.249 1.565c0 .082.179.377.398.655.257.326.399.401.399.212 0-.162-.18-.457-.399-.655-.219-.198-.398-.294-.398-.212m2.99 3.639c.004.203 1.191 1.553 1.191 1.355 0-.083-.269-.456-.597-.831-.329-.374-.596-.61-.594-.524m51.075 4.149c-1.857 1.801-3.276 3.275-3.153 3.275.124 0 .255-.067.291-.149.037-.083.47-.497.962-.922 2.098-1.809 5.742-5.555 5.34-5.489-.035.006-1.583 1.484-3.44 3.285m76.571 14.773c.013 8.076.092 14.415.175 14.087.084-.329.163-6.884.176-14.568.018-10.972.077-13.992.272-14.071.137-.055.048-.107-.199-.116l-.448-.016.024 14.684m-95.605-13.061c-.486.558-.919 1.115-.961 1.239-.106.315 1.125-.854 1.61-1.529.687-.957.28-.774-.649.29m-25.803.567c.374.329.739.598.81.598.072 0-.176-.269-.55-.598-.374-.328-.739-.597-.81-.597-.072 0 .176.269.55.597m16.854-.1c.257.273.511.453.564.4.133-.133-.574-.897-.828-.897-.112 0 .007.224.264.497m-13.484 2.888c.278.219.582.396.674.394.217-.006-.772-.782-1.004-.788-.097-.002.052.175.33.394m3.353 2.359c.809.628 2.148 1.424 2.395 1.424.13 0-.383-.401-1.141-.892-1.386-.898-2.135-1.215-1.254-.532m8.937 5.107c.274.157.632.284.797.284.164 0-.003-.132-.372-.292-.848-.368-1.075-.363-.425.008m8.883 1c-2.87 1.22-3.177 1.267-4.348.67-1.228-.626-3.34-1.391-3.34-1.209 0 .163.657.481 2.77 1.34 1.247.506 2.358.622 2.957.307.19-.1.838-.381 1.44-.624 1.64-.661 3.186-1.384 3.186-1.49 0-.133.136-.184-2.665 1.006" fill="#8a6e1a"/><path d="M1.126 1.145c-.051.082 89.405.127 198.792.099l198.884-.05.054 9.557.055 9.558-.003-9.607-.003-9.607-198.843-.05c-109.364-.027-198.885.018-198.936.1m397.679 23.087c-.055 1.774-.03 3.156.056 3.07.085-.085.129-1.537.098-3.226l-.055-3.071-.099 3.227m-199.37 33.161c.051.084 44.908.149 99.682.146l99.589-.005.102 9.312.103 9.311.044-9.258c.024-5.092-.022-9.348-.103-9.457-.174-.237-199.564-.285-199.417-.049m-55.206 2.936c0 1.478.032 2.083.07 1.343.038-.739.038-1.948 0-2.687-.038-.74-.07-.135-.07 1.344m-37.824 6.67c0 2.19.029 3.113.065 2.051.036-1.062.036-2.854 0-3.982-.035-1.128-.065-.26-.065 1.931m-13.946.995c0 1.205.033 1.672.073 1.038.039-.634.039-1.619-.001-2.19s-.073-.053-.072 1.152m306.39 13.39l-.044 3.036-99.601.05-99.602.05 99.608.05c81.423.04 99.626.002 99.707-.209.054-.142.071-1.553.037-3.136l-.061-2.878-.044 3.037m-254.829 15.878c.001.876.036 1.21.078.742.042-.469.042-1.185-.001-1.593-.043-.408-.077-.025-.077.851m-21.93 1.681c-.003 1.594.08 3.571.185 4.392.105.821.195 1.628.2 1.792.058 1.898 2.116 5.133 4.341 6.823.61.463 1.162.915 1.229 1.006.548.749 2.766.128 2.766-.775 0-.157.135-.285.299-.285.164 0 .299-.091.299-.203 0-.112.224-.305.497-.43.274-.125.498-.344.498-.487 0-.142.157-.344.349-.448.191-.104.526-.533.744-.953.218-.42.453-.809.522-.863.232-.184.974-1.965.974-2.339 0-.203.077-.454.172-.558.528-.581 1.142-6.874.87-8.908l-.101-.754-6.919.045-6.918.046-.007 2.899m-45.168 1.306c.001.876.036 1.21.078.741.042-.468.042-1.185-.001-1.593-.043-.407-.077-.024-.077.852m-21.322.796c.002.438.043.594.091.346.047-.247.046-.606-.004-.796-.05-.19-.089.012-.087.45m7.168 2.39c.002.438.043.593.091.346.047-.248.045-.606-.004-.797-.05-.19-.089.013-.087.451m2.936 6.931c0 .034.292.325.647.647l.648.585-.585-.647c-.545-.603-.71-.739-.71-.585m183.74 4.268c27.413.028 72.211.028 99.552 0 27.34-.028 4.911-.05-49.842-.05-54.754 0-77.123.022-49.71.05m149.455 13.589c0 7.392.025 10.416.056 6.72.03-3.696.03-9.744 0-13.44-.031-3.696-.056-.672-.056 6.72m-302.769.946c2.006.032 5.232.032 7.168-.001 1.937-.032.296-.059-3.646-.059-3.943 0-5.527.027-3.522.06m10.454 1.642c0 .712.037 1.003.081.647.044-.355.044-.938 0-1.294-.044-.356-.081-.064-.081.647m-.231 5.973c-.02.384-.078 1.056-.13 1.494l-.094.796.204-.796c.112-.438.171-1.11.13-1.494l-.075-.696-.035.696m-1.088 4.284c-.182.382-.29.694-.24.694.137 0 .741-1.219.65-1.31-.043-.043-.227.234-.41.616m95.382.835c.246.047.65.047.896 0 .246-.048.045-.087-.448-.087s-.694.039-.448.087m196.021.002c.302.046.75.044.995-.003s-.002-.084-.55-.083c-.548.002-.748.04-.445.086m-193.781 29.904c.821.065 45.082.072 98.357.016l96.865-.101-98.358-.016c-54.096-.009-97.685.037-96.864.101m195.967 13.109l-.049 12.991-197.561.05-197.561.05 197.568.05c157.907.04 197.586 0 197.662-.199.052-.137.071-6.028.042-13.091l-.053-12.843-.048 12.992m-397.41 13.129c.191.05.505.05.696 0 .192-.05.035-.091-.348-.091s-.54.041-.348.091" fill="#c8cced"/><path d="M1.045.73c-.357.143-.367 197.18-.01 197.538.379.378 397.35.345 397.868-.034.417-.305.604-14.172.306-22.724-.096-2.773-.149.053-.171 9.308l-.034 13.291-1.941-.001c-1.067-.001-90.507.001-198.755.004-108.248.002-196.927.003-197.064 0-.198-.003-.248-19.843-.248-98.529v-98.526l2.578-.131c3.605-.182 395.188-.162 395.3.02.05.082.121 6.062.157 13.29l.066 13.141-98.055.1-98.055.1 98.158-.001h98.158l.014-13.041c.007-7.173-.058-13.244-.145-13.49l-.158-.449-198.86.017c-109.373.009-198.972.062-199.109.117m198.457 41.679c0 8.104.067 14.734.15 14.734.082 0 .124-6.579.094-14.62l-.055-14.619.453-.087c.395-.076.383-.091-.094-.114l-.548-.028v14.734m4.043-13.988c1.183.036 3.065.036 4.181 0 1.117-.035.149-.064-2.151-.064s-3.213.029-2.03.064m184.658-.004c.356.044.938.044 1.294 0 .356-.044.065-.08-.647-.08s-1.003.036-.647.08m-332.52 27.863c-.073.073-.133 9.675-.133 21.337 0 11.663.048 21.157.108 21.097.059-.059.104-9.561.099-21.116l-.007-21.009.501-.126c.276-.069 20.075-.107 43.997-.084 23.923.023 43.558-.019 43.634-.095.075-.075-19.709-.137-43.965-.137-24.256 0-44.161.06-44.234.133m88.315.863c0 .383.041.54.091.348.051-.191.051-.505 0-.697-.05-.191-.091-.034-.091.349m255.032 13.633c-.004 7.498.07 13.68.164 13.738.094.058.156-2.65.14-6.017-.076-15.176.041-21.119.417-21.217.221-.058.154-.099-.183-.114l-.532-.023-.006 13.633m-255.498 7.771c-.08 21.039-.023 25.168.286 20.747.191-2.733.124-38.637-.075-40.082-.074-.536-.169 8.165-.211 19.335m-50.793-15.997c-.14.089 2.885.163 6.723.165 4.676.002 7.049.073 7.192.215.15.151.242.134.315-.057.059-.153-.036-.282-.222-.3-1.378-.129-13.808-.15-14.008-.023m-1.024 1.509c-.43 5.088.163 10.249 1.335 11.618.193.225.433.627.534.893.101.266.313.483.47.483.398 0 1.35 1.178 1.18 1.461-.098.163-.05.16.16-.01.24-.194.359-.174.605.1.168.187.495.47.727.628.295.201.362.359.224.525-.269.325.941 1.343 1.44 1.212.217-.057.315-.013.241.107-.177.285.315.551 1.021.551.445 0 .522-.048.304-.186-.397-.251-.188-.416.349-.276.24.063.38.208.309.322-.074.12-.032.148.102.065.367-.227.267-.483-.218-.556-.399-.059-.355-.129.408-.644.882-.595 3.859-3.539 4.003-3.959.045-.13.277-.549.516-.933 1.097-1.756 1.492-3.226 1.534-5.708l.041-2.355.118 2.489c.101 2.127.12 1.867.129-1.792.006-2.355-.039-4.012-.098-3.684-.101.553-.119.531-.239-.299-.076-.522-.147.556-.169 2.589-.073 6.552-.626 8.306-3.548 11.247-2.504 2.52-3.538 3.201-4.2 2.768-2.839-1.855-4.94-4.35-6.077-7.218l-.604-1.521-.014-4.626c-.014-4.8-.313-6.487-.583-3.291m43.477-1.221c-.279.171-.336.255-.131.191 1.282-.399 1.377-.39 1.22.11-.293.935-.294 1.063-.006.475.547-1.116.051-1.472-1.083-.776m-1.419.609c-.25.303-.231.309.224.073.667-.347.718-.404.356-.404-.169 0-.43.149-.58.331m-1.449 1.694c1.434 1.637 2.16 2.096 2.606 1.65.319-.319.348-.317.503.034.127.286.142.257.064-.125-.055-.274-.102-.565-.104-.647-.005-.276-.4-.153-.4.125 0 .853-.571.73-1.692-.365-1.128-1.101-1.697-1.492-.977-.672m-.119 1.154c.383.324.95.884 1.26 1.244.545.633.561.638.498.156-.044-.33-.412-.748-1.096-1.244-1.227-.89-1.646-.989-.662-.156m-3.484.016c-.548.196-.839.364-.647.373.797.036.246.861-.996 1.49-.356.181-.647.461-.647.624 0 .416 1.278-.123 1.911-.806.255-.276.662-.485.917-.473.337.017.366.047.109.115-.378.098-.49.858-.126.858.124 0 .176.175.118.398-.128.488.239.52 1.063.094.497-.257.587-.26.587-.021 0 .155-.134.334-.298.397-.164.063-.299.242-.299.398 0 .156-.14.338-.312.404-.206.079-.27.254-.187.514.081.256-.019.55-.285.835-.438.47-.557.878-.19.651.15-.093.177.015.085.337-.105.366.046.271.672-.423.565-.627.809-.791.811-.548.002.192.138.349.302.349.166 0 .299.177.299.398 0 .219-.095.398-.211.398-.116 0-.159.084-.096.187.187.302-.941 2.423-1.23 2.313-.179-.069-.255.119-.255.626 0 .399-.143.883-.317 1.075-.197.218-.267.506-.185.765.173.544.502.329.502-.328 0-.988 2.379-5.335 3.036-5.548.192-.062.349-.231.349-.376s.134-.316.298-.379c.165-.063.299-.296.299-.519 0-.447.302-.546.476-.156.061.137.1.025.086-.248-.04-.763.255-1.628.52-1.526.162.062.208-.103.147-.522l-.09-.612-.321.677c-.176.373-.544.791-.818.929-.274.138-.386.253-.249.254.137.002.249.093.249.202 0 .292-.326.243-.669-.099-.373-.373-.526-.379-.526-.019 0 .183-.139.244-.401.175-.57-.149-.71-.475-.325-.757.537-.392-.08-1.681-.819-1.712-.948-.04-1.052-.07-1.23-.357-.096-.154-.128-.401-.072-.548.056-.146.07-.255.031-.242l-1.066.383m3.686 1.69c.006.343.37.782.522.63.082-.082-.003-.3-.188-.485s-.335-.25-.334-.145m-63.716.391c0 .164.089.299.199.299.11 0 .199-.135.199-.299 0-.164-.089-.298-.199-.298-.11 0-.199.134-.199.298m-.664.631c-.19.19-.163.464.045.464.098 0 .23-.134.293-.298.116-.304-.096-.408-.338-.166m-1.327.642c0 .097-.247.243-.548.323-.301.08-.436.187-.3.237.301.111 1.595-.297 1.753-.553.063-.102-.115-.185-.396-.185-.28 0-.509.08-.509.178m66.886 3.322c-.198.239-.204.348-.023.46.17.105.188.409.062 1.08-.098.529-.099.933 0 .933.095 0 .177-.067.183-.149l.12-1.394c.116-1.318.074-1.431-.342-.93m.66.582c.003.438.043.594.091.346s.046-.606-.004-.796c-.05-.191-.089.012-.087.45m-54.079 1.3c.074.38.21.721.303.757.092.037.167.209.167.382 0 .173.054.261.12.196.138-.139-.281-1.547-.546-1.832-.106-.115-.124.086-.044.497m-9.684.859c0 .031.283.319.629.641.629.584.63.584.249.046-.317-.449-.878-.888-.878-.687m62.523 1.69c-.144 1.008-.204 1.891-.133 1.962.07.071.128-.183.128-.563 0-.381.132-.866.293-1.079.315-.417.368-1.15.126-1.767-.103-.262-.235.202-.414 1.447m-64.269.184c-.164.351-.181.568-.05.611.112.038.203.19.203.338 0 .149.071.314.157.368.087.054.127-.232.089-.635-.115-1.211-.136-1.247-.399-.682m62.008.38c-.073.073-.133.397-.133.72 0 .578-.007.582-.491.266-.562-.369-.703-.397-.703-.137 0 .167 1.09.811 1.374.811.065 0 .134-.404.153-.896.036-.929.022-.985-.2-.764m.92 1.56c.001.548.04.748.086.445.045-.302.044-.75-.003-.995s-.085.003-.083.55m1.606-.103c-.068.339-.208.54-.325.467-.291-.18-.023 1.628.354 2.384.24.48.25.656.05.898-.204.247-.195.284.05.203.358-.117.84-1.006.626-1.155-.402-.28-.67-1.46-.545-2.398.142-1.072-.015-1.372-.21-.399m-4.931.174c-.058.094.1.131.35.083.307-.059.613.079.94.424.266.281.568.512.671.514.103.002-.071-.266-.386-.594-.546-.571-1.351-.789-1.575-.427m-40.684.725c.002.439.043.594.091.347.047-.248.045-.606-.004-.797-.05-.19-.089.012-.087.45m10.058-.136c.12.358-.292.283-.431-.079-.074-.194-.029-.285.116-.237.13.044.272.186.315.316m12.629 2.101c-.194.966.028 3.112.294 2.846.38-.38.556-3.637.205-3.772-.218-.084-.343.148-.499.926m-37.98-.582c.212.171.526.303.696.294.269-.013.27-.031.012-.126-.164-.061-.478-.193-.697-.294-.392-.18-.392-.178-.011.126m57.297-.058c.049.148.249.299.444.337.227.044.323-.028.266-.199-.049-.147-.249-.299-.444-.337-.227-.044-.323.028-.266.199m2.446 1.762c-.251.107-.288.171-.1.171.164 0 .478-.077.697-.171.251-.108.288-.172.099-.172-.164 0-.477.077-.696.172m.597.597c-.068.109-.32.2-.559.202-.479.003-1.082.314-.921.475.138.138 1.978-.537 1.978-.725 0-.22-.354-.185-.498.048m-21.498.788c-.169.274-.02.479.274.377.121-.041.136-.181.038-.34-.125-.2-.205-.21-.312-.037m88.297 14.719v14.71l.448.12c.591.159 6.216.112 8.114-.067 1.027-.097-.043-.151-3.435-.173l-4.928-.032v-14.518c0-11.428.053-14.54.249-14.619.149-.06.109-.107-.099-.116-.329-.015-.349.812-.349 14.695m-70.064-14.096c-.262.104-.427.24-.366.301s.366-.027.676-.195c.626-.339.435-.404-.31-.106m-19.85.829c-.376.444-.376.445.019.125.219-.177.532-.372.697-.432.253-.093.25-.112-.019-.125-.175-.009-.489.185-.697.432m2.906-.005c0 .171-.135.362-.299.425-.376.145-.392.526-.021.526.279 0 .632-.949.429-1.152-.06-.06-.109.03-.109.201m-4.406 3.478c-.214.264-.216.302-.01.178.166-.1.443.009.746.294.662.621.834.355.188-.29-.614-.615-.579-.608-.924-.182m-33.623.26c.164.106.523.193.796.193.394 0 .436-.04.199-.193-.164-.106-.522-.193-.796-.193-.394 0-.436.04-.199.193m1.744.141c.248.047.606.046.797-.004.19-.05-.012-.089-.45-.087-.439.002-.594.043-.347.091m40.057.783c-.11.289-.16.564-.113.612.048.048.146-.099.219-.326.139-.441.498-.537.815-.22.108.108.548.136.986.064l.792-.129-.996-.26c-1.368-.356-1.475-.34-1.703.259m-4.253 2.788c-.095.246-.063.276.128.121.139-.114.432-.25.651-.304.315-.077.288-.103-.128-.121-.32-.014-.575.105-.651.304m-49.705 1.795c-.316.829-.119 9.26.25 10.721.337 1.338.966 2.68 1.439 3.073.173.143.314.349.314.458 0 .395 2.447 2.968 2.595 2.728.102-.165.271-.108.574.195.236.236.379.509.319.607-.149.24.282.49.905.525.28.015.689.085.908.154.99.315 5.146-3.58 6.525-6.115.91-1.671 1.504-4.902 1.416-7.699-.019-.602-.065-2.009-.104-3.126l-.069-2.031-3.797.067c-2.088.037-4.989.077-6.447.09-1.71.015-2.606.093-2.527.222.077.125-.308.191-1.033.178l-1.157-.021.797-.262.796-.263-.752-.015c-.637-.013-.782.065-.952.514m59.313.03c-.147.651-.206 1.477-.257 3.622-.041 1.76-.018 2.11.081 1.194.132-1.226.142-1.18.193.896.03 1.205.119 2.415.197 2.688.079.274.103-1.371.053-3.655-.108-4.979-.514-4.501 3.83-4.505 1.852-.002 3.33-.038 3.285-.08-.154-.143-7.35-.299-7.382-.16m-44.411 3.124c.158 7.624-1.116 10.666-5.973 14.267l-1.352 1.002-.879-.515c-1.455-.853-4.554-4.045-5.141-5.297-1.184-2.523-1.2-2.611-1.301-7.308-.052-2.432-.041-4.561.024-4.731.105-.274.962-.304 7.342-.258l7.223.053.057 2.787m-21.435 1.394c.007.438.082 1.289.165 1.891l.151 1.095.048-.896c.07-1.298-.004-2.247-.204-2.588-.119-.204-.169-.047-.16.498m87.369 1.692c-.099 1.588-.111 1.684-.269 2.232-.086.296-.074.787.028 1.09.287.863.716-2.125.476-3.322l-.18-.896-.055.896m-37.977-.358c-.367.367-.285.917.175 1.163.477.255 2.323.408 1.932.16-.141-.089-.536-.164-.878-.165-.727-.004-1.161-.431-1.013-.998.122-.466.103-.48-.216-.16m-48.742 1.055c.13.618.595 3.166.926 5.077.27 1.555.623 2.62.463 1.394-.202-1.541-1.258-6.826-1.389-6.95-.069-.065-.069.151 0 .479m-.245 1.394c-.004.219.112.98.259 1.692.147.712.272 1.07.277.797.006-.274-.11-1.036-.258-1.693-.149-.657-.274-1.015-.278-.796m36.24 1.869c-.205.127-.204.196.005.361.517.408 1.296.468 1.579.123.243-.297.22-.318-.219-.205-.302.078-.609.019-.801-.155-.177-.16-.419-.214-.564-.124m49.992 1.366c-.129.739-.381 1.927-.56 2.638-.18.712-.322 1.541-.316 1.842.006.301-.063.548-.154.548-.188 0-.888 2.31-.859 2.837.011.191-.053.348-.141.348-.089 0-.276.426-.417.946-.141.52-.326 1.038-.413 1.152-.086.113-.084.323.005.467.184.297.277.072 1.337-3.262.799-2.512 2.063-7.639 2.063-8.368 0-.962-.314-.471-.545.852m-85.639.349c0 .219.077.577.171.796l.171.398v-.398c0-.219-.077-.577-.171-.796l-.171-.399v.399m56.623 1.194c.14.665.237.819.408.648.063-.063-.031-.369-.21-.68l-.324-.565.126.597m10.431.95c.323.631.481 1.093.351 1.025-.13-.068.123.191.561.574.438.384.871.651.963.595.091-.056.52.266.953.716.432.451.87.819.971.819.102 0-.693-.873-1.766-1.941s-2.102-2.165-2.286-2.439c-.184-.274-.07.019.253.651m-66.65-.552c.003.219.077.623.165.896l.159.498.006-.498c.003-.273-.071-.677-.165-.896l-.171-.398.006.398m77.033.971c-.15.28-.336.47-.413.423-.077-.048-.354.157-.614.454-.261.298-.353.437-.204.308.149-.128.394-.186.545-.128.15.058.274.023.274-.077 0-.101.186-.382.412-.626.227-.243.381-.537.343-.653-.039-.116-.193.018-.343.299m-76.157.791c.074.515.041.724-.101.636-.297-.184-.271-.008.25 1.684.387 1.256.477 1.407.568.952.059-.298.035-.497-.054-.442-.226.14-.63-1.469-.499-1.989.059-.237.022-.696-.084-1.019-.174-.536-.181-.52-.08.178m72.659 2.247l-.598.511.597-.136c.643-.146 1.096-.445 1.096-.724 0-.323-.493-.165-1.095.349m-43.167.543c-.053.136.072.258.282.273.439.034.505-.253.094-.41-.155-.06-.325.002-.376.137m302.002.733c1.205.077 3.825.152 5.824.165l3.633.026.027.946c.015.52.014 6.232-.002 12.692-.017 6.461-.029 12.218-.027 12.793l.002 1.045-99.701.05-99.701.05v14.731c0 13.946.019 14.732.352 14.763.247.022.261.004.05-.062-.267-.083-.303-1.808-.303-14.712v-14.619l99.582-.001c64.78-.001 99.664-.07 99.817-.197.372-.308.303-27.097-.07-27.548-.244-.294-.886-.326-5.973-.295-4.402.026-5.201.065-3.51.173m-330.762.639c.05.137.253.74.451 1.34.292.888.387 1.017.512.696.227-.579.207-.835-.037-.493-.171.24-.194.21-.115-.15.06-.273.019-.399-.104-.323-.127.079-.152-.049-.068-.348.108-.382.09-.416-.094-.175-.184.242-.211.195-.14-.249.062-.388.003-.547-.205-.547-.16 0-.251.112-.2.249m1.074 2.397c-.389 1.549 8.334 17.664 8.801 16.261.044-.13-.162-.444-.456-.696-.294-.253-.529-.512-.522-.575.043-.375-.003-.563-.111-.455-.252.252-3.811-5.752-4.661-7.864-.252-.625-.538-1.087-.637-1.026-.098.061-.163-.01-.142-.158.097-.711-.011-1.073-.23-.766-.171.24-.194.21-.115-.15.063-.288.022-.401-.116-.316-.137.085-.167.009-.083-.209.088-.23.055-.295-.1-.199-.155.096-.188.031-.1-.199.084-.217.054-.294-.081-.21-.126.078-.197-.02-.174-.239.07-.665-.003-.894-.238-.749-.157.098-.195.008-.118-.287.073-.278.037-.383-.102-.297-.135.084-.167.011-.087-.199.18-.469-.056-1.056-.281-.696-.104.167-.156-.012-.139-.482.032-.886-.14-1.159-.308-.489m79.202 1.272c-.09.309-.169.651-.175.761-.006.109-.119.314-.251.454-.133.14-.19.386-.128.547.061.161.029.293-.073.293-.176 0-.363.372-1.54 3.067-.798 1.828-.474 1.515.546-.528 1.354-2.712 2.167-4.774 1.962-4.979-.104-.104-.246.056-.341.385m-19.001 5.899c0 .035.28.327.622.648.436.41.546.46.369.167-.219-.362-.991-.997-.991-.815m2.489 1.731c.169.328.353.597.408.597.055 0-.039-.269-.209-.597-.17-.329-.354-.597-.409-.597-.055 0 .04.268.21.597m12.07 1.676c-.444.703-.896 1.333-1.004 1.4-.109.067-.142.269-.073.447.083.218.047.278-.108.181-.136-.084-.233-.027-.233.136 0 .154-.177.44-.394.636-.216.195-.345.434-.286.53.136.219-.616 1.198-.787 1.027-.07-.07-.126.028-.126.217 0 .7 1.582-1.482 3.267-4.508.949-1.702.802-1.74-.256-.066m-12.242-.752c.112.447-1.539 1.819-2.052 1.706-.177-.039-.177.069 0 .457.178.391.337.483.68.399.247-.06.448-.022.448.085 0 .106.224-.015.498-.268.274-.254.498-.598.498-.764 0-.41.585-.533 1.624-.343.476.087.903.121.95.074.201-.199-.723-.644-1.131-.544-.287.07-.448.018-.448-.145 0-.139-.054-.2-.12-.134s-.33-.12-.587-.414c-.418-.479-.456-.491-.36-.109m-29.542 1.011c.303.046.751.044.996-.003.244-.047-.003-.085-.551-.083-.547.001-.748.04-.445.086m1.341.446l-1.891.108-.135.896c-.46 3.066.113 10.307.852 10.764.117.072.198.19.181.262-.105.423.256 1.348.426 1.096.142-.21.173-.179.131.126-.071.508.73 1.888 1.095 1.888.333 0 1.047.75.877.92-.168.168 1.748 1.774 2.599 2.178 1.1.522 2.248.614 2.547.204.138-.188.283-.313.323-.279.04.035.329-.138.643-.385.313-.246.49-.45.393-.452-.097-.003.109-.145.458-.317.348-.172.596-.417.551-.543-.088-.243 1.613-2.222 1.909-2.222.094 0 .288-.125.43-.278.191-.205.193-.241.01-.138-.395.224-.29-.022.233-.545.625-.625 1.414-2.21 1.605-3.22.162-.86.159-5.423-.003-5.686-.055-.088-.008-.216.103-.285.365-.225.247-2.51-.146-2.834-.332-.273-.332-.282 0-.177.449.141.444-.191-.012-.771l-.36-.458-5.464.02c-3.005.012-6.314.069-7.355.128m12.646.411c.21.34.121 7.721-.109 9.028-.502 2.853-2.661 5.914-5.745 8.147l-1.271.921-.913-.628c-2.782-1.915-5.232-5.053-5.87-7.521-.234-.901-.507-8.497-.357-9.902.034-.322 14.066-.367 14.265-.045m19.808.172c0 .098-.112.165-.249.15-.137-.015-.251.062-.254.171-.004.11.108.173.248.141.176-.041.248.177.232.697-.023.737-.027.741-.163.158-.135-.581-.141-.574-.229.231-.081.743-.054.809.262.64.327-.175.561-2.365.253-2.365-.055 0-.1.08-.1.177m-9.104 1.143c.304.16.642.235.751.168.11-.068.175-.01.145.128-.064.297.637.497.817.234.068-.099.345-.332.616-.517s.388-.337.261-.337c-.128 0-.291.096-.363.213-.073.117-.279.151-.46.075-.759-.317-2.374-.284-1.767.036m-45.626.438c-.021.412 1.605 2.822 1.904 2.822.062 0-.007-.144-.153-.32-.272-.328-.651-.942-.908-1.472-.08-.164-.255-.388-.389-.498-.135-.109-.287-.378-.338-.597-.082-.348-.096-.34-.116.065m49.072.888c.176.516.39.981.476 1.034.202.126-.362-1.53-.608-1.78-.103-.106-.044.23.132.746m9.953 1.489c-.048.047-.032.226.033.397.081.209.041.264-.118.165-.144-.089-.216-.043-.183.117.03.145-.057.241-.194.214-.137-.028-.238.017-.225.099.066.418-.049.656-.254.529-.142-.088-.176-.055-.088.088.079.126.048.23-.068.23s-.211.139-.211.31c0 .171-.09.255-.199.187-.11-.067-.199.007-.199.166s-.135.341-.299.404c-.164.063-.299.239-.299.392 0 .152-.224.445-.498.65-.273.206-.497.487-.497.626 0 .138-.1.251-.222.251-.235 0-1.428 1.094-4.546 4.164-1.046 1.031-1.678 1.707-1.405 1.502.274-.205 1.461-1.316 2.639-2.468 1.961-1.921 3.017-2.654 1.493-1.037-.356.377-.537.624-.401.547.527-.299 4.321-4.77 6.177-7.28.235-.317-.149-.541-.436-.253m-6.893.561c-.472.264-.465.269.209.149.832-.147.896-.184.546-.319-.147-.056-.487.02-.755.17m-53.182 3.02c.734.915 1.95 2.26 1.648 1.823-.121-.174-.153-.39-.072-.48.081-.089.035-.098-.101-.02-.137.079-.249.045-.249-.077 0-.121-.224-.428-.498-.681-.274-.254-.498-.525-.498-.602 0-.178-.525-.71-.699-.71-.072 0 .139.336.469.747m2.42 2.683c0 .382 4.093 4.398 4.383 4.301.146-.048-.048-.324-.472-.671-1.027-.842-3.492-3.23-3.417-3.31.035-.036-.062-.182-.215-.323-.228-.21-.279-.209-.279.003m49.388 3.549c-1.877 1.786-2.895 2.55-2.175 1.632.249-.317.242-.323-.083-.068-.239.187-.291.347-.158.48.133.133.682-.234 1.651-1.105 2.116-1.901 3.183-2.942 3.003-2.93-.086.005-1.094.901-2.238 1.991m82.87-.465c.303.046.751.045.995-.002.245-.048-.002-.085-.55-.084-.547.002-.748.04-.445.086m4.875.001c.356.045.938.045 1.294 0 .356-.044.065-.08-.647-.08s-1.003.036-.647.08m-131.578 2.395c.498.465 1.032.846 1.186.846.168 0 .076-.161-.225-.398-.278-.219-.604-.398-.723-.398-.12 0-.195-.067-.168-.15.027-.082-.008-.149-.079-.149-.07 0-.301-.134-.512-.299-.212-.164.023.083.521.548m39.642 1.581l-.896.921.884-.628c.486-.345.904-.763.928-.927.057-.387.119-.43-.916.634m-37.929-.138c.198.219.493.399.655.399.189 0 .114-.142-.212-.399-.278-.219-.573-.398-.655-.398-.082 0 .013.179.212.398m1.294 1.096c.761.561.796.574.796.298 0-.109-.123-.199-.274-.199-.151 0-.386-.134-.522-.299-.137-.164-.344-.298-.462-.298-.117 0 .091.224.462.498m34.146.914c-.766.544-1.528 1.101-1.692 1.238-.165.136-.367.265-.45.288-.43.115-1.342.678-1.342.828 0 .095-.204.224-.452.286-.249.063-.635.274-.859.47-.511.446-1.69 1.122-2.92 1.673-.52.233-.946.511-.946.617 0 .235 2.806-1.266 5.376-2.876 2.27-1.422 5.257-3.649 4.729-3.526-.028.006-.677.457-1.444 1.002m-32.553.197c.823.706 2.169 1.533 1.83 1.125-.129-.155-.17-.346-.093-.424.078-.077-.027-.076-.233.003-.261.1-.331.073-.231-.089.092-.15-.007-.233-.278-.233-.232 0-.366-.09-.299-.199.068-.11.022-.199-.102-.199-.123 0-.359-.135-.523-.299-.165-.164-.405-.295-.534-.291-.129.005.079.277.463.606m4.38 2.891c0 .185.787.454.881.302.061-.098-.113-.22-.386-.272-.272-.052-.495-.065-.495-.03m.995.573c0 .052.359.278.797.502.438.223.796.315.796.203 0-.112-.134-.203-.298-.203-.165 0-.299-.095-.299-.211 0-.116-.09-.156-.199-.088-.11.068-.199.028-.199-.088 0-.116-.135-.211-.299-.211-.164 0-.299.043-.299.096m1.792.995c0 .053.368.284.818.513.503.257.787.322.736.171-.045-.136-.255-.272-.466-.303-.211-.031-.415-.151-.454-.266-.068-.204-.634-.306-.634-.115m2.987 1.597c1.413.74 1.593.796 1.593.498 0-.109-.185-.199-.41-.199-.226 0-.355-.089-.289-.197.073-.117-.017-.143-.22-.066-.25.096-.298.061-.178-.132.108-.176.086-.216-.067-.122-.126.078-.429.002-.672-.168-.244-.171-.58-.306-.747-.301-.167.005.278.315.99.687m12.863-.464c.096.156.036.192-.182.108-.179-.068-.441-.009-.582.132-.141.141-.39.22-.553.175-.256-.069-.257-.053-.009.12.201.139.504.111.996-.095.944-.394 1.207-.673.636-.673-.293 0-.4.082-.306.233m-2.21.761c-.072.117.017.143.22.065.231-.088.296-.056.199.1-.094.153-.033.189.184.106.26-.1.272-.159.06-.294-.35-.222-.515-.216-.663.023m-2.689 1.097c-.274.157-.408.285-.299.285.11 0 .423-.128.697-.285.274-.156.408-.285.299-.285-.11 0-.423.129-.697.285m-2.455.569c.172.096.66.127 1.085.07.425-.057.728-.031.673.058-.055.089.083.114.306.056.673-.176.295-.291-1.077-.326-.831-.021-1.186.03-.987.142m.417.468c.247.047.606.046.796-.004.19-.05-.012-.089-.45-.087-.438.002-.594.043-.346.091" fill="#688c48"/><path d="M1.094 99.652c0 54.096.023 76.256.051 49.244.028-27.012.028-71.272 0-98.357-.028-27.085-.051-4.984-.051 49.113m76.59-43.554c12.12.028 32.01.028 44.202 0 12.191-.029 2.275-.052-22.035-.052-24.311 0-34.286.023-22.167.052m66.363 22.449c0 9.527.025 13.453.054 8.725.03-4.728.03-12.523 0-17.322-.029-4.799-.054-.931-.054 8.597m-49.074-15.687c6.305.14 11.502.143 11.418.007-.051-.082-3.201-.13-7-.106-3.799.024-5.787.068-4.418.099m-2.742 1.052c0 .384.041.54.091.349.05-.192.05-.505 0-.697-.05-.192-.091-.035-.091.348m.199 6.77c0 .383.041.54.092.348.05-.191.05-.505 0-.697-.051-.191-.092-.034-.092.349m306.439 6.57c0 .712.036 1.003.08.647.045-.355.045-.938 0-1.294-.044-.356-.08-.064-.08.647m-295.147-.049l-.686.746.747-.686c.695-.639.838-.807.686-.807-.033 0-.369.336-.747.747m-33.148 18.718l6.263.053.071 1.341.072 1.341-.013-1.394-.013-1.393h-12.643l6.263.052m65.46.644c0 .384.041.541.091.349.05-.192.05-.505 0-.697-.05-.192-.091-.035-.091.348m-80.623.996c0 .602.037.849.083.548.045-.302.045-.794 0-1.096-.046-.301-.083-.054-.083.548m80.577 2.796c0 1.965-.451 4.886-.812 5.258-.101.104-.183.355-.183.558 0 .374-.742 2.155-.974 2.339-.069.054-.304.443-.522.863-.218.42-.553.849-.744.953-.192.104-.349.306-.349.448 0 .143-.224.362-.498.487-.273.125-.497.318-.497.43 0 .112-.135.203-.299.203-.164 0-.299.105-.299.234 0 .128-.156.413-.348.633-.192.22.201-.041.872-.581 1.416-1.14 2.286-2.371 3.696-5.226l1.013-2.053.1-3.273c.054-1.8.042-3.273-.029-3.273-.07 0-.127.9-.127 2m-59.074 2.381c0 .602.037.848.083.547.045-.301.045-.794 0-1.095-.046-.301-.083-.055-.083.548m45.191.398c0 .493.039.694.086.448.048-.247.048-.65 0-.896-.047-.246-.086-.045-.086.448m6.261 10.165c.277.255 1.052.42 1.052.224 0-.104-.272-.229-.604-.278-.332-.049-.534-.024-.448.054m-35.335 15.662c.302.046.794.046 1.095 0 .302-.046.055-.083-.547-.083-.602 0-.849.037-.548.083m3.786 0c.303.046.751.045.996-.003.244-.047-.003-.084-.551-.083-.547.002-.748.04-.445.086m4.181 0c.303.046.751.045.996-.003.245-.047-.003-.084-.55-.083-.548.002-.748.04-.446.086m5.577 7.821c0 .493.039.695.086.448.048-.246.048-.649 0-.896-.047-.246-.086-.044-.086.448m-31.911 4.48c1.036 1.041 1.928 1.892 1.983 1.892.055 0-.748-.851-1.784-1.892-1.036-1.04-1.928-1.891-1.983-1.891-.055 0 .748.851 1.784 1.891m175.759.647c26.747.028 70.515.028 97.262 0 26.748-.027 4.864-.05-48.631-.05-53.494 0-75.378.023-48.631.05m-147.287 2.141c-.484.493-.835.896-.78.896.055 0 .495-.403.979-.896s.835-.896.78-.896c-.055 0-.495.403-.979.896" fill="#beb4dc"/><path d="M55.423 58.736c0 1.04.033 1.466.074.945.041-.52.041-1.371 0-1.891s-.074-.095-.074.946m.002 4.48c.001 1.204.034 1.671.073 1.038.04-.634.04-1.62-.001-2.191-.04-.571-.072-.052-.072 1.153m79.605-.163c-.77.272-.829.337-.575.631.155.18.383.507.506.726.22.39.227.389.351-.054.095-.336.192-.399.379-.243.188.156.282.086.373-.276.067-.267.176-.628.243-.802.15-.39-.134-.386-1.277.018m-1.73.859c-.068.11-.08.199-.028.199.052 0 .238.055.412.122.232.089.285.036.194-.199-.139-.363-.395-.417-.578-.122m-.695 1.108c-.002.2.487.694 1.57 1.586l.476.393-.275-.448c-.152-.247-.382-.448-.512-.448s-.466-.292-.746-.648c-.281-.355-.511-.551-.513-.435m.994.063c0 .254.585.7.73.555.144-.145-.301-.73-.555-.73-.097 0-.175.079-.175.175m-2.893 1.03c-.065.104.134.191.442.195.593.007 1.256.398 1.256.741 0 .113.154.265.343.337.268.103.285.167.081.293-.317.197.102 1.012.52 1.012.304 0 .331-.325.042-.504-.145-.089-.145-.205-.001-.379.153-.185-.002-.444-.596-.993-.782-.724-1.852-1.084-2.087-.702m-75.282 2.279c0 1.095.034 1.518.074.939.04-.578.04-1.474-.001-1.991-.041-.516-.074-.043-.073 1.052m67.929-.909c-.203.329.22.407.61.113.365-.277.363-.286-.059-.293-.24-.003-.488.078-.551.18m7.077 1.489l-.482.266h.531c.318 0 .531-.109.531-.273 0-.327.022-.327-.58.007m-75.006 3.601c0 1.095.034 1.518.074.939.04-.578.04-1.474-.001-1.991-.041-.516-.074-.043-.073 1.052m75.188-.995c-.203.245-.189.299.075.299.178 0 .323-.135.323-.299 0-.164-.033-.299-.075-.299-.041 0-.186.135-.323.299m.611 2.423c-1.344 2.471-1.753 3.77-1.109 3.522.209-.08.299.016.299.317 0 .267.085.379.222.294.137-.084.186-.512.128-1.113-.051-.536-.017-1.023.077-1.081.094-.057.172.057.174.255.002.306.032.315.196.062.106-.164.194-.685.196-1.157.001-.472.082-.809.179-.749.273.169.719-1.061.473-1.307-.139-.14-.404.164-.835.957m1.48 1.513c-1.043 2.668-1.166 5.402-.277 6.171.282.245.477.58.433.744-.071.266-.059.266.109 0 .217-.342-.133-2.407-.444-2.623-.124-.085-.117-.23.017-.398.394-.493.528-2.156.174-2.156-.171 0-.311-.079-.311-.177 0-.097.157-.164.349-.149.232.019.367-.138.407-.47.033-.274.138-.722.234-.996.864-2.46.274-2.414-.691.054m-77.264 7.015c0 3.175.027 4.447.061 2.825.033-1.622.033-4.221 0-5.774-.034-1.554-.061-.227-.061 2.949m71.838-2.061c-.465.327-.846.677-.846.78 0 .28.111.237 1.038-.403.772-.532.877-.557 1.1-.263.348.458.533.182.217-.324-.332-.532-.479-.511-1.509.21m6.01 2.346c-.102.098-.41.219-.684.268-.424.076-.404.093.138.116.349.015.694-.068.766-.185.175-.282.015-.426-.22-.199m-77.871 6.882c.001.767.037 1.056.08.643.043-.413.043-1.04-.001-1.394-.044-.353-.08-.015-.079.751m88.387 9.956c.003.438.043.593.091.346.048-.248.046-.606-.004-.797-.05-.19-.089.013-.087.451m-24.054 46.142l-.585.647.647-.585c.356-.321.647-.613.647-.647 0-.154-.164-.018-.709.585" fill="#d6c48e"/></g></svg>