<svg version="1" xmlns="http://www.w3.org/2000/svg" width="1206pt" height="600pt" viewBox="0 0 1206.000000 600.000000"><path fill="#F80504" d="M0 300v300h1206v-600h-1206v300zm1203-257v40l-300.7.2-300.8.3-.3 44.2-.3 44.3h602.1v83l-300.7.2-300.8.3v89l299.5.2c164.7.2 300.1.3 300.8.3.9 0 1.2 9 1.2 41.5v41.5h-602v89h602v80h-1200v-594h1200v40zM167.7 169.7c-1.1 1-.8 116.7.3 129.3 5.8 65.6 40.2 122 95.2 156.2 10.2 6.3 31.1 16.6 35.6 17.4 3.8.7 10-1.5 24.2-8.7 62.5-31.7 105.1-94.4 110-161.6.5-7.6 1-40.7 1-73.6v-59.7h-132.8c-73.1 0-133.2.3-133.5.7zm193.1 31c2.3.4 3.2 1.1 3.2 2.4 0 1.8-1.9 1.9-60 1.9-54.2 0-60.1-.2-60.7-1.6-.3-.9 0-2 .8-2.5 1.4-.9 110.6-1.1 116.7-.2zm-22.8 7.5c0 .5.8.4 1.9-.2 2.8-1.5 4.1-1.2 4.1.7 0 1.7-2.8 1.8-47.7 1.6-26.3-.2-50.4-.4-53.6-.5-3.1-.2-5.7 0-5.7.4 0 .5-.4.8-1 .8-.5 0-1-.9-1-2.1v-2.1l49.5.3c27.2.2 49.5.1 49.5-.3 0-.3.9-.4 2-.1 1.1.3 2 .9 2 1.5zm9.8 1.1c.5 2.4-1.5 2.1-2.1-.4-.3-1.3-.1-1.9.6-1.6.7.2 1.3 1.1 1.5 2zm25-.3c.2 1.3-1.6 1.5-11.8 1.5-10 0-12-.2-12-1.5 0-2.3 23.3-2.2 23.8 0zm-3.2 3.9c.8.7 1.1 23.5.4 32.2-1.1 13.8-1.4 14.7-4.9 15.5-1.4.3-5.5 1.7-9.1 3.2-6.6 2.7-15 9.8-15 12.6 0 .9-1.2 2.2-2.7 3-1.6.8-2.2 1.5-1.5 1.6.6 0 1.2.4 1.2.8 0 .8-7.8.8-38.3.1-5.4-.1-10.1.1-10.4.5-1 .9-9.3.7-18-.5-14.2-1.9-23.7-8.5-29.7-20.5l-4-7.9-.4-19.2c-.2-10.6-.2-20 .2-20.9.6-1.5 6.3-1.6 66.4-1.1 36.1.3 65.7.6 65.8.6zm-134.6 34.2c.4 6.9 1.1 9.7 3.6 14.8 1.7 3.4 2.8 6.4 2.4 6.6-1.1.7-12.6.5-19-.2-5.1-.6-5.9-1-13.6-8.4-4.7-4.5-9.1-7.9-10.3-7.9-2.6 0-3.4-1.5-1.6-3 2.5-2.1 6.7-.1 13.2 6.1 5.9 5.7 6.4 6 10 5.3 5.4-.9 6.6-2.5 7.1-9.4s-.6-9-4.8-9c-3.2 0-4.1-.7-3.3-2.6.4-1.2 2.3-1.4 8.2-1.2l7.6.3.5 8.6zm142.3 3.9c-.1 6.3-.6 11.6-1.1 11.8-.5.1-2.1-.2-3.5-.7-2.3-.9-2.5-1.3-1.7-4.1.5-1.6 1.2-6.6 1.6-11.1.6-7.4.8-8 2.8-7.7 2 .3 2.1.8 1.9 11.8zm14-11.1c.4 0 .7 6.2.7 13.6v13.5h-3c-2.9 0-3-.1-3.2-5.3l-.2-5.2-.3 5.2c-.4 5.8-.8 6.1-4.1 3.7-2.1-1.4-2.2-2.3-2.2-13.4 0-10.5.2-11.9 1.8-12.3 1.5-.3 8.1-.2 10.5.2zm-17.7 25.6c5.5 1.6 12.6 7.1 14.9 11.5 2.4 4.7 4.5 11.3 4.5 14.6 0 13-10.9 24.8-23.5 25.4-10.2.5-12 .1-18.2-4-8.5-5.8-11.8-11.8-11.8-22 0-6.4.4-8.2 2.7-12.1 7-11.9 19.1-17.1 31.4-13.4zm-132.3 11.9c3.6 1.5 8.1 5.7 10.8 10.1 2.6 4.2 2.5 13.5-.2 19.1-3.8 8-15.3 13-23.8 10.5-17.2-5.1-21.2-26.7-6.9-37.4 1.8-1.4 4.2-2.7 5.3-3 4.1-1 11.7-.7 14.8.7zm55.7 13.1c.7.9.8 1.5.2 1.5-.5 0-1.2-.7-1.6-1.5-.3-.8-.4-1.5-.2-1.5s.9.7 1.6 1.5zm4.7.7c-.3.8-.6.5-.6-.6-.1-1.1.2-1.7.5-1.3.3.3.4 1.2.1 1.9zm2 0c-.3.8-.6.5-.6-.6-.1-1.1.2-1.7.5-1.3.3.3.4 1.2.1 1.9zm4 0c-.3.8-.6.5-.6-.6-.1-1.1.2-1.7.5-1.3.3.3.4 1.2.1 1.9zm-16.7-.2c0 1.3-32 1.3-34 0-1-.6 4.4-1 16.3-1 11.1 0 17.7.4 17.7 1zm20.7-.4c-.3.3-1.2.4-1.9.1-.8-.3-.5-.6.6-.6 1.1-.1 1.7.2 1.3.5zm25.3.4c0 .6-4 1-10 1s-10-.4-10-1 4-1 10-1 10 .4 10 1zm-54.7 30.2c59.5.1 112.3.3 117.2.4 5 .1 13.6.2 19.2.3 8.7.1 10.1.3 9.7 1.6-.7 1.8-5.5 2-7.3.2-1-1-1.2-.9-.9.3.3 1.3-13.8 1.5-122.6 1.3-132.3-.2-124.7.2-124.5-5.3.1-1.7.3-1.9.6-.8.4 1.7 6.5 1.8 108.6 2zm-34.4 7.5c1 1.7 1 1.7 1.1 0 0-1.6 1.9-1.7 25.6-1.7h25.6l-.4 4.5c-.2 2.6.1 4.5.7 4.5s.9-1.9.7-4.5l-.4-4.5h24.8c21.6 0 25 .2 26.6 1.7 1.7 1.5 1.8 1.5 1.8-.1 0-1.4 1.5-1.6 12.8-1.6 7 0 18.4.3 25.5.7l12.7.6v3.2c0 4.2-.9 4.5-12.2 4.5-14.4 0-9.8.8 8.2 1.5 9.1.4 17.8.7 19.4.8 1.6.1 3.1-.4 3.4-1.1.3-.9-1.6-1.2-7-1.2-4 0-7.8-.4-8.4-.8-1.1-.7-1.8-3.2-1.5-6 .1-1.7 20.1-1.7 20.1 0 0 1.2-2.7 11-4.1 14.5-.7 2-1.5 2.1-13.1 2.4-19.8.5-29 .2-29.7-.9-.4-.6-1-.5-1.8.3-1.5 1.6 4.4 2.5 16.9 2.5 6.9 0 9 .3 9.4 1.5.5 1.3.8 1.3 2.1 0 1.9-1.9 14.3-1.8 14.3.1 0 2.8-2.5 6.5-4.7 7-2.9.8-7.3-.3-9.5-2.3-1.6-1.5-1.8-1.5-1.8 0 0 1-1.3 2-3.2 2.5-2.6.7-1.2.9 6.1 1 5.1 0 9.5.2 9.6.4.8.7-7 16.8-8 16.8-1.9 0-3.6-2.5-3-4.2.4-.9 1.6-2 2.8-2.6 1.7-.8.3-1.1-6.8-1.1-7.5-.1-10-.6-15.2-2.8-6.2-2.7-8.4-5-6.2-6.3.6-.4-2.6-.8-7.1-.9-5-.1-9.3-.7-11.1-1.6-1.5-.8-3.6-1.5-4.7-1.5-5.1 0-6.5-5.2-1.8-7 1.3-.5-1.1-.7-6.4-.7-4.7 0-6.9.2-5 .4 6.8.7 7.8 1.2 7.3 3.3-.6 2.4-1.8 2.5-10.9.2-4.3-1-6.9-2.2-6.7-2.8.6-1.7-5.2-2-29.2-1.4-26.6.6-30.5.4-30.5-1.7 0-1.5-.2-1.5-1.3.1-1.1 1.5-2.9 1.8-10.8 1.9-6.7 0-7.6.2-3.1.4 3.4.2 6.2.7 6.2 1.1 0 .6-13.9 4.2-16.2 4.2-1.3 0-.9-4.8.5-5.3.6-.3-1-.5-3.8-.5-4 0-4.4.2-2 .7 2.3.5 3.1 1.2 3.3 3.2.3 2.4-.2 2.7-6.5 4.4-3.7 1-8.3 1.9-10.1 2-2 .2-3.9.9-4.4 1.9-1.2 2.1-4.5 2.1-5.1-.2-.3-1.2-.5-1.1-.6.6-.1 1.6-1.1 2.7-3.7 3.8-6.3 2.6-3 2.6 4 0 3.6-1.4 6.6-2.3 6.6-1.9 0 .3.6 0 1.4-.6 1.4-1.2 8.7-3.5 15.8-5.1 2.4-.5 7.9-1.8 12.3-2.9 4.4-1.2 8.3-2.1 8.7-2.1.3 0 1.1 1.2 1.6 2.7l1 2.8.1-2.6c.1-3.4 1.5-3.9 10.5-3.9 6.9 0 7.3.1 8.3 2.7l1.1 2.8-.5-3.2-.5-3.1 8.3-.4c12.8-.5 16.9 0 16.9 2 0 1.4.2 1.5 1 .2.7-1.1 2.5-1.4 7.7-1.2 7.8.4 10 1.3 10.6 4.4.4 1.9.4 1.8.6-.5.1-2.2.5-2.7 1.9-2.3.9.2 5.2 1.2 9.5 2.2l7.9 1.6-.6 3.7-.5 3.6 1.1-3.3c.6-1.7 1.8-3.2 2.6-3.2s5 1.2 9.4 2.6c7.1 2.4 7.8 2.8 7.2 4.8-.6 2-.6 2.1.9.2 1.4-2 1.6-2 8.3.9 8.6 3.5 9.7 4.4 9 6.9-.5 2-.5 2.1.9.2 1.4-1.9 1.7-1.8 10 2.5 4.7 2.4 8.5 4.6 8.5 4.9 0 .3-.9 2-2 3.7-2 3.3-3.8 4.1-5.6 2.4-.5-.5-3.7-2.3-7.1-4.1-3.5-1.7-6.3-3.6-6.3-4.1 0-.6-.6-.9-1.2-.6-.7.2-3.7-.7-6.6-2-2.9-1.2-5.9-2.3-6.7-2.3-.7 0-2-.9-2.8-2-.8-1.1-1.7-1.7-2-1.3-.7.6-11.1-2-15.7-4-1.4-.6-2.9-1-3.3-.8-.5.1-4.5-.6-8.9-1.6-6.2-1.3-8.2-2.1-8.8-3.7-.8-1.9-.9-1.9-.9-.2-.1 1.7-.7 1.8-5.3 1.2-2.9-.3-7.2-.6-9.5-.6-3.4 0-4.3-.4-4.3-1.8s-.2-1.4-.9-.3c-.7 1.1-3.3 1.4-10.6 1.4s-9.9-.3-10.6-1.4c-.7-1.2-.9-1.1-.9.2s-1.7 1.7-9.2 2.2c-5.1.4-13.6 1.6-18.8 2.7-6.1 1.2-9.6 1.6-9.9.9-.1-.5-.8-.3-1.5.6-1.3 1.7-15.1 5.9-17.1 5.1-.7-.2-1.6.1-1.8.9-.3.7-3.2 2.3-6.4 3.5-7 2.6-23.1 10.6-25.5 12.7-1.5 1.3-1.9 1-4.3-3.2-1.5-2.5-2.6-4.7-2.4-4.8 11.5-6.3 15.1-7.9 16.8-7.4 1.1.2 2.1-.5 2.8-1.9 1-2.1.9-2.2-1.4-1.3-1.3.5-3.3.9-4.3.9s-3.1 1.1-4.6 2.5c-1.5 1.4-3.5 2.5-4.4 2.5-1 0-2.3.7-3 1.5-.7.8-1.6 1.5-2.1 1.5-2 0-11.7-24.6-15.3-38.7-.9-3.4-1.9-6.9-2.2-7.7-.5-1.4 3.9-1.5 36-1.6 33.7 0 36.6.1 37.5 1.7zm130.1 30.3c0 .5-.7 1-1.5 1s-1.5-.5-1.5-1c0-.6.7-1 1.5-1s1.5.4 1.5 1zm26.2 10.8c-.6.2-1 .8-.6 1.3.7 1.2-.3 1.1-2.7-.2-2.7-1.4-1.6-2.7 1.8-2.1 1.6.3 2.2.7 1.5 1zm-96.1 5.2c3.6 2.7 4.7 7.6 2.5 11.9l-1.7 3.1h6.8c8.2 0 9.8.8 8.9 4.4-.6 2.5-.9 2.6-8.5 2.6-10.9 0-11.2.2-10.6 5.9.2 2.5.7 10.1 1 16.8.7 15.7 1.3 17.3 6.3 17.3 3.8 0 9.8-3.3 13-7.3 1.1-1.3 1-1.7-.7-2.7-2.9-1.5-2.6-2.9.7-4.1 1.5-.5 4.6-2 6.9-3.2 2.3-1.2 4.4-1.9 4.6-1.7.6.6 1.4 17 .9 17-.2 0-1.8-.8-3.4-1.8-2.7-1.5-3.1-1.5-3.6-.2-.9 2.9-9.8 10.5-16.1 13.9-3.5 1.9-8.1 4.9-10.3 6.9-4.2 3.8-3.6 3.9-10.5-1.9-1.7-1.5-6-4.2-9.5-6-3.5-1.9-8.7-5.8-11.7-8.7-5.1-5.1-5.4-5.2-7.2-3.6-1.1 1-2.2 1.4-2.6 1-.7-.7-.5-15.7.2-16.4.1-.2 3.7 1.1 7.9 2.9l7.7 3.2-2.6 2.2-2.7 2.1 4.6 3.8c2.5 2 6 4.1 7.7 4.6 2.6.8 3.5.5 5.5-1.5 1.3-1.3 2.5-3.2 2.5-4.2.2-2.4.5-10.4.9-23.3l.4-10.5-8.8-.5c-6.8-.4-9.1-.9-9.9-2.2-2-3.2.8-4.8 8.4-4.8h6.8l-1.5-3.5c-2.1-5-1.8-7.3 1.5-10.6 2.5-2.5 3.7-2.9 8.1-2.9 3.6 0 6.1.6 8.1 2zM242 233.4c0 10.5.3 14.6 1.3 15.4 1.1.9 1.3-1.3 1.2-11.6v-12.7h8.3c5.9 0 8.2-.4 8.2-1.3s-2.4-1.2-8.5-1.2c-6.9 0-8.5-.3-8.5-1.5 0-.8-.4-1.5-1-1.5s-1 5.5-1 14.4zM364 221c0 .5-4.4 1.1-9.7 1.2l-9.8.3v16.1c0 12.2-.3 16.5-1.4 17.7-1.2 1.5-1.1 1.7 1.2 1.7h2.6l-.3-15.9c-.2-8.8 0-16.5.4-17.1.8-1.2 15.2-1.6 17.1-.4.5.3.9-.6.9-2s-.2-2.6-.5-2.6-.5.4-.5 1zM293 233.5c0 6.5.3 11.5.7 11.2.3-.4.7-5.1.7-10.4l.1-9.7 3.8-.9c2.2-.6 5.9-.5 9.5.1 3.1.6 5.9.8 6.1.6 1.1-1.1-1.6-1.6-10.8-2.1l-10.1-.6v11.8zM322.2 230.2c-1.5 1.5-1.6 13.4-.1 14.3 1.5 1 2.2-.1 1.2-1.9-.5-.9-.6-3.8-.3-6.4l.5-4.7 6.8.3c4.1.1 6.7-.2 6.7-.8 0-.5-2.4-1-5.4-1-3 0-6-.2-6.8-.5-.7-.3-1.9 0-2.6.7zM269 233.2l.1 3.3 1.5-2.8c1.3-2.4 2-2.7 6.5-2.7 2.8 0 6 .5 7.1 1.1 1.6.9 1.9.8 1.6-.3-.3-.9-2.9-1.4-8.6-1.6l-8.2-.3v3.3zM269.7 237.7c-.4.3-.7 1.3-.7 2.2.1 1.3.3 1.3 1.1-.2 1.1-1.9.8-3.3-.4-2zM269 243.5c0 .8.5 1.5 1 1.5.6 0 1-.7 1-1.5s-.4-1.5-1-1.5c-.5 0-1 .7-1 1.5zM243.2 253.9c.2 1.4.9 2.6 1.6 2.9 1.7.5 1.5-1-.3-3.4-1.5-1.8-1.5-1.8-1.3.5zM363.1 255.6c0 1.1.3 1.4.6.6.3-.7.2-1.6-.1-1.9-.3-.4-.6.2-.5 1.3zM287.5 258.9c-.3.5-.1 1.2.5 1.6.5.3 1-.1 1-.9 0-1.8-.6-2.1-1.5-.7zM318.8 258.7c.7.3 1.6.2 1.9-.1.4-.3-.2-.6-1.3-.5-1.1 0-1.4.3-.6.6zM385.3 249c0 4.1.2 5.8.4 3.7.2-2 .2-5.4 0-7.5-.2-2-.4-.3-.4 3.8zM359.1 270.4c-2.7 1-3.1 1.4-1.9 2.3.8.7 2.4 3.3 3.7 5.8 2.9 5.8 5.3 6.2 4 .5-.6-2.4-.5-4.9.1-6.5.6-1.5 1-2.8 1-3.1 0-.7-3.4-.3-6.9 1zM367.4 276c0 7.9 1.3 9 3.7 3.1.9-2.2 2.6-4.4 3.8-5 2.9-1.6 2.8-.1-.6 6-2 3.8-2.4 5.2-1.5 6.1.9.9 1.2.8 1.2-.3 0-1.8 7.6-5.6 8.8-4.5.8.9-5.7 6.5-7.5 6.6-.7 0-1.3.5-1.3 1 0 .7 2 1 4.8.9 2.6-.1 5.4.2 6.3.5 2.8 1.2 3.1-1.1.8-6.6-2.7-6.5-6-10.2-11.4-12.8-6.8-3.3-7.2-3-7.1 5zM349.5 278l-2.9 3h2.5c1.3 0 4.4 1.2 6.8 2.5 3.1 1.8 4.8 2.2 5.5 1.5.7-.7.5-1-.5-1-.8 0-2.3-1.4-3.2-3-1-1.7-1.5-3-1.2-3 .4 0 0-.7-.9-1.5-2.1-2.1-2.8-1.9-6.1 1.5zM345.1 285.1c-.6 1.8-1.1 3.6-1.1 4 0 .5 3.4.9 7.5.9 6.2 0 7.5-.3 7.5-1.6 0-1-.5-1.4-1.5-1-.9.3-3.4-.7-5.7-2.4-2.2-1.7-4.4-3-4.9-3-.4 0-1.2 1.4-1.8 3.1zM363.8 289.2c-.4.9 0 2.4.7 3.5 1.1 1.5 1.6 1.6 2.7.5s1.1-1.3-.1-1c-.8.2-1.7-.8-2.1-2.2-.5-2-.7-2.2-1.2-.8zM344 293.9c0 1.4 1 4.2 2.1 6.1 2.2 3.7 6.9 9 7.9 9 .3 0 1.6-2.3 2.9-5 1.3-2.8 2.8-5 3.2-5 1.3 0 1.1-2.7-.3-5.3-.7-1.2-1.4-2.3-1.4-2.5-.1-.1-1.2.2-2.5.7-1.3.5-4.5.5-7.1.1-4.7-.7-4.8-.6-4.8 1.9zm15 1.8c0 2.3-8.9 6.8-10.4 5.3-1.1-1.1-1.3-1 4.4-4.3 5.3-3.2 6-3.3 6-1zM386.9 291.4c-.3.3-7.4 1.1-13.1 1.5-1.7.2-.7 2.1 1 2.1 1 0 3.3 1.1 5.2 2.5 4.3 3.2 5.6 3.1 6.8-.3.5-1.5 1.3-3.5 1.7-4.5.6-1.5-.4-2.4-1.6-1.3zM374.2 302.6c1.7 3 2.8 5.8 2.5 6.1-.8.7-6.7-5.8-6.7-7.4 0-.8-1.2-1.8-2.6-2.3-2.6-1-4.4-.6-4.4 1 0 .5-1.4 3-3.2 5.5-3.6 5.1-3.2 6.2 2.4 7.1l3.5.6-.1-6.2c-.1-4.5.3-6.4 1.3-6.8 1-.3 1.2.9 1 5.9-.4 6-.3 6.4 1.8 6.7 2.4.4 10.7-4.7 13.5-8.2 1.6-2 1.5-2.1-4.4-4.8-3.3-1.6-6.4-2.8-6.8-2.8-.5 0 .5 2.5 2.2 5.6zM227.3 282.6c-.3.8.4 2.5 1.6 3.8 1.1 1.2 2.1 2.8 2.1 3.4 0 .7.4 1.2.8 1.2.5 0 .8-1.9.8-4.1-.1-2.7.4-4.4 1.3-4.7 1-.3 1.2.5.9 3.7-.2 2.2 0 4.1.4 4.1.5 0 .8-.5.8-1.2 0-.6 1-2.2 2.2-3.5 1.9-2 2-2.5.8-3.3-2.6-1.6-11-1.2-11.7.6zM222.2 285.2c-1.5 1.5-1.6 3.8-.1 3.8.6 0 2.5 1 4.1 2.2 1.7 1.2 2.9 1.7 2.7 1.2-1.9-4.1-4.4-8.4-4.9-8.4-.3 0-1.1.5-1.8 1.2zM242 284.9c0 .5-1.2 2.3-2.6 4-3 3.6-2.8 3.7 2.1 1.4 4.4-2.1 5.9-.8 2.3 2.1-1.6 1.2-2.8 2.4-2.8 2.7 0 .2 1.8.4 4.1.4 3.6 0 4-.2 3.4-2.2-1.2-5-6.5-11.8-6.5-8.4zM217.9 292.6c-.5 1.5-.8 2.8-.7 2.9.2.1 2 0 4.1-.3l3.8-.4-2.2-2.4c-2.9-3.1-3.7-3-5 .2zM217.5 300.2c1.1 3.6 1.7 3.7 6.2.8l4.2-2.7-5.5-.2c-5.3-.1-5.5-.1-4.9 2.1zM243 300.9c3.6 2.9 5 2.6 5-1.2 0-1.3-.9-1.7-4.2-1.7h-4.2l3.4 2.9zM227.5 301.2c-.4.9-2.2 2.2-4.1 2.8-3 1-3.2 1.3-2.1 3.1.6 1 1.6 1.9 2.2 1.9 1.4-.1 5.7-7 5.2-8.4-.3-.6-.8-.4-1.2.6zM237 302c0 .5.6 1 1.3 1 .7 0 1.8 1.4 2.4 3.1.7 1.8 1.7 2.9 2.5 2.7 2.7-.9 1.8-3.6-1.7-5.7-4.1-2.4-4.5-2.5-4.5-1.1zM231.1 304.1c-.5 1.3-1.8 3.3-3 4.3-1.6 1.5-1.8 2.1-.9 2.8 3.1 1.9 4.5.9 5.1-4 .6-5.4.2-6.6-1.2-3.1zM235 305.5c0 1.6-.3 4-.6 5.2-.7 2.6 1.2 3.1 3.8 1 1.3-1.1 1.3-1.6-.8-5.2l-2.4-4v3zM247.7 333.4c-.4 1-.5 2.1-.2 2.4.9.9 1.7-.6 1.3-2.5-.3-1.7-.4-1.7-1.1.1zM352 334.9c0 .5.7 1.2 1.6 1.5 2.4.9 2.7.7 1-.9-1.7-1.7-2.6-1.9-2.6-.6zM220.7 340c.4 2.5.1 4.6-.7 5.5-1.1 1.3-.8 1.5 1.6 1.5 2.1 0 2.5-.3 1.5-.9-1-.6-1.2-2.2-.9-5.5.4-3.3.2-4.6-.7-4.6-.9 0-1.2 1.1-.8 4zM273 337.2c0 .7.4 1.9.9 2.6.6 1 1 .7 1.3-1.2.4-1.8.1-2.6-.8-2.6-.8 0-1.4.6-1.4 1.2zM316.8 336.7c.7.3 1.6.2 1.9-.1.4-.3-.2-.6-1.3-.5-1.1 0-1.4.3-.6.6zM322.3 336.7c1.7.3 2.7 1.1 2.7 2.1.1 1.6.2 1.6 1.3 0 .7-.9 2.4-1.8 3.7-2.1 1.4-.2-.4-.4-4-.4s-5.3.2-3.7.4zM378.5 337c-.3.5-.1 1.8.4 2.7.6 1 1.1 1.3 1.1.6 0-.6.3-1.8.6-2.7.7-1.7-1.1-2.2-2.1-.6zM194.5 356c-.3.5.1 1 1 1s1.3-.5 1-1c-.3-.6-.8-1-1-1-.2 0-.7.4-1 1zM387.8 356.7c.7.3 1.6.2 1.9-.1.4-.3-.2-.6-1.3-.5-1.1 0-1.4.3-.6.6zM297 379.8c-2.8 2.2-2.1 5.5 1.7 7.9 2.5 1.6 2.6 1.6 4.4-.6 2.8-3.4 2.5-6.9-.7-8.1-3.2-1.3-2.8-1.3-5.4.8z"/></svg>