<svg xmlns="http://www.w3.org/2000/svg" width="400" height="199.005" viewBox="0, 0, 400,199.00497512437812"><g fill-rule="evenodd"><path d="M200.431 28.605c-.073.073-.132 6.523-.132 14.335v14.202l99.402.05c54.672.028 99.605.022 99.851-.013l.448-.064v-28.643h-99.718c-54.845 0-99.778.06-99.851.133m-143.627 28.091c-.728.122-.731.228-.689 21.851.046 23.542.027 23.185 1.446 26.978l.186.498 7.851-.1c8.559-.108 8.816-.145 7.532-1.095-2.992-2.213-3.981-4.819-3.144-8.29.547-2.269 2.283-4.511 3.822-4.936.759-.209 5.096-.058 5.78.202.309.118.432.112.352-.018-.284-.459.482-.153.789.315.216.331.447.471.649.394.172-.066.473.025.669.203.205.185.468.258.618.172.144-.083.202-.085.129-.003-.073.081.017.301.199.489.183.188.681.733 1.107 1.21.577.647.984.908 1.593 1.024.894.17 2.395-.121 2.206-.428-.066-.106.192-.189.591-.189.79 0 .953-.306.261-.492-1.578-.422-2.173-.628-3.254-1.128-.667-.308-1.383-.787-1.59-1.063-.208-.277-.469-.503-.581-.503-.112 0-.303-.159-.424-.353-.576-.922-3.81-1.893-5.168-1.552l-.546.137.514.266c.282.147.879.329 1.325.404.446.075.862.219.924.319.145.234-.082.229-1.68-.039-1.913-.321-1.943-.335-1.497-.686.342-.269.203-.287-1.413-.183-2.668.172-3.725-.328-6.696-3.16-1.245-1.187-2.673-2.367-3.172-2.622-1.232-.629-1.501-1.018-1.404-2.031.067-.714 2.116-.914 3.289-.321.339.172 1.333 1.004 2.209 1.851 2.726 2.633 4.15 3.177 5.141 1.963.357-.437.453-3.747.109-3.749-.07 0-.172-.173-.227-.385-.067-.255-.393-.458-.969-.604-1.59-.402-1.764-.529-1.764-1.292 0-1.09.503-1.3 3.098-1.293 1.198.004 2.342-.002 2.542-.013.535-.028.287-6.857-.291-8.003-.569-1.13-.485-1.45.544-2.083.504-.31 1.351-1.011 1.881-1.559l.964-.995 19.673.009c21.379.01 20.617-.032 21.258 1.18.431.816.682 1.01 1.543 1.19 1.212.255 1.711 1.117 1.123 1.942-.4.561-.428.85-.448 4.496l-.021 3.896.58.156c.32.085 1.903.217 3.519.292 2.761.129 2.945.162 3.05.556.204.759.128 8.292-.088 8.695-.277.519-.587.487-.603-.063l-.012-.448-.189.471c-.183.457-.237.467-1.729.336-2.474-.217-2.525-.288-2.592-3.565-.035-1.721-.132-2.717-.264-2.717-.135 0-.191.832-.16 2.396.055 2.735.005 2.842-1.174 2.525-.715-.192-.888-.182-1.042.062-.293.463-.251.502.853.78 5.847 1.471 8.406 10.003 4.328 14.427-2.278 2.471-6.191 3.614-9.31 2.72-.358-.103-.602-.11-.544-.016.058.094.396.23.75.301 1.346.271 1.499.364.844.514-.564.129-.058.179 2.688.268.274.008.856-.044 1.293-.116.438-.073.847-.049.91.052.064.104 2.905.228 6.472.284 3.496.055 7.298.139 8.448.189 1.15.049 2.205.018 2.345-.068.293-.181 1.144-5.129 1.391-8.091.312-3.748-.005-41.299-.351-41.518-.185-.117-15.778-.202-41.016-.224-22.394-.02-41.657-.049-42.807-.064-1.15-.016-2.288.005-2.529.045m61.215 13.728c.246.048.649.048.896 0 .246-.047.045-.086-.448-.086s-.694.039-.448.086m2.654 3.214c-.261.488-.27.628-.039.628.181 0 .465-.82.33-.954-.042-.042-.172.105-.291.326m7.305 5.75c.358.044.895.043 1.194-.002.299-.046.007-.082-.65-.081-.657.001-.902.038-.544.083m-2.542.851c0 .438.035.796.078.796s.113-.358.155-.796c.042-.438.006-.796-.079-.796s-.154.358-.154.796m-1.945.398c0 .383.041.54.091.349.05-.192.05-.506 0-.697-.05-.192-.091-.035-.091.348m6.586 1.294c.001.657.038.902.082.544.045-.358.044-.895-.002-1.194-.045-.3-.081-.007-.08.65m.086 3.833c.137 2.307.25 2.344.25.083 0-1.004-.08-1.825-.177-1.825-.098 0-.131.78-.073 1.742m169.534-.995l-99.406.05.054 14.243c.046 12.404.092 14.267.352 14.432.187.118 37.455.189 99.801.191l99.502.003v-14.435c0-8.633-.073-14.435-.183-14.435-.1 0-.302-.022-.448-.049-.146-.028-44.998-.028-99.672 0m-180.996 2.549c-.802.377-1.535.686-1.63.686-.095 0-.16.165-.144.368.026.347.095.341 1.232-.107.692-.273 1.857-.527 2.741-.596.845-.067 1.487-.201 1.426-.299-.06-.098-.259-.132-.441-.076-.183.057-.466.017-.631-.088-.216-.139-.227-.192-.038-.194.144-.002.206-.093.138-.203-.068-.109-.319-.192-.559-.183-.24.009-.325.061-.188.116.406.164.285.412-.249.514-.542.104-.631-.035-.258-.407.334-.335.243-.304-1.399.469m7.487 1.001c.381.393 1.033.891 1.448 1.107.617.322 1.184 1.123 1.184 1.674 0 .027-.649-.57-1.443-1.326-.794-.756-1.6-1.425-1.792-1.486-.323-.104-.509-.682-.219-.682.071 0 .441.321.822.713m-47.691 1.017c.191.05.505.05.697 0 .191-.05.034-.091-.349-.091s-.54.041-.348.091m43.524-.109c-.269.65-.04 4.551.266 4.551.199 0 .361-.132.361-.293 0-.248.6-1.411 1.144-2.219.083-.123.352-.286.598-.362.698-.217.585.755-.249 2.137-.775 1.285-.833 1.57-.398 1.932.249.206.299.18.299-.16 0-.404 2.057-1.632 2.734-1.632.77 0-1.468 2.353-2.265 2.381-.282.01-.511.556-.291.692.089.055.713.011 1.386-.098.992-.159 1.337-.139 1.809.105 2.319 1.199.312-4.181-2.131-5.712-1.2-.751-3.169-1.549-3.263-1.322m-2.923.543c-.677.275-.805.397-.597.571.146.122.66.99 1.144 1.929 1.152 2.237 1.809 2.362 1.368.26-.222-1.059-.148-1.633.37-2.883.155-.373-1.25-.297-2.285.123m-2.423 1.917c-.209.253-.169.299.261.299.495 0 1.097.623 1.393 1.444.182.504-.103.43-.957-.249-.414-.329-.871-.598-1.017-.598-.162 0-.222-.135-.154-.348.067-.211-.106-.112-.437.248l-.548.597.68.115c.742.125 2.134.794 3.023 1.451.463.342.594.367.734.141.193-.311.049-.858-.187-.713-.178.11-1.198-1.296-1.198-1.651 0-.725-1.158-1.26-1.593-.736m-39.941 1.975c-.06.155-.071.535-.024.846.082.546.085.543.114-.083.017-.356.12-.647.229-.647.11 0 .199-.09.199-.199 0-.301-.395-.238-.518.083m38.045.166c-.687 1.867-.727 2.637-.128 2.452.182-.056 1.214-.119 2.292-.14 1.494-.029 1.986-.106 2.069-.324.141-.367-.38-.711-.584-.385-.103.165-.237.177-.435.039-2.847-1.983-3.05-2.087-3.214-1.642m-38.07 1.959c.194.113.301.29.237.392-.063.103-.02.187.096.187.115 0 .21-.071.21-.159 0-.231-.443-.638-.687-.631-.115.003-.05.098.144.211m44.041.192c-.212.343.088 1.184.423 1.184.275 0 .274-.035-.011-.32-.186-.187-.27-.476-.2-.697.13-.407-.001-.509-.212-.167m7.594.732c-.083.084-1.107.243-2.276.352-2.159.202-3.037.697-1.528.862.328.036.821.268 1.095.516 1.754 1.588 2.299 1.515 2.896-.386.326-1.035.225-1.761-.187-1.344m-55.893.153c-.533.874-.396 1.316.365 1.179.958-.174 1.018-.234.39-.392-.318-.079-.533-.289-.572-.557-.033-.236-.116-.339-.183-.23m41.724.952c.127.957 1.145 2.884 1.708 3.232.299.185.231-.038-.118-.387-.172-.172-.22-.313-.107-.313.257 0 .592.624.488.909-.077.212.987 1.282 1.274 1.281.083 0 .45-.665.815-1.478.366-.813.836-1.633 1.046-1.822.404-.366.52-1.08.175-1.08-.113 0-.26.143-.327.318-.067.175-.535.495-1.039.711-.505.217-1.067.529-1.249.694-.464.42-1.261.276-1.261-.228 0-.291.45-.648 1.692-1.34 1.801-1.004 2.395-1.73 1.164-1.422-.824.206-1.931.216-3.329.029l-1.07-.143.138 1.039m-28.61-.453c-.192.12-.352.46-.356.755-.033 2.529-1.388 5.061-3.391 6.337-1.317.839-1.578 1.222-.925 1.355.984.2 36.77.287 36.892.09.181-.294-.423-.882-1.939-1.89-1.745-1.16-2.795-2.505-3.591-4.601-.778-2.049-.774-2.047-3.983-2.047h-2.404l-.85.784c-1.658 1.528-6.386 1.306-10.543-.495-.978-.424-8.313-.661-8.91-.288m-11.372.299c-.069.18.001.297.179.297.322 0 .395-.311.114-.485-.098-.06-.23.024-.293.188m49.053.894c-.192.119-.138.316.227.825.717 1 1.673 2.916 1.527 3.062-.329.329-2.551-2.216-2.551-2.922 0-.092-.076-.168-.169-.168-.295 0-.467 4.232-.18 4.418 1.016.656 6.181-2.849 5.226-3.547-.205-.151-.513-.275-.684-.277-.171-.001-.948-.35-1.727-.775-.857-.467-1.516-.71-1.669-.616m-50.623.343c-.943.141-.596.421.455.367.552-.028 1.05.025 1.107.118.17.275.479.191.479-.131 0-.183-.186-.298-.481-.298-.265 0-.601-.031-.747-.069-.146-.038-.512-.032-.813.013m47.795.844c-.252.423-.843 1.316-1.314 1.985-.953 1.354-.943 1.503.117 1.798 1.627.452 2.792.123 1.972-.557-.324-.27-.297-2.94.034-3.27.303-.303.285-.48-.063-.614-.188-.072-.449.158-.746.658m9.499 1.197c-.154.487-2.078 2.598-2.086 2.289-.004-.112.306-.499.688-.859.381-.36.841-.965 1.021-1.345.349-.735.602-.792.377-.085m-55.033-.206c-.192.118-.211.264-.068.519.183.327.21.32.34-.091.168-.529.09-.652-.272-.428m1.771 1.406c0 .719-.077.996-.277.996-.371 0-.543-.494-.268-.769.121-.121.174-.266.118-.322-.056-.056-.319.136-.584.427-.404.443-.421.507-.106.393.302-.11.332-.083.151.135-.295.356-.095.534.601.534.534 0 .564-.046.564-.88 0-.483.055-1.021.121-1.194.066-.173.022-.315-.1-.315-.131 0-.22.4-.22.995m3.338 2.901c-.062.062-.548.186-1.079.275l-.965.162.808.024c.611.017 2.041-.536 1.465-.568-.064-.003-.167.045-.229.107m52.212 3.255c-.378.112-.188.172.785.247.726.056 1.317.201 1.361.334.043.129.183.167.31.084.128-.083 1.733-.195 3.568-.25 2.077-.062 3.317-.175 3.285-.299-.032-.124-1.056-.174-2.738-.132-3.8.095-4.85.089-5.502-.028-.314-.057-.795-.037-1.069.044m2.091 3.202c-.068.11.066.199.298.199.232 0 .367-.089.299-.199-.068-.109-.202-.199-.299-.199-.096 0-.231.09-.298.199m-40.916 8.048c-4.807.556-12.021 2.193-15.431 3.502-.876.337-2.13.798-2.787 1.026-.657.228-2.584 1.113-4.281 1.967-4.573 2.3-4.775 2.423-4.777 2.898-.005 1.363 7.442 10.727 11.047 13.891.765.672 1.572 1.385 1.792 1.585 3.166 2.873 11.522 8.152 16.115 10.181 4.807 2.123 4.827 2.127 6.477 1.295.388-.195 1.377-.643 2.198-.995 1.997-.854 5.417-2.578 6.77-3.41.602-.371 1.801-1.12 2.665-1.665 7.544-4.762 15.72-13.088 20.033-20.403.678-1.151.829-.983-2.191-2.432-5.852-2.808-10.99-4.804-14.213-5.523l-3.943-.88c-4.684-1.046-14.756-1.583-19.474-1.037m36.734 2.603c.591.328 2.143.918 2.209.839.227-.27-.402-.937-.883-.937-.318 0-.881-.053-1.251-.118l-.672-.117.597.333m-28.001 1.481c1.477.753 1.911 1.972 1.356 3.815-.37 1.229.041 1.67 1.515 1.63 1.281-.035 2.731.308 2.731.646 0 .138.122.298.271.355.453.174.518.9.125 1.383-.345.423-.488.444-2.62.39-2.337-.059-4.15.094-3.832.324.209.15.259.556.411 3.296.097 1.75.074 1.957-.209 1.848-.471-.18-.414.801.095 1.636.278.456.371.842.285 1.185-.101.401-.166.448-.31.22-.148-.233-.183-.215-.186.094-.001.211.144.545.323.743.27.299.282.414.068.671-.195.236-.202.367-.027.542.127.126.23.391.23.589 0 .197.079.358.175.358.096 0 .229.277.297.616.082.408.271.654.562.73.418.109.42.122.051.266-.308.121-.257.155.248.166.349.008.688-.072.753-.177.064-.104.229-.147.366-.095.136.053.424-.047.64-.222.216-.175.267-.253.113-.173-.179.093-.23.066-.143-.076.075-.122.247-.179.381-.128.277.107 1.784-1.063 1.65-1.281-.049-.079-.01-.27.086-.425.253-.41-.148-.794-.829-.794-.66 0-1.105-.718-.696-1.123.243-.24 4.423-1.927 5.857-2.364 1.183-.361 1.241-.181 1.241 3.872 0 3.638-.025 3.718-1 3.196-.472-.252-2.582-.025-2.588.279-.006.342-2.277 1.931-4.376 3.063-1.04.56-2.2 1.248-2.577 1.528-.378.28-.768.509-.868.509-.099 0-.353.218-.563.485-.21.267-.536.486-.725.487-.189.001-.57.058-.846.127-.414.102-.732-.078-1.82-1.035-.726-.638-2.111-1.563-3.078-2.055-1.647-.839-2.48-1.358-4.693-2.926-.721-.511-1.13-.648-2.073-.697l-1.174-.061-.05-3.185c-.06-3.895-.088-3.835 1.564-3.299 3.079 1.001 5.714 2.574 4.642 2.772-1.135.209-1.376 1.164-.432 1.713.748.435 1.655 1.328 1.585 1.562-.038.122 2.311-.011 2.486-.142.021-.016.145-.475.275-1.019.13-.545.311-1.169.401-1.388.09-.219.168-.936.174-1.593.005-.657.099-2.449.207-3.982.109-1.533.221-3.191.248-3.684l.05-.896-2.908.073c-3.478.088-3.937-.139-3.77-1.865.086-.885.616-1.115 2.695-1.169 2.076-.055 2.912-.571 2.002-1.237-.218-.159-.309-.567-.309-1.383 0-2.626 3.695-4.148 6.543-2.695m-3.509 2.137c-.138.056-.342.271-.453.478-.166.312-.143.354.134.248.271-.104.313-.042.218.322-.193.736.032 1.01.831 1.01.995 0 1.692-.875 1.026-1.287-.103-.064-.17.123-.149.414.021.292-.074.57-.211.619-.139.049-.249-.069-.249-.265 0-.329-.019-.328-.272.019-.262.358-.282.354-.523-.096-.229-.426-.191-.518.421-1.026l.673-.558-.598.011c-.328.005-.71.056-.848.111m101.827 16.924c-.268.268-.153 28.543.117 28.645.136.051 45.069.115 99.85.143l99.602.049v-28.97h-99.718c-54.845 0-99.778.06-99.851.133m-98.29 1.273c-.001.353.518 1.134.653.983.049-.054-.078-.368-.282-.696-.213-.345-.37-.466-.371-.287" fill="#f80504"/><path d="M0 99.552v99.552h400v-13.717c0-14.063-.012-14.299-.715-13.791-.105.077-.181 5.654-.181 13.372v13.24l-199.053.05-199.053.05-.051-98.607c-.028-54.233-.002-98.673.059-98.755.06-.083 89.657-.127 199.104-.1l198.994.05.051 13.286.051 13.286-.449.107c-.247.058-45.084.127-99.636.153-54.553.026-99.239.098-99.301.161-.304.303-.134 29.154.173 29.218.269.057.309-1.545.354-14.236l.051-14.3 99.801-.05 99.801-.05v-28.471h-400v99.552m57.939-43.206l-2.289.1v21.005c0 22.02.024 22.755.914 27.975 3.555 20.837 16.714 38.631 35.821 48.438 6.388 3.279 7.138 3.428 10.36 2.064 6.499-2.753 12.27-6.306 17.613-10.847 9.072-7.708 15.852-17.532 19.81-28.705 1.883-5.313 3.417-12.508 3.354-15.729-.015-.766-.064-1.125-.109-.796-.045.328-.305 1.941-.578 3.584-.273 1.642-.533 3.21-.577 3.484-.301 1.878-1.825 7.547-2.111 7.855-.097.104-.177.359-.177.567 0 .366-.853 2.608-2.326 6.112-1.028 2.447-2.53 5.309-3.448 6.571-.438.602-1.35 1.946-2.026 2.986-2.316 3.563-4 5.645-7.41 9.159-4.699 4.843-8.017 7.477-14.257 11.317-1.353.832-4.773 2.556-6.77 3.41-.821.352-1.81.8-2.198.995-1.65.832-1.67.828-6.477-1.295-4.593-2.029-12.949-7.308-16.115-10.181-.22-.2-1.027-.913-1.792-1.585-3.605-3.164-11.052-12.528-11.047-13.891.002-.475.204-.598 4.777-2.898 1.697-.854 3.624-1.739 4.281-1.967.657-.228 1.911-.689 2.787-1.026 9.749-3.742 24.519-4.785 34.905-2.465l3.943.88c2.675.597 4.51 1.261 10.321 3.74 1.199.511 3.035 1.351 4.081 1.867 1.434.706 1.755.813 1.305.433-.329-.277-1.27-.842-2.091-1.256-.821-.414-1.762-.893-2.09-1.066-1.067-.56-3.797-1.708-4.395-1.847-.321-.075-.684-.262-.808-.416-.224-.279-.516-.375-4.012-1.323-1.016-.276-2.047-.633-2.292-.793-.245-.16-.874-.3-1.398-.311-.524-.01-1.419-.148-1.988-.306-2.096-.581-3.846-.925-4.719-.928-.493-.002-1.299-.1-1.792-.217-1.262-.302-12.765-.296-15.032.007-3.497.467-5.823.907-7.701 1.454-.643.188-.85.189-.911.006-.055-.164-.246-.116-.612.154-.293.216-1.07.537-1.727.713l-1.792.487-1.493.408c-.493.133-1.12.388-1.394.567-.274.179-.991.489-1.593.689-.602.2-1.538.578-2.08.839s-1.146.474-1.344.474c-.197 0-.359.079-.359.175 0 .096-.426.365-.946.597-1.114.498-3.11 1.573-3.873 2.086-.297.199-.631.306-.742.237-.307-.19-1.607-2.588-1.607-2.965 0-.181-.074-.329-.164-.329-.09 0-.411-.56-.714-1.244-.302-.685-.801-1.782-1.11-2.439-.308-.657-.671-1.553-.805-1.991-.135-.438-.308-.886-.385-.996-.695-.992-2.927-9.349-3.377-12.643-.097-.712-.358-2.28-.58-3.484-.385-2.095-.405-3.054-.442-21.902-.045-22.382-.043-22.603.185-22.962.168-.264 86.025-.379 86.711-.115.472.181.518 1.8.542 18.996.013 9.253.09 17.362.171 18.019.082.657.162-7.542.178-18.218l.029-19.413h-41.861c-23.024 0-42.892.045-44.152.099m341.313 14.582c.048 12.947.072 13.789.4 13.852.329.064.348-.699.348-13.785 0-13.735-.003-13.852-.4-13.852-.396 0-.399.1-.348 13.785m-318.515-5.041c-.219.093-.768.56-1.219 1.038-.451.479-1.235 1.123-1.742 1.433-1.036.633-1.12.952-.55 2.083.578 1.146.826 7.975.291 8.003-.2.011-1.344.017-2.542.013-2.595-.007-3.098.203-3.098 1.293 0 .763.174.89 1.764 1.292.576.146.902.349.969.604.156.599.452.453.452-.223 0-.661-.835-1.184-1.891-1.184-.606 0-.814-.405-.505-.982.211-.395.342-.411 2.527-.319 2.939.123 2.81-.013 2.893 3.055.073 2.7.088 2.755 1.61 5.772.81 1.606.775 1.627-2.533 1.527-5.37-.162-5.227-.108-8.268-3.168-1.803-1.815-2.229-2.142-3.136-2.405-1.467-.427-1.353-1.29.171-1.29 1.126 0 1.514.234 3.452 2.089 1.75 1.674 2.294 2.007 3.026 1.851.289-.061.224-.152-.309-.435-.37-.196-1.445-1.098-2.389-2.004-.944-.906-1.993-1.789-2.332-1.962-1.169-.595-3.222-.397-3.289.319-.097 1.013.172 1.402 1.404 2.031.499.255 1.927 1.435 3.172 2.622 2.971 2.832 4.028 3.332 6.696 3.16 1.616-.104 1.755-.086 1.413.183-.446.351-.416.365 1.497.686 1.598.268 1.825.273 1.68.039-.062-.1-.478-.244-.924-.319-.446-.075-1.043-.257-1.325-.404l-.514-.266.546-.137c1.358-.341 4.592.63 5.168 1.552.121.194.312.353.424.353.112 0 .373.226.581.503.207.276.923.755 1.59 1.063 1.081.5 1.676.706 3.254 1.128.692.186.529.492-.261.492-.399 0-.657.083-.591.189.189.307-1.312.598-2.206.428-.609-.116-1.016-.377-1.593-1.024-.426-.477-.924-1.022-1.107-1.21-.182-.188-.272-.408-.199-.489.073-.082.015-.08-.129.003-.152.088-.422.005-.648-.2-.723-.654-.627-.117.123.694 2.152 2.326 2.729 4.384 1.998 7.129-1.874 7.039-11.947 6.528-13.648-.694-.729-3.094 2.134-8.012 4.664-8.012.168 0 .306-.09.306-.199 0-.11-.201-.199-.448-.198-2.153.005-4.322 2.227-5.026 5.148-.837 3.471.152 6.077 3.144 8.29 1.287.952 1.024.99-7.386 1.062-4.295.037-7.789.147-7.894.249-.115.111 2.157.184 5.774.186 3.279.002 16.535.04 29.457.084 19.969.067 33.098-.065 27.676-.279-1.067-.042-1.254-.088-.797-.198l.597-.143-.597-.151-.995-.252c-2.088-.538-5.115-3.45-6.102-5.871-.495-1.215-.584-6.689-.103-6.392.097.06.255-.015.35-.166.406-.641.07-.769-.568-.217-.303.264-.361.443-.222.692.229.41-.47.644-1.471.491-.355-.054-1.488-.02-2.519.075-1.23.114-1.957.105-2.117-.028-.169-.14-.273-.124-.34.052-.073.191-.693.239-2.517.192-1.445-.037-2.373-.137-2.303-.249.067-.109-.507-.199-1.39-.217-.827-.016-1.617-.039-1.754-.05-.136-.011-.225.095-.196.236.052.259-4.821.189-6.523-.093-.384-.064-1.177-.097-1.764-.074-.72.028-1.023-.028-.934-.173.085-.136-.106-.215-.526-.217-.362-.002-.883-.131-1.157-.287-1.16-.661-2.081-1.104-2.295-1.104-.126 0-.982-.739-1.904-1.643-1.609-1.578-2.005-2.178-3.12-4.728-.168-.384-.386-.86-.485-1.06-.245-.491-.618-10.64-.455-12.38.159-1.7.303-1.891 1.426-1.891.486 0 .835-.08.775-.176-.137-.222-1.297-.402-1.41-.219-.178.288-1.157.078-1.41-.303-.617-.931-.839-.917 14.272-.888 7.82.014 15.155.055 16.301.09 1.738.054 2.121.011 2.317-.258.193-.263.291-.276.538-.071.208.173.344.185.434.039.204-.33.548-.005.438.415-.054.207-.017.326.082.264.1-.061.182-.263.184-.448.002-.254.043-.273.167-.078.132.208.271.211.697.017.462-.211.572-.192.822.139.164.217.292.274.295.133.01-.374.753-.3.997.099.177.291.204.25.159-.249l-.054-.597-17.422-.102c-9.582-.056-17.433-.124-17.448-.149-.924-1.638-.105-1.692 23.023-1.518 17.898.135 17.312.095 17.046 1.155l-.13.515h-2.379c-1.981 0-2.361.047-2.27.284.089.232.799.289 3.822.304 4.004.02 4.045.029 3.879.872-.104.532-.152.556-.831.416-.782-.162-.718-.162-5.143-.034-2.093.061-3.053.02-3.104-.131-.052-.156-.154-.157-.355-.005-.315.239-7.015.228-7.598-.012-.192-.08-.505-.084-.697-.01-.192.075-5.364.179-11.493.233-6.13.053-11.185.137-11.233.185-.083.083 12.439.156 30.549.177 7.477.009 8.217.04 8.711.363l.539.353v4.733c0 3.042-.107 5.583-.301 7.113-.398 3.149-.428 3.255-.987 3.51l-.481.219.709.481c.85.577.922.526.974-.687.023-.519.14-1.48.262-2.137.121-.657.221-2.024.221-3.037.001-1.013.069-1.848.151-1.857 1.699-.171 6.032-.121 6.293.073.282.209.333.839.376 4.671.049 4.322.118 4.836.541 4.045.216-.403.292-7.936.088-8.695-.105-.394-.289-.427-3.05-.556-1.616-.075-3.199-.207-3.519-.292l-.58-.156.021-3.896c.02-3.646.048-3.935.448-4.496.588-.825.089-1.687-1.123-1.942-.861-.18-1.112-.374-1.543-1.19-.256-.484-.622-.84-.995-.967-.734-.249-39.235-.383-39.814-.139m-.314 8.926c-.028 3.669.043 7.258.15 7.537.352.918.47-.111.426-3.716-.04-3.324 0-4.025.243-4.183.332-.216 4.491-.131 5.02.102.252.111.348.064.348-.173 0-.452-.172-.486-2.977-.578-2.297-.076-2.493-.114-2.669-.506-.371-.832-.526-.396-.541 1.517m16.939-.417c0 .514.011.519.393.173.418-.378.369-.701-.106-.701-.178 0-.287.201-.287.528m16.994-.225c-.064.167-.042 1.085.05 2.041l.167 1.737.107-1.493c.059-.821.215-1.683.347-1.915.132-.232.184-.479.114-.548-.229-.229-.667-.13-.785.178m-11.668.036c.246.048.649.048.896 0 .246-.047.045-.086-.448-.086s-.694.039-.448.086m4.238 2.435c-.259.484-.363 2.165-.139 2.244.092.032.194-.358.226-.868.067-1.062.205-1.363.626-1.363.164 0 .244-.09.176-.199-.201-.325-.668-.227-.889.186m-17.313.361c.008.313.063.42.126.249.061-.164.199-.41.307-.547.141-.178.104-.249-.126-.249-.224 0-.318.169-.307.547m7.799.349c.002.438.043.594.091.346.047-.248.046-.606-.004-.796-.05-.191-.089.012-.087.45m-.249 3.174c0 .267.089.541.199.609.116.072.199-.131.199-.486 0-.335-.09-.609-.199-.609-.11 0-.199.219-.199.486m9.479.028c-.176.457-.162.481.277.481.219 0 .398-.037.398-.083 0-.243-.263-.713-.398-.713-.086 0-.211.142-.277.315m-17.311.017c-.242.242-.137.663.166.663.166 0 .299-.177.299-.398 0-.396-.212-.518-.465-.265m-14.465 1.996c.002.198.09.494.196.658.151.234.194.182.196-.237.002-.294-.086-.591-.196-.658-.109-.068-.198.039-.196.237m5.771 1.599c0 .461.513 1.201.701 1.013.189-.189-.175-1.214-.464-1.311-.13-.043-.237.091-.237.298m119.062.802c-.002.082-.002 6.69-.002 14.684l.001 14.534 99.703.1 99.703.099.051 13.628c.03 7.839-.024 13.703-.127 13.805-.104.105-41.36.192-99.636.211-54.702.017-99.508.081-99.568.142-.353.352-.144 29.159.212 29.215.347.055.362-.53.362-14.335v-14.393l99.801-.05 99.801-.05v-28.87l-99.502-.003c-62.346-.002-99.614-.073-99.801-.191-.26-.165-.306-2.028-.352-14.432-.047-12.421-.092-14.244-.349-14.244-.162 0-.296.068-.297.15m-79.52 1.789c-.24.239-.109.451.279.451.219 0 .398-.08.398-.178 0-.224-.518-.433-.677-.273m5.057 1.134c0 .157.157.335.349.397.192.061.998.73 1.792 1.486s1.443 1.353 1.443 1.326c0-.551-.567-1.352-1.184-1.674-.415-.216-1.067-.714-1.448-1.107-.755-.777-.952-.865-.952-.428m-8.993.675c-.443.18-2.156 1.799-2.156 2.037 0 .386.415.165 1.142-.608.412-.437.823-.796.913-.796.185 0 .732-.51.732-.683 0-.142-.2-.126-.631.05m-36.118 3.325c.409.309.638.26.421-.091-.072-.117-.283-.209-.468-.206-.296.006-.29.042.047.297m36.08.394c-.067.173-.004.298.15.298.146 0 .603.269 1.017.598 1.163.924 1.352.652.452-.647-.425-.613-1.421-.766-1.619-.249m-40.396 1.31c-.469.273-.441.487.173 1.291.703.923.807.868.789-.41-.017-1.15-.205-1.322-.962-.881m2.379-.089c-.214.214-.165 1.865.055 1.865.329 0 .836-.946.767-1.43-.064-.451-.549-.708-.822-.435m-4.485 1.33c-.573.61-.551.705.24 1.035.37.155.953.517 1.294.804.463.39.622.445.622.219 0-.168-.092-.361-.203-.43-.112-.069-.427-.567-.7-1.107-.567-1.119-.656-1.156-1.253-.521m6.417.386c-.18.355-.465.803-.633.995-.168.192-.24.348-.161.348.112 0 1.734-.87 2.074-1.113.036-.026-.034-.234-.156-.462-.321-.6-.747-.512-1.124.232m16.137.895c.347-.273.536-.154.472.299l-.064.448h-5.715c-5.574 0-6.409-.086-6.074-.63.057-.091 2.598-.122 5.647-.067 3.05.055 5.63.033 5.734-.05m2.334.181c.2.181.364.45.364.597 0 .389-.741.328-.982-.081-.177-.299-.232-.307-.398-.055-.105.161-.256.229-.334.15-.494-.493.821-1.09 1.35-.611m1.558-.085c0 .132.086.135.249.008.137-.107.652-.175 1.145-.151l1.543.07c.789.033.931.625.149.625-.273 0-.497.077-.497.171 0 .094-.224.129-.498.076-.274-.052-.498-.191-.498-.309 0-.117-.131-.04-.292.173-.18.238-.295.286-.299.126-.003-.144-.1-.203-.214-.132-.114.07-.338.02-.498-.113-.233-.194-.29-.178-.29.083 0 .177-.082.323-.182.323-.885 0-1.186-1.074-.315-1.124.273-.016.497.062.497.174m11.648.352c0 .33-4.894.547-6.638.295-.792-.115-.834-.148-.498-.405.553-.423 7.136-.321 7.136.11m-39.124.455c0 .328.177.52.639.695.936.353 1.224-.034.495-.666-.705-.61-1.134-.621-1.134-.029m9.135-.305c-.013.082-.014.213-.002.291.011.078-.108.093-.265.033-.289-.111-1.501.491-1.501.746 0 .076.538.169 1.195.206 1.274.072 1.335.016 1.069-.978-.114-.423-.445-.622-.496-.298m14.083 1.417c4.121 1.417 7.599 1.422 9.127.014l.85-.784h2.404c3.209 0 3.205-.002 3.983 2.047.796 2.096 1.846 3.441 3.591 4.601 1.516 1.008 2.12 1.596 1.939 1.89-.122.197-35.908.11-36.892-.09-.653-.133-.392-.516.925-1.355 2.003-1.276 3.358-3.808 3.391-6.337.012-.902.391-.978 4.487-.893l3.783.077 2.412.83m-15.149 1.705c1.089.969 1.488.883 1.488-.323 0-.553-.014-.559-1.239-.559h-1.239l.99.882m-8.335-.55c-.228.228-.145.803.151 1.049.278.23 1.699-.455 1.705-.822.006-.326-.449-.374-.772-.081-.439.397-.619.403-.619.019 0-.31-.235-.395-.465-.165m6.438.962c.137.164.382.299.547.299.243 0 .252-.056.051-.299-.137-.164-.383-.299-.547-.299-.243 0-.252.056-.051.299m50.695.776c-.18.38-.64.985-1.021 1.345-.382.36-.692.747-.688.859.008.309 1.932-1.802 2.086-2.289.225-.707-.028-.65-.377.085m-52.764-.162c-.075.194-.03.285.115.236.298-.099.462-.551.2-.551-.107 0-.249.141-.315.315m1.222 1.317c-.127 1.73-.135 1.716.77 1.284.692-.33.704-.355.39-.782-.178-.243-.489-.783-.689-1.199l-.365-.756-.106 1.453m1.973-.537c.324.949.519 1.071.979.611.445-.445.337-.873-.303-1.204-.91-.47-1.008-.383-.676.593m-6.352-.482c-.438.255-.439.471-.006.977.511.597.98.506 1.125-.217.19-.953-.261-1.26-1.119-.76m2.638.874c-.164.325-.523.705-.797.843-.293.149-.371.253-.189.255.17.002.42-.108.556-.244.197-.197.284-.188.427.044.275.445.434.129.364-.723l-.062-.766-.299.591m48.15 3.988c-.055.055-.469.114-.92.132-1.426.056-1.42.359.007.363 1.064.002 1.344-.06 1.344-.296 0-.291-.232-.398-.431-.199m-59.897 2.29c0 .109.174.199.386.199.213 0 .442-.09.51-.199.069-.113-.098-.2-.387-.2-.28 0-.509.09-.509.2m7.217-.062c.192.05.505.05.697 0 .192-.05.035-.091-.348-.091-.384 0-.54.041-.349.091m14.684.062c0 .109.179.199.398.199.219 0 .399-.09.399-.199 0-.11-.18-.2-.399-.2-.219 0-.398.09-.398.2m.996.047c0 .084 2.434.152 5.409.152 2.975 0 5.343-.066 5.263-.146-.194-.194-10.672-.2-10.672-.006m11.483-.003c-.145.092-.069.15.199.152.244.001.474.155.525.351.082.313.093.314.114.013.016-.226.235-.358.67-.404.542-.057.491-.084-.313-.165-.529-.053-1.066-.029-1.195.053m-17.058.034c0 .193.561.266.814.105.204-.129.132-.178-.267-.18-.301-.002-.547.032-.547.075m22.648.07c1.451.034 3.825.034 5.276 0 1.451-.034.264-.061-2.638-.061s-4.089.027-2.638.061m-15.25 6.866c-.365.225-.948.478-1.294.56l-.629.15.647.02c.356.011.647.101.647.198 0 .098.333.008.739-.199.407-.207 1.101-.39 1.543-.406.676-.025.709-.044.21-.118l-.594-.087.495-.274c.485-.269.479-.274-.302-.264-.442.005-1.093.192-1.462.42m18.606-.163c.063.166-.042.32-.255.375-.2.052-.049.105.335.117.384.013 1.011.121 1.393.241.383.119 1.054.249 1.492.289.438.04 1.2.122 1.693.182.602.074.765.052.498-.065-.219-.096-.869-.239-1.444-.318-.697-.096-1.045-.237-1.045-.424 0-.177-.215-.28-.586-.28-.322 0-.641-.089-.708-.199-.204-.329-1.501-.251-1.373.082m-13.025.329c.048.144.205.3.348.348.15.05.224-.025.174-.174-.047-.144-.204-.301-.348-.348-.149-.05-.224.024-.174.174m-9.495.992c-.277.126-.157.144.398.059.438-.066.834-.154.88-.194.171-.151-.896-.038-1.278.135m-3.233.685c-.344.391.033.575.579.283.242-.129.67-.305.95-.39.42-.127.351-.156-.387-.164-.531-.006-.996.104-1.142.271m33.537-.087c.461.091 1.028.268 1.262.393.519.278.736.114.394-.298-.176-.212-.59-.297-1.372-.282l-1.121.022.837.165m-40.025 1.514c-.182.182-.171.819.016.935.159.099 1.155-.628 1.022-.747-.199-.178-.917-.308-1.038-.188m47.392.195c-.12.12.688.87.937.87.065 0 .118-.17.118-.377 0-.471-.735-.814-1.055-.493m-53.898 3.259c.386.249.597.249.597 0 0-.11-.201-.198-.448-.196-.362.002-.39.04-.149.196m29.108 1.218c-1.567.372-2.627 1.634-2.627 3.128 0 .676.084 1.229.187 1.229.102 0 .138-.299.078-.664-.652-4.019 6.502-4.577 7.694-.601.162.541.171.53.186-.229.045-2.168-2.62-3.55-5.518-2.863m-33.516.766c-.258.216-.398.395-.311.398.213.009 1.334-.575 1.334-.695 0-.232-.595-.059-1.023.297m34.595 2.26c-.504.404-.546.513-.338.901.245.458.614.414.614-.073 0-.465.776-.778.931-.375.208.543-.217.972-1.03 1.041-.847.071-1.142-.206-.966-.908.115-.458-.195-.628-.435-.24-.633 1.024 1.286 2.595 2.217 1.816 1.672-1.397.699-3.515-.993-2.162m-3.343 2.263c-.055.282-.373.343-2.038.386-1.598.042-2.04.12-2.324.412-.983 1.012-.244 2.671 1.169 2.626.666-.021.686-.036.195-.149-2.767-.64-1.558-2.415 1.645-2.415h2.195l-.309-.598c-.355-.685-.443-.729-.533-.262m6.945.315l-.357.445 2.348.1c1.292.054 2.461.172 2.597.26.137.089.249.078.249-.024 0-.282-1.564-.61-2.759-.579-.8.022-1.129-.056-1.316-.312-.314-.43-.331-.428-.762.11m5.036 1.541c0 .233-.096.605-.215.826-.313.584-.012.744.413.219.207-.255.318-.619.258-.849-.149-.569-.456-.7-.456-.196m-2.14 1.535c.301.046.794.046 1.095 0 .301-.045.055-.082-.547-.082-.603 0-.849.037-.548.082m-4.298 2.596c.11 2.586.152 2.837.478 2.837.159 0 .189-.592.105-2.041-.174-2.986-.195-3.136-.45-3.136-.17 0-.205.632-.133 2.34m-3.841 1.443c0 1.15.033 1.62.073 1.045.04-.575.04-1.515 0-2.09s-.073-.105-.073 1.045m14.361 2.23c-1.495.483-5.797 2.219-6.003 2.422-.404.398.035 1.122.681 1.122.742 0 1.085.343.826.827-.235.438-.068.48.329.083.403-.403.353-.91-.089-.91-1.082 0-1-1.041.111-1.401.418-.136 1.363-.548 2.099-.916 2.314-1.157 2.3-1.171 2.384 2.367.067 2.821-.09 3.082-1.288 2.14-.65-.511-.875-.501-1.157.05-.501.98-3.635 3.733-4.249 3.733-.766 0-5.55 3.583-5.225 3.913.092.093.378-.078.638-.379.259-.301.547-.547.641-.547.093 0 .478-.229.856-.509.377-.28 1.537-.968 2.577-1.528 2.099-1.132 4.37-2.721 4.376-3.063.006-.304 2.116-.531 2.588-.279.976.523 1 .446 1-3.244 0-3.884-.091-4.206-1.095-3.881m-25.29.408c-.061.247-.085 1.792-.053 3.435l.057 2.986 1.174.061c.943.049 1.352.186 2.073.697 2.219 1.572 3.047 2.087 4.701 2.926.972.492 2.247 1.33 2.833 1.861.886.803 1.065.898 1.065.562 0-.436-1.79-1.916-3.125-2.583-2.451-1.226-3.09-1.675-4.786-3.368l-1.839-1.835-.505.505c-1.008 1.008-1.193.67-1.193-2.18 0-3.307-.103-3.235 2.897-2.017 2.407.976 2.961 1.476 1.982 1.787-.773.245-1.027.667-.635 1.053 1.034 1.017 2.318 2.034 2.569 2.034.368 0-.606-.982-1.487-1.499-.943-.553-.703-1.507.432-1.716 1.056-.195-1.511-1.743-4.563-2.752-1.495-.494-1.464-.495-1.597.043m10.594.621c-.086.314-.107.62-.047.68.207.208.338-.122.271-.685l-.067-.566-.157.571m4.523.203c-.073.189-.041.54.07.78.198.428.205.425.35-.125.171-.653-.199-1.23-.42-.655m.118 2.113c0 .372.053.425.239.239s.186-.292 0-.478-.239-.133-.239.239m-4.841.528c-.075.074-.136.312-.136.527 0 1.203-.441 1.931-1.177 1.946-1.074.021-1.645.275-1.003.447 1.384.37 2.092-.099 2.495-1.653.255-.981.165-1.612-.179-1.267m4.939.891c.225 1.074.762 1.861 1.306 1.914l.488.048-.452-.192c-.274-.117-.5-.431-.573-.795-.066-.331-.198-.602-.294-.602-.096 0-.175-.174-.175-.387 0-.212-.099-.447-.22-.522-.154-.096-.178.065-.08.536" fill="#2f2322"/><path d="M1.244 99.602l.05 98.407 1.941-.005c1.068-.002 90.508-.024 198.756-.049l196.814-.046v-13.041c0-10.298-.052-13.042-.249-13.045-.136-.002-43.613 0-96.615.004-53.001.004-97.777-.053-99.502-.126l-3.136-.134v-14.803c0-8.142.023-14.825.05-14.852.027-.027 44.893-.094 99.701-.149l99.652-.1.099-11.051c.055-6.077.072-12.148.038-13.489l-.061-2.439h-99.425c-54.683 0-99.566-.054-99.739-.121-.424-.163-.489-29.92-.066-29.978.545-.076 5.386-.082 100.629-.123l98.588-.042.068-1.145c.037-.629.041-6.677.007-13.439l-.061-12.295-99.69-.05-99.69-.049-.051-14.982-.051-14.982 99.642-.051c66.118-.033 99.702-.117 99.817-.249.096-.111.135-5.921.087-13.091l-.086-12.892h-397.567l.05 98.407m142.916-43.405c.311 9.04-.191 47.364-.626 47.825-.099.104-.18.507-.182.896-.004 1.199-1.498 7.749-1.846 8.097-.078.078-.142.304-.142.501 0 .353-.456 1.888-.79 2.661-.094.219-.336.891-.536 1.493-.2.603-.417 1.14-.484 1.195-.066.055-.182.353-.258.663-.076.31-.448 1.235-.827 2.056-.379.82-.689 1.567-.689 1.659 0 .093-.067.198-.149.235-.082.036-.442.648-.799 1.36-.357.712-.918 1.742-1.246 2.29-.329.547-.652 1.152-.718 1.344-.067.192-.19.348-.275.348-.085 0-.206.204-.268.452-.062.249-.274.632-.47.851-.195.219-.802 1.069-1.347 1.887-2.844 4.274-8.39 10.537-11.254 12.708-.383.291-1.01.813-1.393 1.161-.384.348-1.098.923-1.587 1.277-.489.355-1.071.814-1.293 1.021-.222.207-.852.659-1.4 1.006-.548.346-1.041.687-1.096.757-.494.63-9.824 5.755-10.484 5.758-.127.001-.575.175-.996.388-2.233 1.127-3.623 1.382-4.689.86-.251-.123-.815-.374-1.253-.556-.438-.183-1.245-.547-1.795-.81-.549-.263-1.109-.478-1.244-.478s-.246-.09-.246-.199c0-.11-.112-.2-.249-.2-.137-.001-.473-.122-.747-.27l-1.991-1.063c-.821-.438-2.004-1.123-2.628-1.523-.625-.4-1.222-.727-1.327-.727-.106 0-.222-.069-.259-.153-.036-.084-.558-.465-1.16-.846-1.376-.873-4.929-3.518-5.536-4.121-.251-.25-.52-.457-.597-.458-.14-.004-1.377-1.114-3.425-3.078-1.533-1.469-3.846-3.934-4.515-4.813-.309-.406-.899-1.099-1.309-1.54-.411-.441-.747-.911-.747-1.043 0-.133-.067-.271-.149-.308-.389-.173-3.258-4.303-4.609-6.637-.73-1.259-3.416-6.585-3.817-7.566-.089-.219-.389-.911-.667-1.537-.277-.627-.563-1.389-.636-1.693-.072-.304-.194-.642-.271-.752-.076-.109-.297-.736-.49-1.393-.634-2.157-.763-2.583-.937-3.086-.094-.274-.265-.946-.38-1.494-.115-.547-.301-1.354-.413-1.792-.473-1.841-.976-4.994-1.366-8.561-.218-2.003-.285-43.953-.069-44.168.269-.27 88.667-.154 88.676.116m-86.384 50.971l.064.448 28.87.045c27.628.044 28.89.031 29.339-.315.651-.501-6.53-.626-35.856-.626h-22.481l.064.448m.362 1.884c0 .155.138.701.305 1.214l.305.934 2.575-.1c2.982-.115 3.328-.278 3.107-1.459-.159-.849-.467-.918-3.952-.889-1.87.016-2.34.076-2.34.3m7.301-.208c-.227.226-.146 1.765.106 2.017.178.178 2.282.239 8.237.239h7.998l.11-.682c.153-.939-.017-1.45-.525-1.587-.602-.161-15.764-.15-15.926.013m17.359.349c-.124.273-.162.793-.086 1.195l.133.712h16.308999999999997v-1.074c0-1.409.596-1.315-8.383-1.315h-7.753l-.22.482m18.017-.338c-.75.092-1.021.789-.653 1.678l.235.567 6.098-.009c3.354-.004 6.501-.086 6.994-.181.569-.11.939-.1 1.017.025.072.116.168.081.231-.085.072-.187.309-.254.693-.198.858.126 1.28-.363.986-1.143l-.227-.599h-7.107c-3.91 0-7.227-.03-7.373-.067-.146-.036-.548-.031-.894.012m14.848.58c.045.04-1.074.058-2.489.04-1.939-.025-2.302-.065-1.477-.165 1.021-.124 3.779-.036 3.966.125m-56.59 3.244c.057.391.204.955.327 1.253l.225.542 6.275.055c7.695.068 7.004.197 6.931-1.297l-.058-1.202-5.078.041c-2.792.022-5.346.085-5.674.14-.329.055-1.149.023-1.824-.072l-1.226-.172.102.712m14.994.608v1.198h5.244c2.885 0 6.45.058 7.922.128 3.014.145 3.362.021 3.356-1.188-.005-1.134.308-1.088-8.41-1.216l-8.112-.119v1.197m17.445-1.049c-.068.068-.123.658-.123 1.312v1.189l1.045-.125c.575-.069 4.248-.126 8.163-.127l7.118-.002v-.78c0-1.279-.975-2.05-1.505-1.191-.08.129-.387.169-.746.097-.336-.067-3.349-.169-6.696-.226-3.347-.058-6.321-.142-6.609-.187-.288-.046-.58-.028-.647.04m17.597.425c-.422.125-.498.267-.498.935v.787l1.394-.015c2.958-.032 6.54-.292 6.781-.492.175-.146.291-.146.381 0 .071.115.28.202.465.193.208-.01.241-.054.088-.116-.137-.055-.249-.23-.249-.388 0-.41-.964-.726-1.859-.609-.421.055-1.038.004-1.373-.112-.443-.154-.709-.15-.975.016-.202.126-.704.218-1.116.206-.744-.024-.745-.025-.152-.176.329-.084.553-.169.498-.191-.338-.13-2.973-.16-3.385-.038m-26.132 2.841c-.424.238-.456.744-.057.897.239.092 3.983-.719 3.835-.831-.213-.162-3.505-.219-3.778-.066m-22.848.318c0 .188.147.726.326 1.195l.326.853 1.317-.003c2.031-.004 2.213-.092 2.213-1.076 0-1.196-.205-1.311-2.33-1.311-1.617 0-1.852.044-1.852.342m5.635-.092c-.68.311-.746 1.831-.088 2.022 1.286.374 12.143.197 13.567-.221.822-.24 1.74-.489 2.041-.551.472-.098.548-.21.548-.812v-.699l-7.815.03c-4.774.018-7.986.108-8.253.231m50.015.149c.548.235.743.235.597 0-.067-.11-.319-.193-.559-.186-.421.014-.422.021-.038.186m-23.411.078c-.117.111-1.549.303-2.323.312-.768.009-.854.48-.327 1.795.306.767.349.795 1.045.688.399-.061 1.621-.172 2.716-.248 2.238-.154 2.185-.093 1.57-1.779l-.308-.846h-1.145c-.63 0-1.183.035-1.228.078m3.694 1.065c.54 1.326.994 1.527 2.688 1.192.697-.138 1.344-.131 2.102.021 1.505.302 2.002.084 2.293-1.004.126-.47.321-.967.433-1.104.162-.197-.638-.248-3.888-.248h-4.093l.465 1.143m8.273-.319c-.748 1.647-.732 1.657 2.829 1.878l2.136.132.203-.534c.112-.294.203-.83.203-1.191v-.656l-1.742-.13c-.958-.072-2.078-.184-2.489-.249-.725-.115-.757-.094-1.14.75m-17.725.083c-3.811.753-3.996.921-3.215 2.914.196.499.256.522.867.333.361-.112 1.58-.392 2.709-.623 2.029-.415 2.052-.426 1.93-.93-.385-1.601-.538-2.001-.755-1.977-.133.015-.824.142-1.536.283m24.079-.087c-.007.041-.057.591-.11 1.22l-.098 1.145h.82c.451 0 1.25.141 1.777.313 1.223.4 2.314.322 2.275-.163-.015-.192.052-.349.149-.349.098 0 .177.135.177.299 0 .164.08.298.177.298.205 0 .502-1.378.334-1.546-.062-.062-.112-.008-.112.12 0 .362-.359.272-.46-.117-.087-.331-.093-.331-.115 0-.028.424-.421.471-.421.05 0-.164-.134-.299-.299-.299-.164 0-.298-.089-.298-.199 0-.29-1.145-.244-1.253.05-.073.199-.144.199-.355 0-.217-.205-.204-.249.075-.249.186 0 .338-.089.338-.199 0-.109-.246-.2-.547-.201-.301-.001-.884-.058-1.295-.126-.41-.068-.752-.089-.759-.047m-29.355 1.37c-.219.086-.936.312-1.593.504-1.857.542-3.285 1.116-3.285 1.322 0 .102.184.591.409 1.085.455.997.508 1.005 2.578.373.492-.15 1.343-.401 1.891-.557.877-.25 1.001-.352 1.045-.858.079-.922-.557-2.06-1.045-1.869m-20 1.085c.104.104.189.314.189.467 0 .154.139.573.31.931l.309.653 2.007.142c3.737.265 4.523.192 6.362-.593 2.22-.947 2.252-.967 2.326-1.471l.065-.438-5.878.06c-3.713.038-5.809.129-5.69.249m56.707.728c-.184.117-.064.173.376.175.356.001.647-.032.647-.074 0-.181-.776-.258-1.023-.101m-45.169 1.091c-2.744 1.163-2.767 1.19-2.135 2.471.515 1.043.55 1.046 2.533.192.822-.353 1.83-.779 2.24-.945.883-.358.94-.744.29-1.955l-.439-.818-2.489 1.055m-9.937 1.921c.551 1.398.537 1.384 1.087 1.023.878-.575.573-1.157-.95-1.817l-.542-.235.405 1.029m2.72-.367c-.192.146-.349.322-.349.392 0 .25.506.112.996-.271.455-.356.463-.389.099-.387-.219.001-.555.121-.746.266m2.252.637c-.486.267-1.3.753-1.809 1.08-.51.327-1.008.597-1.108.601-.775.027-.898.541-.364 1.514.744 1.357.769 1.371 1.509.81.366-.277 1.493-.917 2.506-1.423 1.013-.507 1.842-.955 1.842-.996 0-.041-.237-.53-.526-1.088-.597-1.15-.783-1.195-2.05-.498" fill="#fbfbfb"/><path d="M83.325 66.426c-2.394.1-2.688.18-2.688.736 0 .964-.714.932 20.226.932h19.748l.097-.509c.206-1.08.174-1.084-7.98-1.085-4.126 0-12.026-.034-17.556-.074-5.53-.041-10.861-.041-11.847 0m27.512 2.196c-.078.078-7.479.12-16.446.093-16.816-.05-16.704-.055-16.451.743.132.416-1.543.374 16.037.394 5.64.007 11.218-.031 12.396-.083 1.286-.057 2.295-.013 2.526.111.216.115.433.128.493.03.128-.207 3.493-.179 3.83.032.294.183.803-.008.935-.351.177-.461-.098-1.131-.414-1.01-.16.061-.506.166-.77.232s-.479.2-.479.298c0 .097-.09.177-.199.177-.11 0-.199-.134-.199-.298 0-.165-.127-.299-.283-.299-.155 0-.406-.048-.558-.106-.151-.058-.339-.042-.418.037m3.651.417c.007.819.166.85 3.899.748 1.969-.053 3.855-.018 4.192.079.766.219 1.119.014 1.032-.6l-.067-.476-3.853-.014c-2.981-.011-3.875.044-3.951.244-.079.204-.161.197-.393-.036-.399-.399-.863-.37-.859.055m-35.571 1.466c-.506.631-.432 13.012.083 14.043l1.252 2.54c1.491 3.033 4.864 5.778 7.657 6.232.381.061.692.195.692.296 0 .102.471.178 1.046.17.575-.008 2.187.042 3.584.112 1.971.099 2.61.068 2.859-.138.27-.224.358-.213.569.075.289.396.726.457.653.092-.06-.301 3.94-.285 5.524.023.547.106 1.041.117 1.098.024.128-.207 1.469-.246 5.037-.146 2.636.074 4.099-.194 3.163-.581-.174-.072-.054-.259.366-.568.344-.254.804-.823 1.022-1.264.617-1.247 1.807-2.464 2.98-3.047 2.373-1.181 3.796-1.758 4.337-1.758.881 0 1.384-.556 1.62-1.792.677-3.531.647-13.784-.041-14.152-.639-.342-43.23-.499-43.501-.161m2.056 2.747c.088.336.364.394 2.42.507 3.18.176 3.105.162 3.186.586.057.3-.004.345-.297.221-.464-.196-4.198-.357-4.799-.206-.446.112-.448.127-.448 4.19 0 3.77-.117 4.639-.503 3.73-.153-.36-.293-8.993-.151-9.259.152-.282.493-.149.592.231m40.082.516c0 .398-.099.498-.498.498-.273 0-.497-.09-.497-.199 0-.11.125-.199.277-.199.153 0 .329-.135.392-.299.173-.452.326-.359.326.199m-22.908.534c-.322.196-.589.469-.592.608-.004.152-.083.12-.2-.08-.322-.551-.031-.924.706-.903l.671.019-.585.356m17.868-.305c-.071.071-.333.23-.581.353-.489.243-.636 1.387-.756 5.889-.046 1.707-.076 1.523-.308-1.892-.31-4.575-.329-4.479.858-4.479.504 0 .858.058.787.129m-12.083.25c0 .162-1.574.066-1.775-.108-.046-.04.335-.072.846-.072.511 0 .929.081.929.18m-6.371 2.906c0 .995-.082 1.692-.199 1.692-.222 0-.262-1.486-.071-2.638.192-1.164.27-.892.27.946m12.54-.819c1.195.018 1.502.085 1.552.341.053.272-.074.295-.893.161-1.66-.273-3.167-.215-3.456.133-.3.362-.378 3.159-.105 3.735.145.305.1.355-.268.299-.391-.06-.448-.203-.501-1.262-.134-2.705.375-3.852 1.584-3.569.328.077 1.268.15 2.087.162m-19.913.271c-.012.282-.531.84-.661.711-.294-.295-.118-.86.269-.86.219 0 .395.067.392.149m4.386.05c0 .11-.134.199-.298.199-.165 0-.299-.089-.299-.199 0-.109.134-.199.299-.199.164 0 .298.09.298.199m-21.821 2.537c-.549.549-.246.903.983 1.148 1.483.296 1.527.385 1.416 2.85-.13 2.888-.395 3.221-2.565 3.221-1.229 0-1.493-.165-3.708-2.327-1.147-1.12-1.675-1.496-2.229-1.586-1.831-.297-2.48.769-.768 1.263.686.198 1.351.717 3.086 2.411 3.18 3.104 2.652 2.888 7.312 2.991 4.424.097 4.259.163 3.362-1.358-.329-.557-.598-1.083-.598-1.169 0-.086-.224-.707-.497-1.381-.431-1.059-.498-1.533-.498-3.494 0-1.578-.076-2.33-.249-2.468-.453-.36-4.702-.446-5.047-.101m50.877.3c-.008.028-.055 1.036-.106 2.24-.05 1.205-.225 2.739-.387 3.41-.374 1.541-.294 1.728.859 2.002 1.276.303 1.314.226 1.259-2.518-.032-1.603.023-2.396.166-2.396.142 0 .214.903.214 2.673 0 3.259.075 3.366 2.506 3.594 2.074.194 1.973.424 1.973-4.502 0-4.913.176-4.586-2.418-4.51l-1.962.057-.121.796-.121.797-.028-.846-.028-.846h-.896c-.493 0-.903.022-.91.049m-25.997 1.443c-.062.163-.194.248-.292.187-.212-.131-.238-.956-.037-1.157.197-.197.469.606.329.97m-7.837-.099c0 .221-.133.398-.299.398-.303 0-.408-.421-.166-.663.253-.253.465-.131.465.265m25.052 3.35l.168 1.23h-.564c-.658 0-.68-.138-.252-1.577.376-1.265.432-1.235.648.347m-33.555.309c.1.301.13.599.067.663-.221.22-.723-.391-.723-.878 0-.638.417-.501.656.215m38.568 3.238c-10.526 2.016-9.511 17.175 1.175 17.557 6.551.234 10.68-5.217 8.72-11.512-1.253-4.023-5.836-6.823-9.895-6.045m4.074 2.084c2.015.98 2.952 1.973 3.999 4.24.996 2.154.821 2.897-.519 2.204-.472-.244-.817-.264-1.809-.105-.673.109-1.297.153-1.386.098-.22-.136.009-.682.291-.692.797-.028 3.035-2.381 2.265-2.381-.677 0-2.734 1.228-2.734 1.632 0 .34-.05.366-.299.16-.435-.362-.377-.647.398-1.932.834-1.382.947-2.354.249-2.137-.246.076-.515.239-.598.362-.544.808-1.144 1.971-1.144 2.219 0 .161-.162.293-.361.293-.306 0-.535-3.901-.266-4.551.054-.129 1.096.192 1.914.59m-2.552-.17c-.518 1.25-.592 1.824-.37 2.883.441 2.102-.216 1.977-1.368-.26-.484-.939-.998-1.807-1.144-1.929-.208-.174-.08-.296.597-.571 1.035-.42 2.44-.496 2.285-.123m-45.814 2.079c-5.199 1.181-6.966 8.272-2.944 11.812 2.977 2.621 7.322 2.536 9.873-.191 4.808-5.14.004-13.196-6.929-11.621m42.301.061c.219.219.398.505.398.636 0 .355 1.02 1.761 1.198 1.651.236-.145.38.402.187.713-.14.226-.271.201-.734-.141-.881-.652-2.276-1.324-3.04-1.465l-.697-.129.879-.831c.993-.94 1.243-1 1.809-.434m-40.618 1.792c0 .109-.089.199-.199.199-.109 0-.199.443-.199.984 0 .541.09 1.039.199 1.107.323.199.235.698-.099.569-.165-.063-.299-.231-.299-.373s-.314-.634-.697-1.092c-.795-.952-.831-1.097-.348-1.378.451-.263 1.642-.274 1.642-.016m1.913.312c.098.389.004.64-.395 1.056-.287.3-.533.719-.546.932-.014.214-.102-.142-.196-.79-.186-1.271-.022-1.709.639-1.709.231 0 .418.191.498.511m37.307.534l1.521 1.045c.198.138.332.126.435-.039.204-.326.725.018.584.385-.083.218-.575.295-2.069.324-1.078.021-2.11.084-2.292.14-.509.157-.573-.153-.255-1.224.539-1.814.407-1.774 2.076-.631m-41.693.398c.078.247.358.791.623 1.21.631 1 .498 1.307-.283.65-.343-.29-.9-.622-1.237-.739-.724-.253-.762-.487-.179-1.108.546-.581.895-.585 1.076-.013m6.345-.005c.471.673.392.808-.823 1.398-1.325.644-1.494.589-.784-.255.288-.341.577-.838.644-1.103.151-.603.557-.619.963-.04m39.838 1.328c-.07.221.014.51.2.697.285.285.286.32.011.32-.335 0-.635-.841-.423-1.184.211-.342.342-.24.212.167m-26.487.204l-.797.123.672.146c.967.209 2.215.179 2.215-.054 0-.109-.171-.199-.381-.199-.211 0-.502-.031-.648-.07-.145-.039-.623-.015-1.061.054m6.073.116c0 .164.089.299.199.299.109 0 .199-.135.199-.299 0-.164-.09-.299-.199-.299-.11 0-.199.135-.199.299m1.288-.09c-.19.306.069.504.325.248.143-.143.146-.254.01-.338-.111-.069-.262-.028-.335.09m3.568.025c-.166.269.405.393.925.201.463-.172.458-.181-.171-.273-.358-.052-.697-.02-.754.072m-31.442.658c.946.809.941.817-.65.955-1.368.118-1.409.056-.792-1.2.292-.594.503-.559 1.442.245m8.37.117c.165.98.249.92-1.147.824-1.351-.092-1.431-.285-.349-.837.438-.224.797-.494.797-.602 0-.601.579-.091.699.615m15.826-.511c0 .183.097.3.214.261.118-.04.214-.157.214-.261 0-.104-.096-.221-.214-.26-.117-.04-.214.077-.214.26m10.055-.1c.892.227 2.448.227 2.588 0 .079-.127-.473-.19-1.531-.175-1.186.017-1.485.066-1.057.175m20.318 1.49c-.597 1.901-1.142 1.974-2.896.386-.274-.248-.767-.48-1.095-.516-1.509-.165-.631-.66 1.528-.862 1.169-.109 2.193-.268 2.276-.352.412-.417.513.309.187 1.344m-11.557-.995c.438-.001 1.096-.077 1.462-.169 1.231-.308.637.418-1.164 1.422-1.242.692-1.692 1.049-1.692 1.34 0 .504.797.648 1.261.228.182-.165.744-.477 1.249-.694.504-.216.972-.536 1.039-.711.067-.175.214-.318.327-.318.345 0 .229.714-.175 1.08-.21.189-.68 1.009-1.046 1.822-.774 1.723-.802 1.733-1.799.664-1.322-1.418-2.112-2.783-2.261-3.908l-.138-1.039 1.07.143c.589.079 1.429.142 1.867.14m9.668 2.887c.171.002.479.126.684.277.955.698-4.21 4.203-5.226 3.547-.287-.186-.115-4.418.18-4.418.093 0 .169.076.169.168 0 .706 2.222 3.251 2.551 2.922.146-.146-.81-2.062-1.527-3.062-.748-1.042-.226-1.118 1.442-.209.779.425 1.556.774 1.727.775m-52.445-.992c.781 0 .504.589-.575 1.223-1.035.608-1.127.565-1.42-.662-.129-.542.444-.835 1.234-.63.146.038.488.069.761.069m8.033.672c0 .927-.42 1.248-.915.7-.208-.229-.625-.545-.926-.701-.864-.447-.648-.671.646-.671h1.195v.672m39.223-.293c0 .076-.101.24-.226.365-.331.33-.358 3-.034 3.27.82.68-.345 1.009-1.972.557-1.06-.295-1.07-.444-.117-1.798.471-.669 1.062-1.562 1.314-1.985.399-.672 1.035-.923 1.035-.409m-45.965 1.483c-.224.238-.548.77-.72 1.181-.346.829-.758.797-1.392-.108-.372-.531 0-.944.851-.944.279 0 .704-.244 1.007-.577.387-.425.543-.499.593-.281.037.163-.115.491-.339.729m4.054-.469c.198.219.476.399.617.399.737 0 1.329.884.925 1.382-.511.632-.912.442-1.216-.574-.169-.565-.402-.885-.735-1.012-.268-.101-.487-.277-.487-.389 0-.34.513-.229.896.194m-2.404.738c-.221.754-.235.844-.261 1.701-.021.678-.073.747-.57.741-1.13-.013-1.318-.443-.526-1.206.388-.374.835-.984.992-1.357.332-.788.604-.698.365.121m2.085 1.539c.514.318.098.839-.805 1.009l-.724.135.093-1.362c.136-1.967.219-2.07.748-.928.258.556.567 1.072.688 1.146m18.736 21.164c-1.762.67-2.508 2.839-1.593 4.633.219.429.399.829.399.888 0 .059-.986.108-2.191.108-2.443 0-3.16.313-2.873 1.254.316 1.039.553 1.12 3.447 1.179l2.712.055-.015 2.589c-.063 11.242-1.087 12.821-5.709 8.801-1.347-1.171-1.359-1.222-.44-1.764.388-.229.672-.517.631-.64-.118-.354-3.962-1.916-4.588-1.864l-.564.046-.003 2.389c-.002 1.315.005 2.502.016 2.639.032.404.456.286 1.066-.298l.57-.546 1.185 1.325c1.513 1.693 3.178 2.886 6.019 4.311 1.056.53 3.22 2.51 3.048 2.788-.369.597 1.173-.207 2.184-1.139.666-.614 1.562-1.293 1.992-1.51 3.378-1.706 5.768-3.57 6.578-5.131.337-.648.36-.652 1.04-.181 1.257.87 1.718.689 1.378-.54-.11-.397-.143-1.33-.074-2.073.219-2.364-.075-2.717-1.575-1.9-.436.238-1.42.666-2.187.953-1.555.581-1.747.939-.751 1.402.855.397.82.585-.294 1.622-2.419 2.25-4.746 2.619-5.198.826-.212-.841-.749-8.594-.735-10.601.012-1.57-.021-1.555 3.439-1.583l2.434-.02.304-.588c.717-1.388.035-1.801-2.972-1.801-2.281 0-2.285-.002-1.707-.736 2-2.543-1.666-6.151-4.973-4.893m3.041 2.46c.486.601.312 1.283-.55 2.156l-.67.679-.558-.366c-1.287-.842-1.623-1.927-.841-2.708.57-.571 2.074-.433 2.619.239" fill="#efce10"/><path d="M52.53.946c26.428.028 69.613.028 95.968 0 26.355-.028 4.732-.051-48.05-.051s-74.346.023-47.918.051m198.291 0c22.586.028 59.545.028 82.131 0s4.106-.051-41.065-.051c-45.172 0-63.652.023-41.066.051m141.453-.001c1.171.035 3.142.035 4.38 0s.28-.064-2.129-.064c-2.41 0-3.422.029-2.251.064m6.805 24.043c0 1.204.033 1.671.073 1.038.039-.634.039-1.62-.001-2.191-.04-.57-.072-.052-.072 1.153m-199.537 2.727c-.182.183-.228 3.705-.191 14.883l.048 14.644.101-14.733.102-14.734 98.855-.1 98.855-.1-98.765-.049c-76.608-.039-98.82.004-99.005.189m-144.099 28.681c-.052.137-.072 9.522-.044 20.856l.052 20.608.099-20.857c.055-11.47.074-20.856.044-20.856-.031 0-.099.112-.151.249m88.579 1.344c0 .931.034 1.312.076.846.042-.465.042-1.227 0-1.692-.042-.465-.076-.085-.076.846m255.048 4.48c.001.767.037 1.056.08.643.043-.413.042-1.041-.002-1.394-.044-.354-.079-.016-.078.751m-.002 19.612c0 .712.036 1.003.081.647.044-.356.044-.938 0-1.294-.045-.356-.081-.065-.081.647m-199.632 2.92c-.184.184-.168 29.488.016 29.603.083.05.126-6.546.097-14.659-.041-11.709 0-14.784.2-14.911.147-.093.162-.161.035-.163-.118-.001-.275.057-.348.13m-114.337 11.643c-.185.3.796.369 5.062.352 2.854-.012 4.293-.081 3.916-.188-.708-.201-8.863-.35-8.978-.164m58.718 2.56c0 .712.036 1.003.08.647.044-.356.044-.938 0-1.294-.044-.356-.08-.065-.08.647m-37.844 7.714c1.287.035 3.392.035 4.679 0 1.287-.034.234-.063-2.339-.063-2.574 0-3.627.029-2.34.063m17.225.192c.248.047.606.045.796-.004.191-.05-.012-.089-.45-.087-.438.002-.594.043-.346.091m2.885.001c.301.046.794.046 1.095 0 .301-.045.054-.083-.548-.083-.602 0-.849.038-.547.083m-64.361 1.796c2.792.068 2.987.163 2.987 1.453 0 1.01-.493 1.188-3.295 1.188-1.387 0-2.28.078-2.28.199 0 .11.201.205.448.213.246.007 3.299.04 6.783.073 6.382.06 6.598.086 6.764.809.05.219.056.063.014-.348-.066-.641-.02-.747.324-.747.282 0 .402.133.404.448.002.301.055.366.162.197.219-.345 4.339-.449 11.134-.281 4.279.106 5.426.081 5.426-.115-.001-.137.229-.249.509-.249s.46.081.399.179c-.062.1 1.046.223 2.527.28 3.219.123 6.151.082 5.962-.083-.486-.426-2.044-.516-9.14-.528-4.294-.007-7.9-.07-8.014-.141-.114-.071-.208.011-.208.182 0 .37-.37.415-.506.061-.072-.19-.764-.223-2.93-.141-1.56.06-5.277.069-8.261.022l-5.425-.087-.305-.612c-.354-.709-.225-1.623.27-1.912.183-.107.232-.197.108-.2-.123-.004-.334.126-.467.287-.215.258-.279.258-.537 0-.232-.232-.817-.284-2.817-.25l-2.525.043 2.489.06m19.214-.003c.438.042.908.223 1.045.403.137.179.249.237.249.129 0-.419-.511-.674-1.284-.642l-.807.034.797.076m10.931.052c7.113.1 7.351.116 7.502.502.107.275.159.302.169.089.035-.762-.238-.788-7.741-.74l-7.277.046 7.347.103m8.73-.058c.192.05.506.05.697 0 .192-.05.035-.091-.348-.091-.384 0-.54.041-.349.091m1.792.005c.301.046.794.046 1.095 0 .301-.045.055-.083-.547-.083-.603 0-.849.038-.548.083m-20.02.803c-.046.083-.138.419-.203.747-.066.329-.07.485-.011.347.06-.137.191-.199.291-.137.1.062.182-.162.182-.497 0-.596-.092-.758-.259-.46m-17.109 1.805c.044.131-.102.236-.329.236-.287 0-.374-.092-.291-.307.13-.34.498-.298.62.071m34.936.096c.19.153.287.338.216.409-.072.071-.025.129.102.129.392 0 .258-.371-.215-.601-.402-.195-.413-.188-.103.063m-9.518 2.003c0 1.048.018 1.094.259.635.212-.406.212-.608 0-1.129-.257-.63-.259-.626-.259.494m-16.97.029c-.036 1.059.079 1.374.558 1.532.164.054-1.04.09-2.676.08-1.636-.011-2.72-.064-2.408-.119.312-.055-1.619-.105-4.292-.112-4.136-.01-4.415.006-1.874.108 1.643.066 2.86.138 2.704.161-.156.023-.455.198-.665.388-.363.328-.395.328-.635 0-.217-.297-.57-.341-2.521-.309l-2.267.037 2.232.112c2.372.12 2.793.312 2.858 1.307l.027.399.129-.399c.417-1.282-.237-1.188 8.769-1.25l8.17-.057.189.654c.103.359.196.491.206.292.048-.962-.283-1.129-2.329-1.177-1.063-.024.396-.094 3.243-.154l5.177-.11-4.878-.041c-2.683-.022-5.675.043-6.649.145-2.406.253-2.858.034-2.961-1.437l-.073-1.046-.034.996m169.498 1.044c92.557.136 155.751.136 155.668.001-.051-.082-42.847-.127-95.103-.1-52.256.027-79.51.072-60.565.099m-151.843.304c.084.084 2.029.129 4.321.099l4.167-.054-4.321-.099c-2.377-.055-4.252-.031-4.167.054m-8.384.485c.248.048.606.046.796-.004.191-.05-.012-.089-.45-.087-.438.003-.594.043-.346.091m2.536-.001c.767.033 1.618.118 1.892.188l.497.128-.497.15c-.406.123-.424.154-.1.168.219.009.53-.067.69-.168.51-.323-.676-.609-2.345-.567l-1.531.039 1.394.062m25.884.241l-.598.134.624.131c.343.072.872.193 1.175.27.39.097.509.071.409-.09-.077-.126-.365-.229-.638-.229-.281 0-.444-.086-.375-.199.068-.109.095-.188.062-.175l-.659.158m-15.182.162c.411.043 1.083.043 1.493 0 .411-.043.075-.078-.746-.078-.822 0-1.158.035-.747.078m5.475-.001c.356.045.939.045 1.295 0 .355-.044.064-.08-.648-.08-.711 0-1.003.036-.647.08m14.959.41c-.065.396-.036.582.074.471.101-.1.149-.394.109-.653-.063-.399-.091-.371-.183.182m-23.719-.211c.356.045.938.045 1.294 0 .356-.044.065-.08-.647-.08s-1.003.036-.647.08m11.373.205c-.238.303-.235.318.026.116.165-.128.613-.271.996-.317l.696-.084-.722-.032c-.48-.021-.814.085-.996.317m-19.586.249c-.508.218.016.218.697 0 .4-.128.419-.161.099-.166-.219-.003-.577.072-.796.166m18.942.1c-.07.183-.051.469.043.636.143.256.187.241.274-.094.138-.529-.14-1.004-.317-.542m-14.743 1.491c.164.553.257 1.073.207 1.155-.051.081.264.158.7.169.711.019.747-.002.349-.203-.245-.123-.549-.536-.677-.919-.157-.467-.271-.597-.35-.398-.079.203-.121.159-.132-.139-.008-.24-.101-.489-.206-.554-.104-.065-.056.335.109.889m-24.258-.43c-.116.444-.901.631-2.645.631-1.151 0-1.243.031-1.147.396.057.217.161.36.231.317.444-.275 11.802-.196 11.998.083.177.251.193.243.099-.05-.072-.224-.008-.348.18-.348.161 0 .292.174.292.386 0 .823 1.273.755 1.592-.084.165-.434.323-.492 1.536-.564.744-.045.501-.054-.539-.021-5.182.166-10.606-.152-11.066-.649-.404-.435-.441-.442-.531-.097m38.462.282c-.265.603-.367.655-1.479.763l-1.195.116 1.131.034c.767.022 1.224-.061 1.424-.261.258-.258.307-.258.406 0 .071.187.351.282.766.262l.653-.032-.663-.081c-.486-.06-.633-.16-.55-.377.067-.172.029-.243-.091-.169-.132.082-.159-.057-.076-.387.178-.711.016-.645-.326.132m-20.544.029c-.263.199-.317.423-.221.906.095.472.177.571.315.375.128-.18.15-.093.071.271-.064.294-.036.585.063.646.328.202.392-.428.123-1.208-.184-.535-.202-.846-.059-1.019.263-.318.151-.307-.292.029m-17.322.469c.052.156-.108.249-.431.249-.503 0-.655-.192-.375-.472.205-.204.711-.065.806.223m30.917-.223c-.013.479.576.691 1.72.62l1.161-.073-1.234-.037c-.939-.029-1.283-.122-1.438-.387-.111-.191-.205-.247-.209-.123m-.902.472l-.597.152.536.023c.294.013.591-.066.659-.175.067-.11.095-.189.061-.176l-.659.176m4.132-.062c.191.05.505.05.697 0 .191-.05.034-.091-.349-.091s-.54.041-.348.091m-24.449.446c.139.224-.604.488-.886.314-.11-.068-.2-.209-.2-.312 0-.242.936-.244 1.086-.002m17.679-.042c.301.045.794.045 1.095 0 .301-.046.055-.083-.547-.083-.603 0-.849.037-.548.083m13.144 0c.302.046.75.044.995-.003s-.002-.085-.55-.083c-.548.001-.748.04-.445.086m293.284.753c.002.548.041.748.086.445.046-.302.045-.75-.002-.995-.048-.245-.085.002-.084.55m-291.296-.56c.192.05.505.05.697 0 .192-.05.035-.091-.349-.091-.383 0-.54.041-.348.091m-32.394.838c.692.301 1.294 2.362.796 2.726-.212.155-.296.281-.187.281.324 0 .675-.451.675-.867 0-.376.013-.377.398-.029.324.293.481.318.846.136.432-.216.429-.221-.077-.115-.387.082-.601.002-.814-.302-.159-.227-.353-.349-.431-.271-.078.078-.085-.007-.015-.188.069-.182.032-.493-.083-.691-.161-.277-.212-.291-.219-.062-.005.17-.117.085-.26-.197-.138-.273-.428-.519-.644-.548-.373-.048-.372-.042.015.127m-2.499.723c-.931.372-1.76.679-1.842.684-.329.017-.122-.373.264-.495.228-.072.37-.174.318-.227-.053-.053-.441.086-.862.308-.554.292-.655.407-.367.417.374.012.369.036-.073.376-.348.268-.436.474-.335.792.085.269.051.429-.091.429-.652 0 .715 1.693 1.398 1.731.585.032.616.015.196-.108-.282-.083-.63-.425-.805-.793-.169-.355-.353-.601-.408-.545-.056.056-.11-.189-.12-.543-.018-.619.042-.67 1.504-1.287 2.81-1.184 3.315-1.413 3.115-1.414-.11-.001-.961.303-1.892.675m-10.154 1.062c0 .125.228.227.507.227.289 0 .711.22.98.51.423.457.482.472.56.149.048-.198.047-.047-.002.336-.05.383-.192.831-.317.996-.167.218-.122.21.167-.03.217-.18.574-.371.793-.424.322-.079.331-.102.049-.121-.527-.034-.46-.956.083-1.128.659-.209.08-.444-1.492-.605-.94-.097-1.328-.07-1.328.09m4.43.159c-.137.056-.249.22-.249.366s-.246.457-.548.692c-.384.299-.418.363-.115.217.238-.115.604-.427.814-.693.231-.294.647-.517 1.06-.567l.68-.083-.696-.016c-.384-.009-.809.029-.946.084m-1.005 1.945c-.976.69-1.044.843-.14.316.935-.546 1.257-.804.986-.79-.104.006-.485.219-.846.474m-1.982 1.042c-.137.055-.242.295-.233.532.011.287.052.331.123.133.058-.165.248-.411.42-.548.314-.249.16-.307-.31-.117m60.076 16.941l-1.688 1.742 1.742-1.688c1.618-1.567 1.833-1.796 1.688-1.796-.03 0-.814.784-1.742 1.742m75.199.382c-.184.184-.168 29.289.016 29.403.083.051.15-6.574.15-14.722 0-8.147-.008-14.814-.017-14.814l-.149.133m-196.39 56.163c.964.036 2.487.036 3.385-.001.898-.036.11-.066-1.752-.066s-2.596.03-1.633.067" fill="#a3a2ae"/><path d="M236.137 57.292c96.586.135 162.82.135 162.737 0-.051-.082-44.773-.127-99.384-.1-54.61.027-83.119.072-63.353.1m-32.603 27.476c1.615.034 4.258.034 5.874 0 1.615-.033.293-.061-2.937-.061-3.231 0-4.552.028-2.937.061m54.969.001c25.387.027 66.871.027 92.185 0 25.315-.028 4.543-.051-46.158-.051-50.702 0-71.414.023-46.027.051m-136.699 22.092c.248.047.606.045.797-.004.19-.05-.013-.089-.451-.087-.438.002-.593.043-.346.091m6.718.085c.547.102 1.361.18 1.808.173.448-.007 1.03.074 1.295.18l.481.192-.498.028c-.274.015-.812.057-1.195.092-.383.035-3.372.078-6.642.095-3.271.017-5.9.077-5.844.133.057.057 3.628.083 7.937.06 4.309-.024 8.167-.033 8.572-.019.406.013.783-.049.838-.137.055-.089.64-.074 1.3.032.908.146 1.273.132 1.502-.057.443-.368.367-.664-.136-.532-.241.063-.538.031-.661-.07-.289-.24-4.458-.388-4.597-.163-.059.094-.167.135-.242.089-.074-.045-1.211-.127-2.525-.182-1.822-.076-2.153-.055-1.393.086m12.305.258c.267.202.292.297.099.37-.142.053.025.094.373.089.443-.005.66-.117.728-.376.082-.315-.023-.367-.732-.362-.742.006-.79.034-.468.279m-2.166.181c-.15.389.048.728.425.728.374 0 .368-.48-.009-.794-.24-.199-.32-.186-.416.066m-20.144 1.269c.301.046.794.046 1.095 0 .301-.045.055-.083-.548-.083-.602 0-.848.038-.547.083m5.375.197c2.788.054 3.535.124 3.535.335 0 .195.52.305 1.935.409 2.241.164 2.281.179 2.065.765-.134.361-.341.452-1.136.497l-2.566.147c-4.551.262-9.701.33-9.901.13-.117-.117-.286-.553-.376-.97l-.163-.756.078.87c.111 1.255.125 1.26 4.076 1.373 2.104.061 3.598.183 3.598.295 0 .106-.141.138-.315.071-.173-.066-2.637-.121-5.475-.121-3.308 0-5.16-.071-5.16-.199 0-.11.522-.199 1.17-.199.737 0 1.252-.099 1.392-.268.302-.363.505-1.451.295-1.579-.093-.057-.186.215-.207.604-.055 1.023.132.997-7.807 1.089-4.438.052-7.482.167-7.785.294-.603.254 3.19.576 4.73.403 1.087-.123 1.77.09 1.9.591.075.291.098.298.116.035.03-.418-.306-.687-1.171-.934-.555-.158-.142-.202 2.029-.217 1.623-.01 2.776.063 2.849.181.078.126-.422.199-1.359.199-1.693 0-1.997.245-2.298 1.852-.14.753-.116.851.211.851.316 0 .355-.12.272-.826-.187-1.589-.2-1.585 5.1-1.524 12.78.148 11.987.053 11.872 1.422l-.06.714-1.493.124c-.822.067-3.554.141-6.073.164-3.72.033-7.562.279-6.002.384.248.017.331.127.252.334-.104.271.097.292 1.621.175 1.971-.152 2.664-.421.814-.316-.702.04-1.298-.022-1.425-.149-.158-.158 1.525-.218 6.099-.218h6.316l.211-.548.21-.547.289.547.289.548 3.328-.001c1.831 0 4.879-.059 6.774-.131l3.445-.131.288-.689c.605-1.448.495-1.58-1.354-1.615-.904-.017-2.36-.1-3.236-.185-.876-.085-3.339-.15-5.474-.145l-3.882.01-.209.644-.209.643-.356-.604c-.659-1.114-.546-1.148 3.796-1.137 4.911.013 5.129-.05 4.994-1.446-.131-1.371.349-1.284-7.188-1.299-3.741-.008-5.212.016-3.269.054m5.771.292c-.945.119-1.566.112-1.792-.02-.249-.145.153-.196 1.447-.181l1.792.019-1.447.182m5.214.479c-.172.916.165 1.671.758 1.698.249.012 1.528.016 2.842.009l2.389-.013.206-.596c.113-.328.27-.66.349-.739.078-.078.142-.351.142-.607v-.464h-6.552l-.134.712m-28.954 2.075c0 .11-.174.199-.386.199-.213 0-.442-.089-.51-.199-.069-.113.098-.199.387-.199.28 0 .509.09.509.199m7.268-.071c.485.186-.008.432-.629.313-.369-.07-.432-.141-.236-.265.325-.206.438-.212.865-.048m15.507 1.1c.45.128.893.297.984.374.091.078.578.018 1.083-.134 1.403-.423 2.145.018 1.291.767-.305.267-2.603.547-4.799.584-1.35.023-.922-1.396.545-1.802.042-.012.445.083.896.211m5.133.725c-.536.081-.727-.042-.539-.347.092-.149.264-.139.568.032l.436.245-.465.07m-27.957 1.373c.246.048.649.048.896 0 .246-.047.044-.086-.448-.086-.493 0-.695.039-.448.086m3.683.003c.301.045.794.045 1.095 0 .301-.046.055-.083-.547-.083-.603 0-.849.037-.548.083m8.389.592c-.217.198-.287.29-.157.204.239-.158 10.547.154 12.671.382 2.501.27 1.086 1.451-1.911 1.595-.891.042-1.889.155-2.217.25-1.03.298-5.292.14-5.976-.222-.33-.174-1.047-.367-1.593-.427l-.993-.11.896.207c.493.113 1.265.378 1.716.589.814.38 2.031.522 4.806.56 1.394.019 1.437.034 1.196.419-.84 1.345 3.566 3.116 7.292 2.931 1.217-.06 2.436-.04 2.71.045.527.163.482.2-.697.558-.328.1-.605.264-.614.364-.01.101-.092.353-.183.562-.123.282-.049.474.288.747.808.653.979.517 1.665-1.325.163-.438.519-1.29.791-1.892 1.012-2.236 1.316-2.025-3.042-2.11-2.384-.047-2.588-.069-2.588-.279 0-.11.336-.2.747-.202 1.247-.004 1.642-.184 1.642-.748v-.506l.493.574c.471.548.568.573 2.208.578l1.715.005.38-.995c.628-1.643.684-1.596-1.879-1.574-2.525.022-2.709.079-2.738.839-.016.45-.04.472-.149.137-.366-1.127-.189-1.086-5.114-1.187-2.515-.052-6.012-.148-7.772-.212-2.905-.106-3.235-.084-3.593.243m-7.61 1.754c-.02.219-.086.756-.147 1.194-.089.638-.066.727.113.446.123-.193.189-.731.147-1.195-.042-.464-.092-.664-.113-.445m-.484.419c-.08.08-.14.376-.133.659l.013.515.192-.481c.207-.518.164-.93-.072-.693m9.212.782c.712.266 1.383.456 1.491.422.211-.066-2.225-.933-2.575-.916-.115.006.372.228 1.084.494m12.726-.023c-.191.191-3.379.297-3.803.127-.328-.132.167-.189 1.713-.198 1.195-.007 2.136.025 2.09.071m-10.536.704c.165.111.433.206.598.21.164.004.505.166.757.36l.458.353-.408.953c-.512 1.194-.507 1.352.022.722l.418-.498-.123.498c-.068.273.052.129.267-.32.632-1.323.711-1.337 2.547-.463.902.431 1.726.783 1.83.783.335 0 1.001.858.995 1.282-.013.828-1.134 1.493-1.649.978-.154-.154-2.141-.853-2.426-.854-.11-.001.643.355 1.672.789 2.055.868 2.143.858 2.707-.33.597-1.258.387-1.49-2.405-2.661l-2.512-1.053-.487.576-.487.576.122-.635c.106-.554.05-.672-.439-.918-.713-.36-1.889-.64-1.457-.348m6.698.109c.076.198.392.299.939.301 1.112.004 1.721.186 1.721.516 0 .165.318.324.804.402.46.073.773.224.73.35-.102.306-1.235.285-2.43-.045-3.017-.834-3.086-.866-3.086-1.436 0-.483 1.141-.559 1.322-.088m-11.144.033c-.073.073-.127.319-.12.547.011.382.028.377.203-.062.195-.487.155-.723-.083-.485m6.609 3.439c.258.226.564.41.68.41.245 0 .233-.01-.553-.47l-.597-.35.47.41m9.186-.011c0 .097.224.323.498.503.274.179.498.241.498.138 0-.103.054-.329.121-.502.094-.246-.016-.315-.498-.315-.34 0-.619.079-.619.176m-3.103.561c-1.088 1.62-1.078 1.669.484 2.405.619.292 1.789.907 2.599 1.367 1.443.82 2.388.84 1.894.041-.081-.13-.057-.178.054-.109.17.105 1.163-1.424 1.014-1.561-.053-.049-.73-.423-3.24-1.791-1.775-.968-2.344-1.039-2.805-.352m1.361.818c-.027.13.062.237.199.238.137.001.402.27.588.597.384.675.381.678-.379.373-1.007-.405-1.349-.535-1.715-.653-.425-.137-.27-.474.332-.72.547-.224 1.039-.141.975.165" fill="#e99a9c"/><path d="M.873 1.083c-.061.158-.068.449-.017.648.062.238.101.178.116-.18l.024-.541 1.841-.065 1.842-.066-1.848-.041c-1.453-.033-1.871.02-1.958.245m198.779-.138c1.889.033 4.98.033 6.869 0 1.889-.032.343-.059-3.435-.059s-5.323.027-3.434.059m178.297.001c2.273.031 5.991.031 8.263 0 2.272-.032.413-.059-4.131-.059-4.545 0-6.404.027-4.132.059m21.055 10.96l.1 11.091.051-10.94c.029-6.016-.016-11.007-.099-11.09-.083-.083-.106 4.84-.052 10.939m-1.443 15.711c.246.047.65.047.896 0 .246-.048.045-.086-.448-.086s-.694.038-.448.086m-197.967.307c-.052.137-.071 6.7-.042 14.585l.052 14.335.049-14.471.048-14.472.548-.083.547-.083-.553-.03c-.305-.016-.597.082-.649.219m1.952-.106c.302.046.75.045.995-.002.245-.048-.002-.085-.55-.084-.547.002-.748.041-.445.086m-145.866 28.479c-.051.082.638.125 1.531.095 2.791-.092 3.107-.176.79-.211-1.226-.019-2.27.034-2.321.116m25.106 0c9.445.028 24.901.028 34.346 0 9.445-.029 1.717-.052-17.173-.052-18.89 0-26.618.023-17.173.052m58.545-.002c.689.039 1.764.039 2.389-.001.625-.039.062-.071-1.252-.071-1.314.001-1.826.033-1.137.072m259.672 2.798l.098 1.932.06-1.773c.032-.976-.012-1.845-.099-1.933-.086-.087-.113.711-.059 1.774m.093 12.983c0 4.763.026 6.712.058 4.33.031-2.382.031-6.279 0-8.661-.032-2.382-.058-.433-.058 4.331m-283.471-3.571c.07.268.176.344.303.216.206-.206.044-.627-.242-.627-.092 0-.12.185-.061.411m-3.789-.066c-.048.084.074.319.272.522.35.359.356.357.249-.053-.122-.468-.385-.705-.521-.469m2.361.674c.061.178-.034.469-.213.647-.386.386-.142.422.347.051.306-.233.311-.302.049-.641-.214-.276-.264-.292-.183-.057m-35.65.779c-.344.154-.324.171.141.127.297-.029.603-.115.681-.192.193-.194-.338-.151-.822.065m3.031-.059c-1.217.096-1.028.451.241.451 1.335 0 2.308-.209 1.97-.424-.264-.167-.41-.169-2.211-.027m25.258.036c.047.047.568.092 1.16.1.591.009.972-.052.845-.134-.233-.153-2.159-.12-2.005.034m2.597-.025c-.053.087.21.122.586.078s.683-.115.683-.158c0-.15-1.172-.076-1.269.08m2.065.053c-.345.107-.2.133.47.083.532-.039 1.003-.107 1.048-.152.143-.143-1.004-.092-1.518.069m7.677-.03c-.063.102.253.133.735.072 1.121-.143 1.206-.253.195-.253-.45 0-.868.081-.93.181m-34.108.156c.192.05.505.05.697 0 .192-.05.035-.091-.348-.091-.384 0-.54.041-.349.091m4.094.012c1.677.033 4.365.033 5.973-.001 1.609-.033.237-.06-3.048-.06-3.286 0-4.602.027-2.925.061m27.564.386c.191.05.505.05.697 0 .191-.05.034-.091-.349-.091s-.54.041-.348.091m3.882.003c.247.048.65.048.896 0 .247-.047.045-.086-.448-.086s-.694.039-.448.086m2.317 3.045c0 1.369.032 1.929.071 1.245.038-.685.038-1.805 0-2.489-.039-.684-.071-.124-.071 1.244m-7.776.67c0 .166.144.234.369.175.568-.149.64-.446.108-.446-.27 0-.477.117-.477.271m-1.015.724c0 .383.041.54.091.349.05-.192.05-.506 0-.697-.05-.192-.091-.035-.091.348m.521 1.61c-.028 1.368-.041 1.41-.18.58-.082-.493-.103.403-.045 1.991.057 1.588.124 2.911.149 2.94.025.029.107-1.483.183-3.36.077-1.877.09-3.461.031-3.52-.059-.06-.122.556-.138 1.369m-33.768.282c.003.438.043.593.091.346.048-.248.046-.606-.004-.797-.05-.19-.089.013-.087.451m26.794-.381c.249.174.602.259.786.189.447-.172-.037-.498-.745-.502l-.493-.003.452.316m-.953.268c-.114.212-.197.593-.186.846.016.37.049.34.167-.153.081-.339.212-.719.29-.847.079-.127.097-.231.039-.231-.057 0-.197.173-.31.385m2.979-.202l-.896.123 1.077.156c.86.126 1.14.095 1.387-.152.35-.35.166-.365-1.568-.127m-12.543 1.211c0 .657.07 1.194.155 1.194.086 0 .153-.537.15-1.194-.004-.656-.074-1.194-.156-1.194-.082-.001-.149.537-.149 1.194m-16.859.696c.001.767.037 1.056.08.643.043-.413.043-1.04-.001-1.394-.044-.353-.08-.015-.079.751m26.085 1.132c.018.75.108 1.256.205 1.161.235-.231.514-1.812.295-1.677-.095.059-.253-.1-.352-.354-.131-.336-.171-.102-.148.87m16.504.76c0 .383.041.54.091.348.051-.191.051-.505 0-.697-.05-.191-.091-.034-.091.349m-8.693 3.6c-.428 1.439-.406 1.577.252 1.577h.564l-.168-1.23c-.216-1.582-.272-1.612-.648-.347m284.836-.075l-.032.836-1.244.071-1.244.071 1.25.038c1.39.043 1.521-.07 1.384-1.187-.075-.608-.085-.593-.114.171m-199.439 15.888c0 7.884.024 11.081.055 7.103.03-3.978.03-10.429-.001-14.336-.03-3.906-.054-.652-.054 7.233m-85.839-8.462c-.065.325-.187.548-.27.496-.084-.051-.199.085-.256.302-.159.609.103.46.692-.392.431-.623.478-.794.243-.884-.203-.078-.327.068-.409.478m-17.878 2.704c-.361.264-.341.282.299.279.377-.002.596-.07.486-.151-.109-.082-.244-.208-.299-.28-.055-.072-.274-.003-.486.152m1.421-.188c-.149.149.014.47.239.47.084 0 .154-.134.154-.298 0-.313-.176-.389-.393-.172m1.405.017c.356.044.938.044 1.294 0 .356-.044.065-.08-.647-.08s-1.003.036-.647.08m6.172.016c-.52.034-.946.148-.946.255 0 .107.295.175.655.151.36-.025.764.023.897.106.143.087.291.025.359-.152.09-.235.194-.254.466-.083.296.184 1.601.07 1.38-.122-.139-.12-1.868-.215-2.811-.155m-3.833.238c-.078.126.374.191 1.233.176 1.251-.021 1.294-.035.559-.187-1.097-.227-1.647-.224-1.792.011m42.657 2.469c-.081.865-.135 2.389-.119 3.385.027 1.698.04 1.637.202-.976.197-3.164.141-4.786-.083-2.409m-88.082.717c0 .931.034 1.311.076.846.042-.465.042-1.227 0-1.692-.042-.466-.076-.085-.076.846m29.298-.996c-.159.257.055.602.36.582.183-.012.183-.038-.001-.113-.13-.053-.188-.225-.128-.382.125-.325-.045-.388-.231-.087m11.349 0c-.068.11-.028.199.088.199.116 0 .21.089.21.196 0 .122-2.022.218-5.375.254l-5.376.058 5.425-.005 5.426-.005.064-.448c.064-.453-.236-.615-.462-.249m1.176.22c-.189.209-.28.444-.202.522.078.079.229.011.334-.15.166-.252.221-.244.398.055.243.413.982.469.982.074 0-.712-1.016-1.049-1.512-.501m1.711.107c0 .388.341.669.813.669.1 0 .182-.146.182-.323 0-.261.057-.277.29-.083.16.133.384.183.498.113.114-.071.208-.029.208.094 0 .122.107.156.239.075.186-.115.186-.166 0-.228-.132-.044-.239-.171-.239-.283 0-.113.131-.154.292-.092.161.062.346.025.412-.082.066-.106.217-.133.335-.06.142.087.101.217-.118.377-.299.219-.282.254.169.34.276.053.503.019.503-.075s.224-.171.497-.171c.31 0 .498-.113.498-.299 0-.164-.095-.299-.211-.299-.116 0-.155.09-.087.199.068.111-.081.198-.337.196-.37-.002-.401-.04-.161-.196.249-.161.233-.198-.1-.223-1.506-.113-2.223-.09-2.439.078-.163.127-.249.124-.249-.008 0-.112-.224-.19-.497-.174-.367.021-.498.141-.498.455m-10.989-.178c1.347.035 3.498.034 4.778 0 1.281-.035.178-.063-2.45-.063s-3.676.029-2.328.063m12.781.15c0 .164-.09.299-.199.299-.11 0-.199-.135-.199-.299 0-.164.089-.299.199-.299.109 0 .199.135.199.299m3.715-.009c-.537.407.684.542 4.249.467 2.407-.05 2.887-.11 2.887-.359 0-.251-.489-.303-3.086-.327-1.698-.016-2.818.033-2.489.108l.597.137-.556.147c-.602.159-1.013.021-.829-.277.174-.282-.358-.21-.773.104m-6.075.208c0 .104-.096.221-.214.261-.117.039-.214-.078-.214-.261s.097-.3.214-.26c.118.039.214.156.214.26m12.215-.1c-.14.227-1.696.227-2.588 0-.428-.109-.129-.158 1.057-.175 1.058-.015 1.61.048 1.531.175m-35.54 4.106c0 .265.054.279.299.076.164-.137.299-.282.299-.323 0-.042-.135-.076-.299-.076-.164 0-.299.146-.299.323m2.65 1.171c.001.657.039.902.083.544.044-.358.043-.896-.002-1.195-.045-.299-.082-.006-.081.651m-21.917.298c0 .384.041.54.091.349.051-.192.051-.505 0-.697-.05-.192-.091-.035-.091.348m1.173 2.887c-.001.723.319 2.356.351 1.792.022-.389.161-.398 6.046-.392l6.023.006-5.895-.059-5.896-.058-.314-.943c-.273-.819-.315-.864-.315-.346m16.066 1.444c1.786.033 4.654.033 6.371-.001 1.718-.033.257-.06-3.248-.06-3.504 0-4.909.028-3.123.061m10.54-.003c.575.041 1.516.041 2.091 0 .575-.04.104-.073-1.046-.073-1.15 0-1.62.033-1.045.073m26.946-.063c.056.056 1.345.151 2.865.21 1.52.06 2.716.062 2.659.005-.057-.058-1.347-.152-2.865-.211-1.519-.059-2.716-.061-2.659-.004m6.454.104c-.329.076 1.956.156 5.077.178 5.531.038 9.917.191 10.19.356.075.045.183.004.242-.09.139-.225 4.308-.077 4.597.163.123.101.42.133.661.07.503-.132.579.164.136.532-.229.189-.594.203-1.502.057-.66-.106-1.245-.121-1.3-.032-.055.088-.432.152-.838.141-.405-.01-17.828-.008-38.717.005l-37.979.024.023.648c.013.356.064.491.114.299.124-.472 6.247-.535 6.675-.068.218.238.302.239.566.004.255-.227 2.166-.279 10.801-.295 6.272-.012 10.492-.094 10.492-.204 0-.101.179-.184.398-.184.219 0 .4.112.402.249.002.16.055.176.149.045.123-.173 4.009-.202 11.147-.085.246.004.604.002.796-.005.192-.006 3.216.006 6.72.028 4.616.028 5.686.073 3.882.162-2.184.108-1.923.128 2.133.163l4.621.041.231.77c.406 1.355-.028 1.904-1.561 1.977-.683.033-1.242.145-1.242.249 0 .115 2.025.189 5.16.189 2.838 0 5.302.055 5.475.121.174.067.315.035.315-.071 0-.112-1.494-.234-3.598-.295-4.094-.117-4.072-.108-4.057-1.65.015-1.479-.417-1.396 6.925-1.326 10.54.101 9.907.011 10.042 1.421.135 1.396-.083 1.459-4.994 1.446-4.342-.011-4.455.023-3.796 1.137l.356.604.209-.643.209-.644 3.882-.01c2.135-.005 4.598.06 5.474.145.876.085 2.332.168 3.236.185 1.627.031 1.643.036 1.657.552.007.287.228-.236.489-1.163.402-1.425.549-2.626.181-1.48-.365 1.141-.217 1.082-2.775 1.1-1.314.009-2.593.007-2.842-.005-.593-.027-.93-.782-.758-1.698l.134-.712h3.276c3.227 0 3.276.006 3.276.431 0 .706.201.292.415-.854.36-1.928.471-1.772-1.311-1.867-2.936-.157-22.89-.251-23.494-.111m24.854.778c-.068.259-.285.371-.728.376-.348.005-.515-.036-.373-.089.193-.073.168-.168-.099-.37-.322-.245-.274-.273.468-.279.709-.005.814.047.732.362m-2.654.552c0 .321-.515.37-.703.066-.071-.115-.075-.349-.009-.52.143-.373.712-.009.712.454m-73.967.474c-.068.109-.297.199-.51.199-.212 0-.386-.09-.386-.199 0-.11.229-.2.509-.2.289 0 .456.087.387.2m7.018-.062c-.192.05-.505.05-.697 0-.191-.05-.035-.091.349-.091.383 0 .54.041.348.091m62.543.1c.616-.002 2.33-.034 3.809-.071 1.682-.042 2.706.008 2.738.132.032.124-1.208.237-3.285.299-1.835.055-3.44.167-3.568.25-.127.083-.267.045-.31-.084-.044-.133-.635-.278-1.361-.334-.973-.075-1.163-.135-.785-.247.274-.081.755-.101 1.069-.044.315.057 1.076.101 1.693.099m-52.859.666c.24.509.423.484.571-.079.074-.286-.009-.377-.344-.377-.391 0-.417.054-.227.456m17.54.11c-.075.339-.084 1.033-.02 1.543.067.543.049.769-.045.544-.146-.349-.172-.353-.291-.043-.095.246.011.394.38.534.622.237 1.025.046.585-.276-.486-.355-.637-2.16-.216-2.581.28-.281.287-.336.039-.336-.17 0-.355.263-.432.615m5.529-.478c.191.05.505.05.697 0 .191-.05.034-.091-.349-.091s-.54.041-.348.091m-23.059 2.133c-.131.521.008.915.323.915.247 0 .242-1.137-.006-1.29-.106-.066-.249.103-.317.375m-17.478.409c-.083.215.004.307.291.307.227 0 .373-.105.329-.236-.122-.369-.49-.411-.62-.071m70.253.307c.068.11-.067.199-.299.199-.232 0-.366-.089-.298-.199.067-.109.202-.199.298-.199.097 0 .231.09.299.199m-61.668 1.465c.088 1.364.062 1.488-.373 1.792-.456.32-.442.327.623.304.599-.013.933-.064.741-.114-.474-.124-.622-.851-.463-2.263.122-1.077.1-1.184-.244-1.184-.346 0-.37.126-.284 1.465m17.367-1.189c0 .152.131.577.291.946.284.654.291.657.299.134.004-.295-.083-.592-.195-.661-.111-.069-.145-.218-.074-.332.085-.137.176-.127.274.031.105.171.18.149.267-.078.091-.236-.003-.316-.37-.316-.286 0-.492.116-.492.276m14.435-.077c.068.11.297.199.51.199.212 0 .386-.089.386-.199 0-.109-.229-.199-.509-.199-.289 0-.456.086-.387.199m1.693.036c.936.268 1.194.512 1.194 1.13 0 .499.016.492.372-.173.369-.69.38-.694 1.898-.752 2.64-.101 1.483-.441-1.435-.422-2.171.015-2.584.059-2.029.217m5.606-.059c-.196.124-.133.195.236.265.621.119 1.114-.127.629-.313-.427-.164-.54-.158-.865.048m28.753 1.73c-.073.292-.094.569-.047.616.047.047.145-.154.218-.445.073-.292.095-.569.048-.616-.047-.047-.145.153-.219.445m-.853.606l-.213.61-3.456.131c-1.901.072-4.954.131-6.785.131l-3.328.001-.289-.548-.289-.547-.21.547-.211.548h-6.288c-4.236 0-6.247.067-6.163.204.071.113.802.193 1.655.18 1.838-.027 2.225.101 2.225.739 0 .658-.448.779-1.876.509-2.38-.452-2.439-.459-2.006-.255.339.16.295.192-.299.217-.466.02.062.201 1.593.546 2.659.599 2.623.569 2.242 1.91-.403 1.418-.613 1.545-2.004 1.213-1.471-.352-1.945-.336-.942.032.435.159 1.241.299 1.791.312.55.012 1.2.153 1.444.313s1.275.516 2.291.792c3.496.948 3.788 1.044 4.012 1.323.124.154.487.341.808.416.6.14 3.332 1.289 4.395 1.848.328.172 1.208.616 1.955.985.747.369 1.854 1.045 2.459 1.502l1.1.831.365-.484c.201-.266.314-.53.252-.586-.062-.057-.154.012-.204.153-.065.181-.475.039-1.417-.491-.728-.411-1.923-1.039-2.655-1.397-1.55-.758-1.638-.859-1.303-1.483.968-1.806 1.252-1.862 3.43-.674 2.543 1.386 3.187 1.742 3.244 1.795.033.03-.174.491-.459 1.024-.285.534-.371.791-.192.572.179-.219.636-1.026 1.015-1.792.378-.767.557-1.229.396-1.027-.505.633-1.73-.075-1.406-.812.085-.193.162-.433.172-.534.009-.1.286-.264.614-.364 1.179-.358 1.224-.395.697-.558-.274-.085-1.493-.105-2.71-.045-3.726.185-8.132-1.586-7.292-2.931.241-.385.198-.4-1.196-.419-2.789-.039-4.014-.181-4.718-.547-.39-.203-1.133-.433-1.652-.51-1.551-.232-1.933-1.075-.895-1.971.378-.326.716-.349 3.616-.243 1.76.064 5.257.16 7.772.212 4.925.101 4.748.06 5.114 1.187.109.335.133.313.149-.137.029-.76.213-.817 2.738-.839 2.528-.021 2.531-.019 1.95 1.372-.171.408-.269.784-.219.834.107.107.927-2.016.927-2.401 0-.143.142-.544.315-.891.173-.347.278-.739.234-.871-.045-.133-.176.033-.293.368m-49.475.277c-.334.587-.332.596.115.596.391 0 .442-.083.366-.597-.106-.724-.069-.724-.481.001m108.924.052c.084.085 2.208.129 4.719.1l4.566-.054-4.719-.1c-2.596-.054-4.65-.03-4.566.054m199.328 2.196l.099 2.231.058-2.074c.032-1.14-.012-2.144-.098-2.231-.087-.086-.113.847-.059 2.074m-291.159-1.913c-.075.075-3.741.164-8.147.197-5.804.044-8.174.129-8.607.308l-.597.247.597.129c.565.122.554.131-.199.167-.438.021-.976.122-1.195.226-.35.165-.339.177.1.1 4.072-.721 5.268-.404 5.856 1.549.314 1.044.302 1.06-.878 1.171-.384.037.378.067 1.692.068 1.58.002 1.99-.035 1.21-.107-1.351-.127-1.811-.651-2.041-2.323l-.12-.882 4.159.054c4.154.054 4.159.054 4.223.506l.064.452.336-.414c.346-.427 5.006-.277 5.458.176.281.28.348 1.5.121 2.199l-.219.674-1.618-.105c-1.006-.066-1.354-.047-.921.051 1.344.305 3.389.343 3.153.06-.195-.236-.165-.69.156-2.307.102-.512.163-.544.839-.436.605.097.667.077.364-.114-.202-.126-.586-.188-.854-.137-.268.052-.82-.025-1.227-.17-.406-.145-1.097-.278-1.535-.296-.438-.017-.633-.074-.433-.126.213-.055.318-.209.255-.375-.079-.205.066-.285.533-.295.538-.012.577-.041.242-.185-.513-.221-.602-.228-.767-.062m-48.345.555c.057.219.139.285.184.149.142-.425 4.419-.333 4.737.102.233.318.282.32.619.026.202-.176.501-.367.665-.425.165-.057-1.188-.136-3.005-.175-3.208-.068-3.3-.059-3.2.323m9.543-.153c.247.047.606.046.796-.004.19-.05-.012-.089-.45-.087-.438.002-.594.043-.346.091m10.799.008c2.074.066 2.389.235 2.389 1.283 0 .366.104.559.3.559.243 0 .256-.071.071-.368-.129-.206-.172-.601-.098-.896l.133-.528h2.273c2.35 0 3.644.254 3.088.606-.21.133-.22.185-.035.187.291.004 1.834-.75 1.834-.896 0-.052-2.666-.075-5.923-.051-3.258.024-5.073.071-4.032.104m29.368.05c.067.11.386.199.708.199.388 0 .586.101.586.299 0 .164.112.3.249.301.137.001.607.045 1.045.097l.796.095-.896-.277c-.723-.223-.793-.28-.36-.296.69-.025.886-.337.308-.492-.748-.201-2.572-.145-2.436.074m-13.876.585c.05.149-.024.224-.174.174-.143-.048-.3-.204-.348-.348-.05-.15.025-.224.174-.174.144.047.301.204.348.348m-9.121.387c-.791.239.682.442 1.692.234.438-.091.606-.175.374-.187-.233-.013-.681-.062-.996-.11-.315-.048-.796-.019-1.07.063m2.588.322c-.17.206-.184.377-.045.548.111.137.246.428.3.647.053.219.108-.027.121-.548.025-1.034-.008-1.09-.376-.647m-4.579.145c-1.408.318-.333.606 1.144.307.966-.195 1.067-.253.648-.371-.638-.18-.72-.177-1.792.064m19.268.877c-.074.342-.277.765-.451.939-.407.407.183.594 1.508.476l.88-.077-.934-.035c-1.005-.038-1.329-.284-.96-.73.128-.153.2-.485.162-.738-.061-.398-.088-.377-.205.165m13.787-.22c.342.412.125.576-.394.298-.234-.125-.801-.302-1.262-.393l-.837-.165 1.121-.022c.782-.015 1.196.07 1.372.282m-36.738.286c-.767.203-1.646.467-1.955.587-.308.119-1.139.217-1.846.217-1.185 0-1.301.039-1.474.492-.321.846-1.595.921-1.595.093 0-.212-.116-.386-.258-.386-.177 0-.234.213-.181.669.076.648.038.689-1.135 1.23-.667.308-1.213.634-1.213.724 0 .239.001.238 2.317-.642 2.241-.853 2.551-.868 2.869-.144.185.423.193.416.12-.107-.099-.705.382-1.046 2.217-1.568l2.333-.666c.547-.157 1.133-.242 1.301-.189.169.052.658-.084 1.088-.303.429-.219.668-.398.53-.398s-.518.138-.844.307c-.608.314-1.272.2-.753-.13.395-.25.043-.2-1.521.214m53.857.053c0 .564-.395.744-1.642.748-.411.002-.747.092-.747.202 0 .21.204.232 2.588.279 4.358.085 4.054-.126 3.042 2.11-.802 1.774-1.107 2.598-1.001 2.705.055.055.331-.464.613-1.153.282-.689.786-1.912 1.12-2.717.333-.806.606-1.478.606-1.494-.001-.016-.807-.029-1.793-.029-1.731 0-1.809-.019-2.289-.578l-.497-.579v.506m-69.945.478c-.28.28-.128.472.375.472.323 0 .483-.093.431-.249-.095-.288-.601-.427-.806-.223m55.61.489c3.138 1.02 3.236 1.078 3.092 1.829l-.124.643.487-.576.487-.576 2.512 1.053c2.792 1.171 3.002 1.403 2.405 2.661-.564 1.188-.617 1.192-3.099.199-2.419-.968-3.062-1.449-2.859-2.142.117-.403.109-.402-.206.028-.387.527-.93.562-2.123.137-.479-.17-1.453-.446-2.163-.612-1.643-.385-2.494-1.408-1.621-1.948.096-.059.228-.378.294-.709.156-.778.488-.777 2.918.013m7.927-.006c.424.17 3.612.064 3.803-.127.046-.046-.895-.078-2.09-.071-1.546.009-2.041.066-1.713.198m-51.354.307c.133.119-.863.846-1.022.747-.187-.116-.198-.753-.016-.935.121-.12.839.01 1.038.188m22.67-.178c.247.048.65.048.896 0 .246-.047.045-.086-.448-.086s-.694.039-.448.086m1.991.2c.247.047.65.047.896 0 .247-.048.045-.087-.448-.087s-.694.039-.448.087m22.433-.02c.173.066.315.29.315.498 0 .471-.115.472-.709.005-.616-.485-.372-.797.394-.503m-34.628.476c-.251.108-.288.171-.099.171.164 0 .477-.077.696-.171.251-.108.288-.171.1-.171-.164 0-.478.077-.697.171m22.001.399c.274.087.767.157 1.095.155l.597-.003-.597-.152c-.328-.084-.821-.154-1.095-.156l-.498-.004.498.16m-28.341.652l-.365.636.416-.377c.23-.208.415-.273.415-.146 0 .283.591.296.996.022.222-.15.158-.17-.247-.075-.436.101-.577.044-.699-.285-.142-.383-.176-.369-.516.225m2.458-.254c-.411.131-.428.162-.1.176.219.009.533-.07.697-.176.349-.226.106-.226-.597 0m313.88 11.05c0 5.913.026 8.304.057 5.312.031-2.992.031-7.83 0-10.752-.031-2.921-.057-.473-.057 5.44m-329.809-9.557c-.383.148-.934.275-1.224.284-.322.009-.795.282-1.213.7-.377.377-.946.747-1.264.823-.319.076-.714.254-.879.396-.164.142-.567.398-.896.569-.328.172-.484.312-.348.313.137.001.26.203.272.449.016.312.05.347.112.115.048-.183.355-.426.682-.54.327-.114.866-.401 1.199-.638 1.941-1.382 3.587-1.833 4.183-1.146.431.497.469.4.132-.339-.214-.469-.187-.565.249-.9.613-.472.109-.515-1.005-.086m10.354 0c-.384.148-.563.268-.399.268.165 0 .613-.12.996-.268.383-.148.562-.268.398-.268-.164 0-.612.12-.995.268m-2.987.427c0 .214-.112.515-.249.668-.206.231-.197.242.05.062.164-.12.465-.25.669-.289.35-.068.347-.093-.05-.451-.413-.373-.42-.373-.42.01m-6.969.071c0 .249-.211.249-.597 0-.241-.156-.213-.194.149-.196.247-.002.448.086.448.196m61.754 0c.481 0 1.11.667.883.937-.066.079-1.618-.511-2.209-.839l-.597-.333.672.117c.37.065.933.118 1.251.118m2.28.713c-.067.173-.121.399-.121.502 0 .103-.224.041-.498-.138-.67-.439-.627-.679.121-.679.482 0 .592.069.498.315m-59.554.787c-.498.24-.514.268-.099.166.564-.138 1.198-.461.896-.457-.11.002-.468.133-.797.291m-8.462.187c0 .12-1.121.704-1.334.695-.275-.011.767-.789 1.058-.789.152 0 .276.042.276.094m6.77.503c-.383.21-.625.385-.538.39.211.011 1.334-.573 1.334-.694 0-.13-.011-.126-.796.304m62.239.027l.379.426-.697-.352c-.9-.454-.943-.499-.462-.499.22 0 .571.191.78.425m-64.031.565c0 .107-.336.372-.747.589-.41.217-.675.398-.587.403.213.012 1.408-.606 1.533-.792.055-.082.279-.193.498-.248.305-.076.27-.105-.15-.123-.301-.012-.547.065-.547.171m-2.857 1.621c-.641.33-1.127.639-1.079.686.092.093 2.343-1.081 2.343-1.222 0-.119.024-.129-1.264.536m27.99.176c0 .383.041.54.091.349.05-.192.05-.506 0-.697-.05-.192-.091-.035-.091.348m3.844.186c-.077.125-.004.161.181.089.347-.133.446.421.105.59-.112.055-.09.078.05.049.317-.064.336-.754.023-.858-.127-.042-.288.016-.359.13m-33.72.727c-.38.267-.504.274-.791.05-.306-.24-.313-.231-.066.082.347.443.472.438 1.048-.043.566-.471.44-.53-.191-.089m27.992 4.408c.358.044.895.044 1.195-.002.299-.045.006-.082-.651-.08-.657.001-.902.038-.544.082m3.901 3.241c0 1.04.033 1.466.074.945.041-.52.041-1.371 0-1.891s-.074-.095-.074.946m28.288 4.43l-.585.647.647-.585c.356-.322.647-.613.647-.647 0-.154-.164-.018-.709.585m-50.859 2.041c.926.93 1.729 1.692 1.783 1.692.055 0-.658-.762-1.584-1.692-.926-.931-1.728-1.693-1.783-1.693-.054 0 .658.762 1.584 1.693m36.896.199c.001.657.039.901.083.544.044-.358.043-.896-.002-1.195-.046-.299-.082-.006-.081.651m87.437.348c-.052.137-.071 6.566-.042 14.286l.053 14.037.048-14.184.048-14.183 5.824-.056 5.824-.056-5.83-.046c-4.516-.036-5.852.009-5.925.202m15.981-.105c.354.044.981.045 1.394.001.413-.043.124-.079-.642-.079-.767-.001-1.105.034-.752.078m5.177 0c.354.044.981.045 1.394.001.413-.043.124-.079-.643-.079-.766-.001-1.104.034-.751.078m26.68 0c.354.044.981.045 1.394.001.413-.043.124-.079-.643-.079-.766-.001-1.104.034-.751.078m21.105 0c.354.044.981.045 1.394.001.413-.043.124-.079-.643-.079-.766-.001-1.104.034-.751.078m90.393 0c.354.044.981.045 1.394.001.413-.043.124-.079-.643-.079-.766-.001-1.104.034-.751.078m26.698.005c2.005.033 5.231.033 7.167 0 1.937-.032.296-.059-3.646-.059-3.942 0-5.527.027-3.521.059m-287.072 9.202c0 .106.184.29.408.41.376.201.388.187.151-.192-.269-.431-.559-.544-.559-.218m101.116 20.167c.082.082 44.943.127 99.691.099l99.542-.05-99.691-.099c-54.831-.055-99.625-.033-99.542.05m199.381 13.439l-.049 13.19-195.569.05-195.57.05 195.576.05c156.314.04 195.595 0 195.671-.199.052-.137.071-6.118.042-13.29l-.053-13.042-.048 13.191" fill="#a66c85"/><path d="M1.128 1.128c-.184.185-.168 196.736.017 196.85.082.051.127-44.205.099-98.345l-.05-98.438h397.608l.053 11.1.053 11.1.048-11.2.048-11.199h-198.871c-109.38 0-198.932.059-199.005.132m54.353 54.97c-.083.134 29.766.134 72.244-.002 8.761-.028-3.889-.072-28.111-.099-24.222-.027-44.082.018-44.133.101m88.725 1.045c0 .493.038.694.086.448.047-.247.047-.65 0-.896-.048-.247-.086-.045-.086.448m55.197.199c.067.109.319.193.559.185.421-.013.422-.02.038-.185-.548-.236-.743-.236-.597 0m199.496 11.847c0 6.461.025 9.075.056 5.809.03-3.265.03-8.552 0-11.747-.031-3.195-.056-.523-.056 5.938m-254.851 8.86c0 10.348.024 14.582.053 9.407.03-5.174.03-13.641 0-18.815-.029-5.174-.053-.941-.053 9.408m254.817 5.376c0 .602.037.848.083.547.046-.301.046-.794 0-1.095-.046-.301-.083-.055-.083.548m-343.464 15.032c.002.438.043.594.091.346.047-.248.046-.606-.004-.796-.05-.191-.089.012-.087.45m.206 1.991c.001.548.04.748.086.445.046-.302.044-.75-.003-.995s-.085.002-.083.55m87.979 2.522c-.018.292-.09.696-.161.896-.099.28-.072.313.114.141.137-.125.207-.518.161-.896-.067-.546-.088-.573-.114-.141m-87.635 1.178c.002.265.091.616.199.78.138.21.158.092.068-.398-.158-.859-.271-1.021-.267-.382m87.105 1.974c-.075.345-.096.668-.045.718.051.051.149-.194.219-.543.07-.35.091-.673.046-.718-.045-.045-.144.199-.22.543m-85.515.548c0 .135 14.85.134 34.744-.003 4.161-.028-1.954-.073-13.589-.099-11.635-.026-21.155.02-21.155.102m43.151-.006c.354.044.981.045 1.394.002.413-.043.124-.079-.642-.08-.767-.001-1.105.034-.752.078m11.304.193l4.579.075-.497.387-.498.387.697.036c.383.02.831.022.995.004.165-.017 2.225-.067 4.58-.109 4.714-.085 7.283-.283 7.025-.542-.093-.093-4.96-.201-10.815-.241-5.855-.04-8.585-.038-6.066.003m-55.447.477c.001.264.091.615.198.779.138.211.158.093.068-.398-.157-.858-.27-1.02-.266-.381m1.361.432c.083.082 11.614.127 25.625.099l25.474-.05-25.624-.1c-14.094-.054-25.557-.032-25.475.051m11.441.895c2.06.032 5.376.032 7.367 0 1.991-.033.305-.059-3.746-.059-4.052 0-5.681.026-3.621.059m13.526-.017c-.137.055-.249.244-.249.42 0 .291.023.29.249-.006.137-.18.607-.361 1.045-.403l.797-.076-.797-.018c-.438-.01-.908.027-1.045.083m-22.795.208c.248.047.606.045.796-.004.191-.05-.012-.089-.45-.087-.438.002-.594.043-.346.091m3.774-.002c.603.117.854 1.338.374 1.819-.39.391-5.427.69-5.581.331-.047-.109-.034.115.028.498.062.384.195.832.295.996.135.223.153.194.07-.114-.104-.386-.05-.405.836-.297.522.063 3.457.064 6.523.002 6.078-.124 5.358-.253-1.692-.304-5.569-.04-5.575-.041-5.575-.283 0-.121.893-.199 2.28-.199 2.764 0 3.295-.184 3.295-1.14 0-.923-.319-1.454-.853-1.421l-.441.027.441.085m1.246.372c-.242.636-.247 1.025-.015 1.169.099.061.211-.292.25-.785.082-1.027.037-1.1-.235-.384m16.361-.378c.412.11.57.692.427 1.574l-.11.682h-7.998c-6.125 0-8.06-.058-8.262-.249-.213-.201-.246-.191-.173.05.108.355 8.371.607 13.549.412l3.021-.113.181-.765c.214-.908-.083-1.736-.61-1.701-.306.02-.309.035-.025.11m17.487-.002c.112.056.204.586.204 1.18v1.078h-8.149c-7.593 0-8.155-.024-8.24-.348-.082-.315-.093-.316-.114-.012-.039.571.158.586 8.448.623l8.066.036.205-.762c.222-.822.025-1.769-.383-1.849-.133-.026-.15-.002-.037.054m1.069.176c-.065.169-.062.363.006.431.068.069.124-.019.124-.195 0-.211.22-.346.647-.399l.648-.08-.654-.032c-.427-.021-.694.074-.771.275m3.266-.159c.904.037 2.382.037 3.285 0 .904-.037.165-.067-1.642-.067s-2.546.03-1.643.067m8.412.461c-.784.087-.364.132 1.477.155 1.415.018 2.534-.002 2.489-.044-.167-.154-2.901-.23-3.966-.111m4.583-.062c.009.437.389.726.392.299.002-.246-.087-.448-.196-.448-.11 0-.198.067-.196.149m-16.316 1.387c-.019.622.475.774 2.077.641l1.394-.116-1.513-.035c-1.354-.031-1.535-.082-1.729-.483l-.216-.448-.013.441m14.808.076c-.061.099.118.18.398.18.61 0 .659-.114.111-.257-.218-.057-.448-.023-.509.077m-40.208 1.174c-.718.148 9.753.451 13.215.381 1.939-.039 2.487.01 2.628.234.145.228.18.215.182-.072.002-.195-.109-.395-.246-.444-.4-.142-15.122-.235-15.779-.099m-1.726 1.287c.057 1.079.016 1.259-.299 1.325-1.135.241-13.007-.047-13.007-.315 0-.154-.081-.331-.18-.393-.1-.061-.134.07-.076.29.156.598-.079.574 6.868.685 7.527.121 7.283.179 7.028-1.671-.198-1.443-.411-1.393-.334.079m18.462-.943c-.061.158-.095.75-.077 1.316l.034 1.029.115-1.173.116-1.174 3.286.038c4.839.055 9.541.202 10.485.327.483.064.882.023.957-.099.08-.129-.159-.223-.629-.247-.417-.022-1.072-.066-1.456-.1-2.813-.245-12.73-.181-12.831.083m-17.395 1.094c-.053 1.6-.276 1.553 6.649 1.371l5.957-.156-6.212-.032-6.212-.031-.072-1.145-.072-1.145-.038 1.138m38.091-.441c-.564.144-.551.153.237.176.459.012.89-.067.958-.176.139-.225-.312-.225-1.195 0m2.389 0c.553.238.944.238.797 0-.068-.11-.364-.193-.659-.185-.479.012-.493.032-.138.185m2.392.992c-.069.112-.411.21-.761.218l-.635.016.542.198c.566.207 1.609-.245 1.179-.511-.11-.067-.257-.032-.325.079m-21.045.75c1.676.033 4.364.033 5.973 0 1.608-.034.236-.061-3.049-.061s-4.601.027-2.924.061m203.465 0l99.596.05.066 2.34.067 2.339-.011-2.389-.01-2.39h-199.303l99.595.05m-210.643.191c.248.047.606.046.796-.004.191-.05-.012-.089-.45-.087-.438.002-.594.043-.346.091m-4.402.506c.051.082.692.156 1.425.165l1.332.015-.797.262c-1.055.348-.467.369.797.029.866-.234.931-.284.498-.39-.763-.185-3.361-.25-3.255-.081m-24.418.1c.008.368.389.755.392.398.003-.307.225-.349 1.855-.349 2.125 0 2.33.115 2.33 1.311 0 .981-.146 1.052-2.29 1.113-1.346.038-1.356.042-.299.116 1.664.116 2.813-.106 2.934-.567.095-.363.129-.356.565.115.441.476.572.501 2.632.501 1.193 0 3.415.037 4.938.084 2.096.063 2.406.045 1.276-.074-.822-.086-3.017-.17-4.878-.186-3.648-.032-3.82-.068-3.885-.82-.134-1.581-.32-1.547 8.667-1.578 4.257-.015 7.785-.072 7.84-.127.055-.055-3.598-.074-8.117-.043-9.059.062-8.399-.032-8.816 1.25-.127.391-.13.391-.149-.012-.049-1.008-.671-1.282-2.915-1.282-1.146 0-2.081.067-2.08.15m37.23.237c-1.103.103-.416.148 2.626.175l4.12.036-.286.547c-.157.301-.28.682-.272.846.007.165.175-.059.373-.497.198-.439.303-.856.234-.929-.194-.204-5.122-.333-6.795-.178m17.123-.004c-1.474.131-1.406.272.298.618 1.963.399 2.181.374 2.253-.254.071-.612.137-.603-2.551-.364m-32.235.546c-.011.347-.132.676-.269.731-.157.064-.128.107.078.116.413.02.544-.34.356-.979-.137-.47-.147-.463-.165.132m34.524-.331c.146.235-.049.235-.597 0-.384-.165-.383-.172.038-.186.24-.007.492.076.559.186m-26.281.213c-.405.113-.151.136.785.071.76-.053 1.425-.139 1.477-.19.154-.155-1.617-.061-2.262.119m14.276.037c-.114.137-.26.518-.324.846-.065.328-.059.462.011.297.07-.164.252-.545.404-.846.294-.58.253-.712-.091-.297m2.05-.056c.598.157 3.027.268 2.871.132-.046-.04-.845-.121-1.776-.18-.974-.062-1.439-.042-1.095.048m-22.3.204c-.251.108-.287.171-.099.171.164 0 .478-.077.697-.171.251-.108.288-.171.099-.171-.164 0-.478.077-.697.171m-1.493.226c0 .095.224.172.498.172s.498-.034.498-.076c0-.042-.224-.12-.498-.172-.274-.052-.498-.018-.498.076m6.598.192c-.032.61.325 1.765.657 2.124.178.193.49.207 1.318.057l1.084-.196-1.135.077-1.134.077-.302-.831c-.166-.456-.338-1.054-.382-1.328l-.079-.498-.027.518m21.277-.07c0 .082.305.15.678.15.372 0 .636-.068.585-.15-.051-.082-.356-.149-.678-.149-.322 0-.585.067-.585.149m-30.298.548c-.055.056-.764.275-1.576.487-.812.213-1.252.39-.978.395.273.005 1.169-.21 1.991-.478.821-.267 1.306-.49 1.078-.495-.228-.005-.46.036-.515.091m2.682.518c-.144.144-.16.427-.046.823.253.882.386.913.247.057-.085-.523-.038-.793.158-.917.153-.097.184-.178.069-.18-.115-.001-.308.096-.428.217m12.54.228c.017.302.101.548.186.548.191 0 .18-.178-.044-.697-.148-.344-.168-.323-.142.149m7.51-.076c0 .131-.202.32-.448.419-.303.121-.343.184-.124.192.368.015.894-.528.7-.722-.071-.07-.128-.02-.128.111m.741.093c-.207.524-.199.533.404.508.313-.013.403-.061.211-.112-.185-.049-.367-.24-.404-.425-.061-.301-.083-.299-.211.029m-22.941.133l-.399.171.399.011c.219.006.532-.076.697-.182.395-.256-.102-.256-.697 0m1.095-.124c0 .041.142.415.316.832.174.416.278 1.013.232 1.328-.068.465-.037.523.171.313.278-.282-.214-2.548-.553-2.548-.091 0-.166.033-.166.075m7.078.437c.102.592.073.62-.848.832l-.954.219.896-.105c1.132-.133 1.293-.29 1.02-.993l-.219-.565.105.612m7.626-.064c.101.101.395.149.654.109.398-.063.37-.091-.183-.183-.395-.065-.581-.036-.471.074m1.921-.067c-.353.08.176.135 1.294.135s1.647-.055 1.294-.135c-.328-.074-.911-.135-1.294-.135s-.966.061-1.294.135m-19.313.321c-.438.144-.617.265-.398.269.219.003.667-.117.995-.267.753-.345.446-.346-.597-.002m-14.037.094c-2.66.065-3.7.144-2.987.226.603.07 3.268.079 5.924.02 5.147-.114 5.53-.037 4.579.921-.199.201-.183.225.084.124.439-.167.61-.646.378-1.059-.211-.378-1.031-.401-7.978-.232m28.027-.055c.358.045.896.044 1.195-.002.299-.045.006-.082-.651-.08-.657.001-.901.038-.544.082m13.188.071c.93.089 1.983.215 2.339.281.356.065.647.039.647-.059 0-.181-2.693-.457-3.982-.409-.383.014.065.099.996.187m-32.454.171c0 .103.09.244.2.312.282.174 1.025-.09.886-.314-.15-.242-1.086-.24-1.086.002m3.135.342c-.757.315-.92.698-.538 1.263.152.225.173.171.083-.218-.108-.467-.026-.558.84-.93.528-.227.825-.415.661-.419-.164-.003-.635.134-1.046.304m33.798.068c.556.239 1.295.239 1.295 0 0-.109-.381-.192-.847-.185-.655.011-.756.053-.448.185m6.869.188c0 .333.354.416.471.11.069-.181 0-.298-.178-.298-.161 0-.293.085-.293.188m-34.432.236c-.019.482.435.793.791.542.238-.169.226-.186-.065-.092-.246.08-.411-.022-.534-.329-.122-.304-.183-.342-.192-.121m29.554-.025c.934.237 1.463.237 1.096 0-.165-.107-.613-.184-.996-.173l-.697.021.597.152m-27.974.201c-.21.138-.092.158.399.068.858-.157 1.02-.27.381-.266-.265.001-.615.091-.78.198m313.987 10.749l-.099 11.051-99.453.099-99.452.1 99.353.047c54.644.025 99.465-.026 99.603-.113.198-.125.24-2.498.199-11.197l-.053-11.037-.098 11.05m-323.336-10.602c.011.199.769 1.578.779 1.418.014-.206-.586-1.567-.691-1.567-.053 0-.093.067-.088.149m-4.887.678c-1.459.645-1.909.912-1.136.675.682-.21 2.959-1.285 2.729-1.288-.109-.002-.826.274-1.593.613m1.733.305c-.909.388-1.616.743-1.572.787.077.077 3.317-1.249 3.501-1.433.214-.214-.393-.01-1.929.646m46.841-.522c-.217.351.011.4.421.091.336-.255.342-.291.046-.297-.185-.003-.395.089-.467.206m-42.501.562c0 .619.719 1.049 1.4.838l.691-.214-.748.107c-.665.094-.77.049-.941-.401-.191-.5-.402-.674-.402-.33m-14.312.543c.178.206.283.51.234.674-.074.249-.056.252.106.02.269-.385 1.702.348 1.787.914.09.603-.858 1.191-1.14.707-.111-.191-.205-.253-.208-.138-.016.544.458.668 1.021.267.933-.665.296-2.168-.918-2.168-.279 0-.507-.102-.507-.227 0-.16.388-.187 1.328-.09 1.572.161 2.151.396 1.492.605-.522.165-.618 1.105-.113 1.105.449 0 1.474-.768 1.474-1.104 0-.281.361-.414 1.493-.551.329-.04-.04-.079-.82-.087-.779-.007-2.347-.079-3.484-.158-2.012-.14-2.059-.134-1.745.231m13.914.451c0 .228-.235.471-.604.624-.332.137-.564.289-.516.337.213.213 1.319-.578 1.319-.942 0-.217-.045-.393-.1-.393-.054 0-.099.168-.099.374m-9.955.621c-.49.383-.996.521-.996.271 0-.238.696-.656 1.095-.658.364-.002.356.031-.099.387m1.692.265c-.438.246-1.495.835-2.349 1.309-.854.474-1.518.897-1.476.939.099.099 1.275-.473 1.983-.965.301-.209 1.148-.687 1.882-1.063.734-.376 1.205-.68 1.046-.675-.159.005-.648.21-1.086.455m4.878.83c-.274.157-.408.285-.299.285.11 0 .424-.128.697-.285.274-.156.408-.284.299-.284-.11 0-.423.128-.697.284m-2.47.773c.076.2-.135.427-.65.699-.926.488-.755.552.226.084.691-.329.896-.717.507-.957-.111-.069-.147.007-.083.174m-2.747 1.695c-1.294.737-1.47.977-.258.352 1.169-.604 1.671-.93 1.393-.904-.109.01-.62.258-1.135.552m-1.353 4.799c.234.329.47.598.525.598.054 0-.092-.269-.326-.598-.234-.328-.47-.597-.525-.597-.055 0 .092.269.326.597m1.393 1.991c.234.329.47.598.525.598.055 0-.092-.269-.326-.598-.233-.328-.47-.597-.524-.597-.055 0 .091.269.325.597m63.514.648c-.293.4-.341.539-.126.364.326-.265.82-1.012.669-1.012-.038 0-.283.292-.543.648m-1.917 2.48c-.533.625-.866 1.073-.739.995.279-.171 1.937-2.131 1.803-2.131-.051 0-.53.511-1.064 1.136m-59.665-.446c.197.27.441.494.542.498.101.003-.026-.218-.283-.492-.597-.635-.719-.638-.259-.006m4.141 4.685c.539.548 1.025.996 1.08.996.055 0-.342-.448-.881-.996-.539-.547-1.025-.995-1.08-.995-.055 0 .342.448.881.995m51.259.747l-.687.747.747-.687c.695-.638.838-.807.686-.807-.033 0-.369.336-.746.747m-48.671 1.842c.428.438.823.796.878.796.054 0-.251-.358-.678-.796-.428-.438-.823-.797-.878-.797-.054 0 .251.359.678.797m45.485 1.145l-.686.746.746-.686c.695-.639.839-.807.687-.807-.034 0-.37.336-.747.747m-41.176 2.621c.258.209.508.343.555.296.102-.102-.611-.662-.854-.671-.094-.004.04.165.299.375m35.711 1.756l-.796.706.796-.56c1.025-.72.976-.678.88-.772-.046-.044-.442.237-.88.626m-32.57.523c.266.327 1.012.82 1.012.669 0-.038-.291-.282-.647-.543-.4-.293-.539-.341-.365-.126m144.91 22.769c.354.044.981.045 1.394.002.413-.043.124-.079-.643-.08-.766-.001-1.104.034-.751.078m50.577.001c.356.044.938.044 1.294 0 .356-.044.065-.081-.647-.081s-1.003.037-.647.081m50.374 0c.355.044.938.044 1.294 0 .356-.044.064-.081-.647-.081-.712 0-1.003.037-.647.081m37.232 0c.356.044.938.044 1.294 0 .356-.044.065-.081-.647-.081s-1.003.037-.647.081m24.291.003c.684.039 1.804.039 2.488 0 .685-.039.125-.071-1.244-.071s-1.929.032-1.244.071m7.411-.016c.137.067.204 4.429.204 13.126v13.024l-196.864.05-196.864.05 196.965.05 196.965.05-.051-13.175c-.041-10.485-.103-13.184-.305-13.225-.14-.028-.162-.006-.05.05" fill="#cbc6cf"/><path d="M249.942 57.491c27.358.028 72.067.028 99.353 0 27.285-.028 4.901-.05-49.743-.05-54.644 0-76.969.022-49.61.05m.979 27.078c27.13.028 71.525.028 98.656 0 27.13-.027 4.933-.05-49.328-.05s-76.459.023-49.328.05m-122.035 22.495c.086.139-.499.282-1.709.417-1.768.198-1.713.203 1.405.143 1.786-.035 3.296-.112 3.356-.172.146-.147-1.079-.352-1.824-.305-.328.02-.768-.038-.978-.129-.255-.112-.338-.096-.25.046m-7.878.593c.247.048.606.046.796-.004.191-.05-.012-.089-.45-.087-.438.003-.594.043-.346.091m2.337.058c-.544.234.365.234 1.095 0 .485-.155.483-.159-.1-.165-.328-.003-.776.071-.995.165m-11.897.149c1.013.036 2.671.036 3.684 0 1.013-.037.184-.066-1.842-.066-2.026 0-2.854.029-1.842.066m-1.393.995c1.122.036 2.959.036 4.081 0 1.123-.035.204-.064-2.04-.064-2.245 0-3.164.029-2.041.064m7.665-.03c-.331.152-.321 1.698.015 2.157.266.363 3.881.37 9.99.018l2.566-.147c.795-.045 1.002-.136 1.136-.497.216-.586.176-.601-2.065-.765-1.432-.105-1.935-.213-1.935-.414 0-.217-.594-.271-2.956-.271-1.626 0-3.754-.044-4.729-.098-.975-.053-1.885-.046-2.022.017m10.151.294c.226.132.847.139 1.792.02l1.447-.182-1.792-.019c-1.294-.015-1.696.036-1.447.181m-12.689 1.754c-.329.075-2.972.165-5.874.201-2.902.037-6.038.125-6.969.196-.93.071 1.713.101 5.874.068 7.711-.062 8.462-.101 8.462-.445 0-.217-.585-.225-1.493-.02m-13.39 1.157c.192.05.505.05.697 0 .191-.05.035-.091-.349-.091-.383 0-.54.041-.348.091m3.833.049c-.719.123-.658.145.638.224.789.048 1.371.026 1.294-.048-.247-.238-1.113-.317-1.932-.176m3.335.222c-.683.268-.588.288 1.393.29 5.05.004 6.535.174 7.082.807l.504.585-.483.069c-.265.038-.572.138-.681.223-.11.085-1.051.089-2.091.01-1.07-.081-2.125-.063-2.428.042-.295.102-1.258.155-2.141.12-.882-.036-1.604-.006-1.604.067.001.317 16.194.196 16.712-.125.331-.204.251-1.42-.113-1.723-.238-.197-1.138-.28-3.335-.307-1.655-.021-5.115-.082-7.688-.136-2.574-.054-4.881-.019-5.127.078m18.231.443c-.985.39-.935 1.586.066 1.569 2.196-.037 4.494-.317 4.799-.584.854-.749.112-1.19-1.291-.767-.505.152-.992.212-1.083.134-.162-.138-1.73-.627-1.88-.585l-.611.233m-19.421.94c0 .493.038.695.086.448.047-.246.047-.649 0-.896-.048-.246-.086-.044-.086.448m25.522-.584c-.188.305.003.428.539.347l.465-.07-.436-.245c-.304-.171-.476-.181-.568-.032m-19.554 2.519c.301.046.794.046 1.095 0 .301-.046.055-.083-.547-.083-.603 0-.849.037-.548.083m3.949.136c-.569.686-.191 1.182 1.079 1.415.657.121 1.418.344 1.692.497.58.323 4.92.455 5.874.179.328-.095 1.326-.208 2.217-.25 1.91-.092 3.678-.79 3.203-1.265-.513-.512-13.67-1.051-14.065-.576m-7.934 1.314c0 .383.04.54.091.349.05-.192.05-.506 0-.697-.051-.192-.091-.035-.091.348m3.537 0c0 .11.247.193.548.185.485-.012.502-.033.149-.185-.544-.234-.697-.234-.697 0m1.347.431c.208.208.571.297 1.413.349.204.012.237.201.131.763-.167.888-.361 1.038-1.348 1.042-1 .005-.955.34.059.437 1.022.097 1.073.059 1.461-1.088.434-1.283.443-1.259-.563-1.512-1.172-.295-1.455-.293-1.153.009m-5.176.755c-.137.49-.055.774.162.557.063-.064.084-.325.046-.581l-.07-.465-.138.489m7.853.158c-.747 1.982-.743 1.995.755 2.426.492.142 1.075.329 1.294.417.219.088.756.25 1.194.361.439.112.984.26 1.212.331.355.11.479-.024.854-.926l.437-1.053-.417-.315c-.229-.173-.837-.433-1.351-.577-.513-.144-1.544-.475-2.289-.737-.746-.261-1.385-.474-1.42-.474-.035 0-.156.246-.269.547m9.316.835c0 .57.069.602 3.086 1.436 1.195.33 2.328.351 2.43.045.043-.126-.27-.277-.73-.35-.486-.078-.804-.237-.804-.402 0-.33-.609-.512-1.721-.516-.547-.002-.863-.103-.939-.301-.181-.471-1.322-.395-1.322.088m-14.534.011c0 .11.201.198.448.196.362-.002.39-.04.149-.196-.386-.249-.597-.249-.597 0m6.032.332c-.07.182-.045.283.056.224.101-.059.363-.036.582.053.326.131.281.162-.249.174-.356.007-.647-.024-.647-.07 0-.045-.055-.225-.121-.398-.079-.205-.012-.315.193-.315.21 0 .272.109.186.332m5.666.828c-1.217 1.433-.876 2.086 1.483 2.834.799.254 1.538.534 1.642.623.608.52 1.682-.078 1.696-.945.007-.431-.662-1.282-1.007-1.282-.11 0-.577-.187-1.037-.416-2.22-1.103-2.47-1.176-2.777-.814m-4.217.139c-.41.309-.638.26-.421-.091.072-.117.282-.209.467-.206.296.006.29.042-.046.297m10.309 3.277c-.602.246-.757.583-.332.72.366.118.708.248 1.715.653.76.305.763.302.379-.373-.186-.327-.451-.596-.588-.597-.137-.001-.226-.108-.199-.238.064-.306-.428-.389-.975-.165m80.233 47.938c3.375.031 8.84.031 12.145 0 3.305-.031.543-.056-6.137-.056s-9.383.025-6.008.056m32.654 0c6.661.029 17.502.029 24.092 0 6.589-.029 1.139-.053-12.111-.053-13.251 0-18.642.024-11.981.053m50.373 0c6.661.029 17.503.029 24.092 0 6.589-.029 1.139-.053-12.111-.053s-18.642.024-11.981.053m47.088 0c4.854.03 12.738.03 17.521 0 4.783-.03.811-.054-8.825-.054-9.637 0-13.55.024-8.696.054m33.719 0c2.922.031 7.76.031 10.752 0 2.992-.031.601-.056-5.312-.057-5.914 0-8.361.026-5.44.057" fill="#f4bcb4"/></g></svg>