<svg version="1" xmlns="http://www.w3.org/2000/svg" width="603pt" height="300pt" viewBox="0 0 603.000000 300.000000"><g fill="#00690E"><path d="M0 150v150h603v-300h-603v150zm601.5-128.5v20l-150.2.3-150.3.2v44h301l-.2 20.7-.3 20.8-150.2.3-150.3.2v44l150.3.2 150.2.3.3 20.7.2 20.8h-301v45h300.5v39.5h-600l-.3-147.5c-.1-81.1 0-148.1.3-148.8.3-1 60.9-1.2 300.2-1l299.8.3v20zM84.2 122.2c.4 35 .6 37.8 2.7 45.3 2.9 10.5 10.7 26.4 16.9 34.5 10.4 13.8 27.8 27.5 41.9 32.9l5.2 2 9.8-4.9c23.5-11.7 40.9-30.9 49.9-54.9 5.6-14.9 6.4-22.3 6.4-59.2v-32.9h-133.1l.3 37.2zm40.4-24.3c1.4.6 3.6 1.1 5 1.1 2.8 0 7.4 2.7 7.4 4.4 0 1.1 1 1.3 11.2 1.8 5.3.3 5.7.5 5.3 2.5-.2 1.5.1 2.3 1.1 2.3.8 0 1.3-.8 1.1-2.1-.2-1.7 1.2-2.6 8.8-5.4 4.9-1.9 9.1-3.2 9.4-3 .2.3.9.1 1.5-.4 1.2-1 8.4.1 13.1 2 1.7.7 4.1 1.4 5.5 1.6 1.4.2 2.9.8 3.4 1.3 1.5 1.5-2.3 2.4-5 1.1-3.7-1.6-12.6-1.4-15.2.5-1.2.8-2.7 1.2-3.2.9-.6-.3-2.2.2-3.8 1.3-1.5 1.1-5.4 2.9-8.6 4.1-4.7 1.7-6.1 1.9-6.7.9-.7-1-.9-.9-.9.4 0 2.1.5 2-8.3.8-3.8-.6-8.2-1.7-9.9-2.6-2.8-1.5-3-1.5-2.5 0 .8 1.9.8 1.9-3.2.5-1.7-.6-3.6-2-4.2-3-1.3-2.5-6.8-2.5-13.9.1-6.3 2.3-6 2.3-6 1.1 0-.5.9-1.1 2-1.4 1.1-.3 2-1.2 2-2.1 0-1.8-4.5-4-6.1-3-1.7 1-2.2-2.7-.5-4.4 1.3-1.3 2.1-1.4 4.5-.5 2.4.9 2.9.8 2.4-.3-.4-1 .4-1.4 3-1.4 2 0 3.9-.5 4.2-1.1.4-.6 1.3-.8 2.1-.5.8.3 1.5 0 1.5-.7.1-.7.3-.5.6.4.2.9 1.5 2.1 2.9 2.8zm-15.6 8c0 .5-.8 1.1-1.7 1.5-1 .3-2.5.9-3.3 1.2-.8.3-.4-.4.9-1.5 2.5-2.2 4.1-2.7 4.1-1.2zm13.5 14.1c.3.5-.1 1-.9 1-.9 0-1.6-.5-1.6-1 0-.6.4-1 .9-1 .6 0 1.3.4 1.6 1zm56 0c.3.5-.1 1-.9 1-.9 0-1.6-.5-1.6-1 0-.6.4-1 .9-1 .6 0 1.3.4 1.6 1zm-55 3c1.5.6.9.9-2.5.9s-4-.3-2.5-.9c1.1-.5 2.2-.9 2.5-.9.3 0 1.4.4 2.5.9zm55 0c.3.5-.1 1-.9 1-.9 0-1.6-.5-1.6-1 0-.6.4-1 .9-1 .6 0 1.3.4 1.6 1zm-54.9 3.5c-.3.8 0 1.5.6 1.5s.8.3.5.7c-.4.3-.2 1.2.4 2 .9.9.8 1.3 0 1.3-.6 0-1.1-.5-1.1-1 0-.6-1-1-2.2-1-2.2.1-2.3.1-.4 1.5 1.1.8 3 1.5 4.3 1.5 1.3 0 2.3.4 2.3 1s-3 1-7 1-7-.4-7-1 1.5-1.1 3.3-1.1c1.7-.1 2.4-.3 1.5-.6-1-.2-1.8-.9-1.8-1.4 0-.6.4-.7 1-.4.6.3.7-.1.4-.9-.4-1.2.1-1.6 1.7-1.7 2.4-.2 2.4-.2.2-.6-3.4-.6-2.8-2.3.8-2.3 2.4 0 3 .4 2.5 1.5zm56.4-.5c0 .5-1.4 1-3.1 1-1.7 0-2.8-.4-2.4-1 .3-.6 1.7-1 3.1-1 1.3 0 2.4.4 2.4 1zm-3 3c-1.9 1.3-3 1.3-3 0 0-.6 1-1 2.3-1 1.8 0 1.9.2.7 1zm8 5c0 .6-3.2 1-7.5 1s-7.5-.4-7.5-1 3.2-1 7.5-1 7.5.4 7.5 1zm-54.5 5c-.3.5-4.6 1-9.5 1s-9.2-.5-9.5-1c-.4-.6 3-1 9.5-1s9.9.4 9.5 1zm54.6.1c-2.8 1.1-17.1.9-17.1-.3 0-.4 4.4-.8 9.8-.7 7.2 0 9.1.3 7.3 1zm-55 8.1c.1 4.4.3 5.4.8 3.4.9-4.2 7.2-6.5 18.1-6.5 10.9 0 17.2 2.3 18.1 6.5.7 3.2 1 2.2 1.2-4.6l.2-4.5 8.8-.3 8.7-.3v48.2l-8.7-.3-8.8-.3-.3-16.5-.2-16.5-6.1-2.4c-4.1-1.6-8-2.3-12.2-2.3-7.2.1-8.8.4-14.2 2.8-2.2 1-4.3 1.7-4.7 1.6-.5-.1-.8 7.5-.8 16.8v17.1l-8.7-.3-8.8-.3-.2-23.8-.1-23.7h17.8l.1 6.2zm-.1 44.8c0 1.9-.7 2-8.9 2-8.5 0-11-.8-9.6-3 .3-.6 4.6-1 9.6-1 8.2 0 8.9.1 8.9 2zm57 0c0 1.9-.7 2-9.5 2-7.2 0-9.5-.3-9.5-1.3 0-2.4 1.2-2.7 10.2-2.7 8.1 0 8.8.2 8.8 2zm-57 5.5c0 2.5-.1 2.5-8.9 2.5-6.3 0-9.1-.4-9.4-1.3-1.1-3.1.5-3.7 9.4-3.7 8.8 0 8.9 0 8.9 2.5zm56.8.2c.3 2.2.1 2.3-8.7 2.3-9 0-10.8-.7-9.7-3.6.5-1.2 2.2-1.5 9.3-1.2 8.3.3 8.8.4 9.1 2.5zM176.1 101.7c-1 1.1-1 1.8-.2 2.6s1.1.7 1.1-.5c0-.9.5-1.8 1.2-2 .7-.3.8-.7.3-1-.6-.3-1.6.1-2.4.9zM133.1 107.3c.2.1 1.3.9 2.4 1.7 1.9 1.4 1.9 1.4.6-.3-.7-.9-1.8-1.7-2.4-1.7-.6 0-.8.1-.6.3z"/></g></svg>